<svg xmlns="http://www.w3.org/2000/svg" xmlns:xlink="http://www.w3.org/1999/xlink" width="150" zoomAndPan="magnify" viewBox="0 0 112.5 112.499997" height="150" preserveAspectRatio="xMidYMid meet" version="1.0"><defs><g/><clipPath id="32be077fbc"><path d="M 0 0.394531 L 111.425781 0.394531 L 111.425781 111.605469 L 0 111.605469 Z M 0 0.394531 " clip-rule="nonzero"/></clipPath><clipPath id="c0bfb034e8"><path d="M 16.828125 53.664062 L 22.132812 53.664062 L 22.132812 58.320312 L 16.828125 58.320312 Z M 16.828125 53.664062 " clip-rule="nonzero"/></clipPath><clipPath id="1bf6f4fc6c"><path d="M 17.039062 54.421875 C 16.609375 55.132812 16.910156 55.820312 17.292969 56.1875 L 19.515625 58.320312 L 21.691406 56.191406 C 22.046875 55.800781 22.179688 55.382812 22.105469 54.917969 C 22.003906 54.277344 21.472656 53.777344 20.820312 53.707031 C 20.417969 53.664062 20.03125 53.777344 19.726562 54.027344 C 19.644531 54.09375 19.574219 54.171875 19.507812 54.253906 C 19.433594 54.160156 19.347656 54.074219 19.246094 53.996094 C 18.898438 53.734375 18.457031 53.628906 18.03125 53.710938 C 17.628906 53.789062 17.265625 54.046875 17.039062 54.421875 Z M 17.039062 54.421875 " clip-rule="nonzero"/></clipPath><clipPath id="fc4ac73cd7"><path d="M 89.875 53.664062 L 95.183594 53.664062 L 95.183594 58.320312 L 89.875 58.320312 Z M 89.875 53.664062 " clip-rule="nonzero"/></clipPath><clipPath id="e806de191b"><path d="M 90.085938 54.421875 C 89.65625 55.132812 89.960938 55.820312 90.339844 56.1875 L 92.5625 58.320312 L 94.738281 56.191406 C 95.09375 55.800781 95.230469 55.382812 95.152344 54.917969 C 95.050781 54.277344 94.519531 53.777344 93.867188 53.707031 C 93.464844 53.664062 93.078125 53.777344 92.773438 54.027344 C 92.695312 54.09375 92.621094 54.171875 92.558594 54.253906 C 92.480469 54.160156 92.394531 54.074219 92.292969 53.996094 C 91.945312 53.734375 91.503906 53.628906 91.078125 53.710938 C 90.675781 53.789062 90.3125 54.046875 90.085938 54.421875 Z M 90.085938 54.421875 " clip-rule="nonzero"/></clipPath><clipPath id="fd5fc8f3b4"><path d="M 45.234375 38 L 56 38 L 56 74.308594 L 45.234375 74.308594 Z M 45.234375 38 " clip-rule="nonzero"/></clipPath><clipPath id="cef360cbfc"><path d="M 59 37.675781 L 66.605469 37.675781 L 66.605469 74 L 59 74 Z M 59 37.675781 " clip-rule="nonzero"/></clipPath></defs><g clip-path="url(#32be077fbc)"><path fill="#e48b8d" d="M 56 103.441406 C 29.839844 103.441406 8.558594 82.160156 8.558594 56 C 8.558594 29.84375 29.839844 8.5625 56 8.5625 C 82.15625 8.5625 103.4375 29.84375 103.4375 56 C 103.4375 82.160156 82.15625 103.441406 56 103.441406 Z M 111.996094 56 C 111.996094 53.804688 107.570312 51.894531 107.316406 49.765625 C 107.054688 47.589844 110.894531 44.683594 110.378906 42.597656 C 109.859375 40.476562 105.105469 39.679688 104.34375 37.667969 C 103.570312 35.628906 106.59375 31.882812 105.589844 29.972656 C 104.578125 28.046875 99.773438 28.417969 98.542969 26.636719 C 97.308594 24.851562 99.351562 20.488281 97.914062 18.867188 C 96.472656 17.246094 91.898438 18.75 90.273438 17.308594 C 88.652344 15.871094 89.597656 11.148438 87.8125 9.914062 C 86.03125 8.683594 81.949219 11.234375 80.023438 10.222656 C 78.113281 9.214844 77.898438 4.402344 75.859375 3.628906 C 73.847656 2.863281 70.496094 6.324219 68.375 5.800781 C 66.285156 5.289062 64.921875 0.667969 62.746094 0.40625 C 60.617188 0.152344 58.195312 4.3125 56 4.3125 C 53.800781 4.3125 51.378906 0.152344 49.25 0.40625 C 47.074219 0.667969 45.710938 5.289062 43.621094 5.800781 C 41.5 6.324219 38.152344 2.863281 36.136719 3.628906 C 34.097656 4.402344 33.886719 9.214844 31.976562 10.222656 C 30.050781 11.234375 25.964844 8.683594 24.183594 9.914062 C 22.398438 11.148438 23.34375 15.871094 21.722656 17.308594 C 20.101562 18.75 15.523438 17.242188 14.085938 18.867188 C 12.648438 20.488281 14.6875 24.851562 13.453125 26.636719 C 12.222656 28.417969 7.417969 28.046875 6.40625 29.972656 C 5.402344 31.882812 8.429688 35.628906 7.65625 37.667969 C 6.890625 39.679688 2.136719 40.476562 1.617188 42.597656 C 1.105469 44.683594 4.941406 47.589844 4.679688 49.765625 C 4.425781 51.894531 0 53.804688 0 56 C 0 58.199219 4.425781 60.105469 4.679688 62.234375 C 4.941406 64.410156 1.105469 67.316406 1.617188 69.402344 C 2.136719 71.527344 6.890625 72.320312 7.652344 74.335938 C 8.425781 76.371094 5.402344 80.117188 6.40625 82.03125 C 7.417969 83.953125 12.222656 83.585938 13.453125 85.363281 C 14.6875 87.152344 12.648438 91.511719 14.082031 93.132812 C 15.523438 94.757812 20.097656 93.253906 21.722656 94.691406 C 23.34375 96.128906 22.398438 100.851562 24.183594 102.089844 C 25.964844 103.320312 30.046875 100.765625 31.972656 101.78125 C 33.886719 102.785156 34.097656 107.597656 36.136719 108.371094 C 38.152344 109.136719 41.5 105.679688 43.621094 106.199219 C 45.710938 106.710938 47.074219 111.332031 49.25 111.59375 C 51.378906 111.851562 53.800781 107.691406 56 107.691406 C 58.195312 107.691406 60.617188 111.851562 62.746094 111.59375 C 64.921875 111.332031 66.285156 106.710938 68.375 106.199219 C 70.496094 105.679688 73.847656 109.136719 75.859375 108.371094 C 77.898438 107.597656 78.113281 102.785156 80.023438 101.78125 C 81.949219 100.765625 86.03125 103.320312 87.8125 102.089844 C 89.597656 100.851562 88.652344 96.128906 90.273438 94.691406 C 91.898438 93.253906 96.472656 94.757812 97.914062 93.132812 C 99.347656 91.511719 97.308594 87.152344 98.542969 85.363281 C 99.773438 83.585938 104.578125 83.957031 105.589844 82.03125 C 106.59375 80.117188 103.570312 76.375 104.34375 74.335938 C 105.105469 72.320312 109.859375 71.527344 110.378906 69.402344 C 110.894531 67.316406 107.054688 64.410156 107.316406 62.234375 C 107.570312 60.105469 111.996094 58.199219 111.996094 56 " fill-opacity="1" fill-rule="nonzero"/></g><path fill="#e48b8d" d="M 100.183594 59.121094 C 100.171875 59.121094 100.164062 59.121094 100.152344 59.121094 C 100.011719 59.113281 99.878906 59.050781 99.78125 58.941406 C 99.6875 58.835938 99.636719 58.699219 99.644531 58.554688 C 99.652344 58.414062 99.714844 58.28125 99.824219 58.183594 C 99.929688 58.089844 100.066406 58.039062 100.210938 58.046875 C 100.503906 58.0625 100.730469 58.316406 100.71875 58.613281 C 100.703125 58.898438 100.464844 59.121094 100.183594 59.121094 Z M 100.324219 61.308594 C 100.226562 61.386719 100.109375 61.429688 99.988281 61.429688 C 99.96875 61.429688 99.949219 61.429688 99.929688 61.425781 C 99.632812 61.394531 99.421875 61.128906 99.453125 60.835938 C 99.46875 60.695312 99.535156 60.566406 99.648438 60.476562 C 99.757812 60.386719 99.898438 60.34375 100.042969 60.359375 C 100.183594 60.375 100.3125 60.445312 100.402344 60.554688 C 100.492188 60.667969 100.535156 60.804688 100.519531 60.949219 C 100.503906 61.089844 100.433594 61.21875 100.324219 61.308594 Z M 99.984375 63.621094 C 99.890625 63.6875 99.78125 63.726562 99.671875 63.726562 C 99.640625 63.726562 99.613281 63.722656 99.585938 63.71875 C 99.292969 63.671875 99.09375 63.394531 99.140625 63.105469 C 99.164062 62.960938 99.238281 62.839844 99.355469 62.753906 C 99.46875 62.667969 99.613281 62.636719 99.753906 62.65625 C 99.894531 62.679688 100.019531 62.757812 100.105469 62.871094 C 100.1875 62.988281 100.222656 63.128906 100.199219 63.273438 C 100.175781 63.414062 100.101562 63.539062 99.984375 63.621094 Z M 99.757812 65.574219 C 99.726562 65.714844 99.644531 65.835938 99.523438 65.914062 C 99.4375 65.96875 99.335938 66 99.234375 66 C 99.195312 66 99.160156 65.996094 99.121094 65.988281 C 98.832031 65.925781 98.648438 65.640625 98.707031 65.351562 C 98.769531 65.0625 99.054688 64.878906 99.34375 64.9375 C 99.484375 64.96875 99.605469 65.050781 99.683594 65.171875 C 99.761719 65.292969 99.789062 65.4375 99.757812 65.574219 Z M 99.195312 67.851562 C 99.160156 67.988281 99.070312 68.105469 98.949219 68.179688 C 98.863281 68.226562 98.773438 68.25 98.679688 68.25 C 98.632812 68.25 98.585938 68.242188 98.539062 68.230469 C 98.402344 68.195312 98.285156 68.105469 98.214844 67.980469 C 98.140625 67.859375 98.125 67.710938 98.160156 67.574219 C 98.199219 67.4375 98.285156 67.320312 98.410156 67.25 C 98.535156 67.175781 98.679688 67.15625 98.816406 67.195312 C 98.957031 67.230469 99.070312 67.320312 99.144531 67.445312 C 99.214844 67.570312 99.234375 67.714844 99.195312 67.851562 Z M 98.515625 70.097656 C 98.472656 70.234375 98.378906 70.34375 98.25 70.410156 C 98.175781 70.449219 98.089844 70.46875 98.007812 70.46875 C 97.953125 70.46875 97.894531 70.457031 97.839844 70.441406 C 97.707031 70.398438 97.59375 70.300781 97.53125 70.175781 C 97.464844 70.046875 97.453125 69.902344 97.496094 69.765625 C 97.542969 69.628906 97.636719 69.519531 97.765625 69.453125 C 97.890625 69.386719 98.039062 69.375 98.171875 69.421875 C 98.308594 69.464844 98.421875 69.558594 98.484375 69.6875 C 98.550781 69.816406 98.5625 69.960938 98.515625 70.097656 Z M 97.722656 72.300781 C 97.640625 72.515625 97.433594 72.648438 97.21875 72.648438 C 97.15625 72.648438 97.089844 72.636719 97.027344 72.613281 C 96.753906 72.503906 96.613281 72.195312 96.71875 71.917969 C 96.773438 71.785156 96.871094 71.679688 97.003906 71.621094 C 97.132812 71.5625 97.28125 71.558594 97.414062 71.609375 C 97.546875 71.660156 97.652344 71.761719 97.710938 71.890625 C 97.769531 72.023438 97.773438 72.167969 97.722656 72.300781 Z M 96.8125 74.464844 C 96.753906 74.59375 96.648438 74.695312 96.511719 74.746094 C 96.449219 74.769531 96.386719 74.78125 96.320312 74.78125 C 96.246094 74.78125 96.171875 74.765625 96.101562 74.734375 C 95.972656 74.675781 95.871094 74.570312 95.820312 74.4375 C 95.769531 74.304688 95.773438 74.15625 95.832031 74.027344 C 95.890625 73.898438 95.996094 73.796875 96.128906 73.746094 C 96.261719 73.695312 96.410156 73.695312 96.539062 73.753906 C 96.667969 73.8125 96.769531 73.917969 96.820312 74.054688 C 96.875 74.1875 96.871094 74.332031 96.8125 74.464844 Z M 95.789062 76.574219 C 95.722656 76.703125 95.613281 76.796875 95.476562 76.839844 C 95.421875 76.859375 95.367188 76.867188 95.3125 76.867188 C 95.226562 76.867188 95.144531 76.847656 95.066406 76.808594 C 94.9375 76.742188 94.84375 76.632812 94.800781 76.496094 C 94.757812 76.359375 94.769531 76.214844 94.832031 76.085938 C 94.898438 75.960938 95.007812 75.867188 95.144531 75.820312 C 95.28125 75.777344 95.425781 75.789062 95.554688 75.851562 C 95.683594 75.917969 95.777344 76.027344 95.820312 76.164062 C 95.867188 76.300781 95.855469 76.449219 95.789062 76.574219 Z M 94.730469 34.566406 C 94.644531 34.617188 94.554688 34.640625 94.460938 34.640625 C 94.414062 34.640625 94.367188 34.632812 94.320312 34.621094 C 94.183594 34.585938 94.066406 34.496094 93.996094 34.371094 C 93.925781 34.246094 93.90625 34.105469 93.941406 33.964844 C 93.980469 33.824219 94.066406 33.710938 94.191406 33.640625 C 94.449219 33.492188 94.777344 33.578125 94.925781 33.835938 C 95.070312 34.089844 94.984375 34.421875 94.730469 34.566406 Z M 94.660156 78.628906 C 94.558594 78.800781 94.378906 78.898438 94.191406 78.898438 C 94.101562 78.898438 94.007812 78.875 93.925781 78.824219 C 93.800781 78.753906 93.710938 78.636719 93.675781 78.5 C 93.636719 78.359375 93.65625 78.214844 93.730469 78.09375 C 93.800781 77.96875 93.914062 77.878906 94.054688 77.84375 C 94.191406 77.804688 94.335938 77.824219 94.460938 77.894531 C 94.585938 77.96875 94.675781 78.082031 94.710938 78.222656 C 94.75 78.359375 94.730469 78.503906 94.660156 78.628906 Z M 93.554688 32.570312 C 93.464844 32.628906 93.363281 32.65625 93.261719 32.65625 C 93.085938 32.65625 92.914062 32.570312 92.8125 32.414062 C 92.648438 32.164062 92.722656 31.832031 92.96875 31.671875 C 93.214844 31.507812 93.550781 31.578125 93.710938 31.828125 C 93.871094 32.074219 93.800781 32.410156 93.554688 32.570312 Z M 93.421875 80.621094 C 93.34375 80.742188 93.222656 80.824219 93.082031 80.855469 C 93.046875 80.863281 93.007812 80.867188 92.96875 80.867188 C 92.867188 80.867188 92.765625 80.835938 92.679688 80.78125 C 92.558594 80.699219 92.476562 80.582031 92.445312 80.441406 C 92.414062 80.300781 92.441406 80.15625 92.519531 80.035156 C 92.679688 79.789062 93.015625 79.71875 93.261719 79.878906 C 93.511719 80.039062 93.582031 80.375 93.421875 80.621094 Z M 91.960938 30.738281 C 91.796875 30.738281 91.632812 30.664062 91.527344 30.519531 C 91.441406 30.402344 91.410156 30.261719 91.429688 30.117188 C 91.453125 29.976562 91.527344 29.851562 91.644531 29.769531 C 91.761719 29.683594 91.902344 29.652344 92.042969 29.671875 C 92.1875 29.695312 92.308594 29.773438 92.394531 29.886719 C 92.570312 30.125 92.515625 30.460938 92.273438 30.636719 C 92.179688 30.707031 92.070312 30.738281 91.960938 30.738281 Z M 92.082031 82.546875 C 91.996094 82.664062 91.871094 82.738281 91.730469 82.761719 C 91.703125 82.765625 91.671875 82.765625 91.644531 82.765625 C 91.53125 82.765625 91.421875 82.730469 91.332031 82.664062 C 91.09375 82.492188 91.039062 82.15625 91.210938 81.914062 C 91.386719 81.675781 91.722656 81.621094 91.960938 81.796875 C 92.199219 81.96875 92.253906 82.304688 92.082031 82.546875 Z M 90.898438 28.773438 C 90.800781 28.851562 90.679688 28.890625 90.5625 28.890625 C 90.40625 28.890625 90.25 28.824219 90.144531 28.695312 C 90.054688 28.582031 90.011719 28.441406 90.027344 28.300781 C 90.042969 28.15625 90.113281 28.027344 90.222656 27.9375 C 90.335938 27.847656 90.476562 27.804688 90.617188 27.824219 C 90.761719 27.835938 90.886719 27.90625 90.976562 28.019531 C 91.066406 28.128906 91.109375 28.269531 91.09375 28.410156 C 91.082031 28.554688 91.011719 28.683594 90.898438 28.773438 Z M 90.640625 84.398438 C 90.535156 84.527344 90.378906 84.597656 90.222656 84.597656 C 90.105469 84.597656 89.988281 84.558594 89.886719 84.476562 C 89.65625 84.289062 89.621094 83.953125 89.808594 83.722656 C 89.996094 83.492188 90.332031 83.457031 90.5625 83.644531 C 90.792969 83.828125 90.828125 84.167969 90.640625 84.398438 Z M 89.425781 26.984375 C 89.324219 27.074219 89.195312 27.121094 89.066406 27.121094 C 88.921875 27.121094 88.773438 27.0625 88.667969 26.945312 C 88.570312 26.835938 88.523438 26.699219 88.53125 26.558594 C 88.539062 26.414062 88.601562 26.28125 88.707031 26.1875 C 88.925781 25.988281 89.265625 26.007812 89.464844 26.226562 C 89.664062 26.445312 89.644531 26.785156 89.425781 26.984375 Z M 89.109375 86.171875 C 89.011719 86.277344 88.882812 86.339844 88.738281 86.347656 C 88.726562 86.347656 88.71875 86.351562 88.707031 86.351562 C 88.574219 86.351562 88.449219 86.300781 88.351562 86.210938 C 88.128906 86.015625 88.113281 85.675781 88.308594 85.453125 C 88.511719 85.234375 88.851562 85.21875 89.066406 85.414062 C 89.175781 85.511719 89.238281 85.644531 89.246094 85.785156 C 89.253906 85.929688 89.203125 86.066406 89.109375 86.171875 Z M 87.859375 25.273438 C 87.757812 25.378906 87.621094 25.429688 87.480469 25.429688 C 87.34375 25.429688 87.207031 25.378906 87.101562 25.273438 C 86.894531 25.066406 86.894531 24.726562 87.101562 24.515625 C 87.3125 24.308594 87.652344 24.308594 87.859375 24.515625 C 88.070312 24.726562 88.070312 25.066406 87.859375 25.273438 Z M 87.484375 87.863281 C 87.378906 87.96875 87.242188 88.019531 87.105469 88.019531 C 86.96875 88.019531 86.832031 87.96875 86.726562 87.863281 C 86.515625 87.65625 86.515625 87.3125 86.726562 87.105469 C 86.933594 86.894531 87.273438 86.894531 87.484375 87.105469 C 87.691406 87.3125 87.691406 87.65625 87.484375 87.863281 Z M 86.210938 23.648438 C 86.105469 23.765625 85.957031 23.824219 85.8125 23.824219 C 85.683594 23.824219 85.554688 23.78125 85.453125 23.6875 C 85.234375 23.488281 85.214844 23.152344 85.414062 22.929688 C 85.613281 22.710938 85.949219 22.695312 86.171875 22.890625 C 86.390625 23.089844 86.40625 23.429688 86.210938 23.648438 Z M 85.773438 89.46875 C 85.671875 89.558594 85.546875 89.605469 85.414062 89.605469 C 85.40625 89.605469 85.394531 89.605469 85.386719 89.605469 C 85.242188 89.597656 85.109375 89.535156 85.015625 89.429688 C 84.816406 89.207031 84.835938 88.867188 85.054688 88.671875 C 85.273438 88.472656 85.613281 88.488281 85.8125 88.710938 C 85.910156 88.816406 85.957031 88.953125 85.949219 89.097656 C 85.941406 89.238281 85.878906 89.371094 85.773438 89.46875 Z M 84.476562 22.109375 L 84.472656 22.113281 C 84.367188 22.242188 84.214844 22.308594 84.058594 22.308594 C 83.9375 22.308594 83.820312 22.269531 83.722656 22.191406 C 83.609375 22.101562 83.539062 21.972656 83.523438 21.828125 C 83.511719 21.6875 83.550781 21.546875 83.640625 21.4375 C 83.828125 21.207031 84.167969 21.171875 84.394531 21.359375 C 84.625 21.542969 84.660156 21.882812 84.476562 22.109375 Z M 83.980469 90.980469 C 83.882812 91.0625 83.761719 91.097656 83.644531 91.097656 C 83.488281 91.097656 83.332031 91.03125 83.226562 90.902344 C 83.039062 90.671875 83.074219 90.332031 83.304688 90.148438 C 83.535156 89.960938 83.875 89.996094 84.058594 90.226562 C 84.148438 90.335938 84.191406 90.476562 84.175781 90.621094 C 84.160156 90.761719 84.09375 90.890625 83.980469 90.980469 Z M 82.664062 20.667969 C 82.578125 20.785156 82.453125 20.859375 82.3125 20.882812 C 82.285156 20.886719 82.253906 20.890625 82.226562 20.890625 C 82.113281 20.890625 82.003906 20.855469 81.914062 20.785156 C 81.796875 20.703125 81.722656 20.578125 81.699219 20.4375 C 81.675781 20.296875 81.710938 20.152344 81.792969 20.039062 C 81.878906 19.921875 82.003906 19.84375 82.144531 19.824219 C 82.285156 19.800781 82.429688 19.835938 82.542969 19.917969 C 82.660156 20.003906 82.734375 20.128906 82.757812 20.269531 C 82.78125 20.410156 82.746094 20.550781 82.664062 20.667969 Z M 82.113281 92.398438 C 82.015625 92.464844 81.90625 92.5 81.796875 92.5 C 81.632812 92.5 81.46875 92.421875 81.363281 92.277344 C 81.1875 92.039062 81.242188 91.703125 81.480469 91.527344 C 81.71875 91.355469 82.054688 91.40625 82.230469 91.648438 C 82.402344 91.886719 82.351562 92.222656 82.113281 92.398438 Z M 80.777344 19.320312 C 80.699219 19.441406 80.578125 19.523438 80.4375 19.554688 C 80.402344 19.5625 80.363281 19.566406 80.328125 19.566406 C 80.222656 19.566406 80.121094 19.535156 80.035156 19.476562 C 79.914062 19.402344 79.832031 19.28125 79.800781 19.140625 C 79.773438 19 79.796875 18.855469 79.875 18.738281 C 79.957031 18.617188 80.074219 18.535156 80.214844 18.503906 C 80.355469 18.472656 80.5 18.5 80.617188 18.578125 C 80.867188 18.738281 80.9375 19.070312 80.777344 19.320312 Z M 80.171875 93.714844 C 80.082031 93.773438 79.980469 93.800781 79.878906 93.800781 C 79.703125 93.800781 79.53125 93.714844 79.429688 93.554688 C 79.351562 93.4375 79.324219 93.292969 79.355469 93.152344 C 79.382812 93.011719 79.464844 92.890625 79.585938 92.8125 C 79.707031 92.734375 79.851562 92.710938 79.992188 92.738281 C 80.132812 92.769531 80.25 92.851562 80.328125 92.972656 C 80.488281 93.21875 80.417969 93.550781 80.171875 93.714844 Z M 78.824219 18.074219 C 78.75 18.199219 78.636719 18.285156 78.496094 18.324219 C 78.449219 18.335938 78.402344 18.34375 78.359375 18.34375 C 78.265625 18.34375 78.171875 18.316406 78.089844 18.269531 C 77.835938 18.121094 77.746094 17.792969 77.894531 17.539062 C 77.964844 17.414062 78.082031 17.324219 78.21875 17.289062 C 78.359375 17.25 78.503906 17.269531 78.625 17.34375 C 78.882812 17.488281 78.96875 17.820312 78.824219 18.074219 Z M 78.164062 94.925781 C 78.082031 94.976562 77.988281 95 77.898438 95 C 77.851562 95 77.804688 94.992188 77.757812 94.980469 C 77.617188 94.945312 77.503906 94.855469 77.429688 94.730469 C 77.359375 94.605469 77.339844 94.460938 77.378906 94.324219 C 77.414062 94.183594 77.503906 94.070312 77.628906 93.996094 C 77.75 93.925781 77.894531 93.90625 78.035156 93.945312 C 78.171875 93.980469 78.289062 94.070312 78.359375 94.195312 C 78.507812 94.449219 78.417969 94.777344 78.164062 94.925781 Z M 76.808594 16.933594 C 76.710938 17.117188 76.523438 17.222656 76.328125 17.222656 C 76.246094 17.222656 76.164062 17.207031 76.085938 17.164062 C 75.824219 17.03125 75.71875 16.707031 75.851562 16.445312 C 75.984375 16.183594 76.308594 16.074219 76.570312 16.210938 C 76.835938 16.34375 76.941406 16.667969 76.808594 16.933594 Z M 76.363281 95.722656 C 76.320312 95.859375 76.222656 95.96875 76.097656 96.035156 C 76.019531 96.074219 75.9375 96.09375 75.851562 96.09375 C 75.796875 96.09375 75.742188 96.082031 75.6875 96.066406 C 75.550781 96.023438 75.441406 95.925781 75.375 95.800781 C 75.242188 95.535156 75.347656 95.210938 75.609375 95.078125 C 75.738281 95.011719 75.882812 95 76.019531 95.046875 C 76.15625 95.089844 76.265625 95.183594 76.332031 95.3125 C 76.394531 95.441406 76.40625 95.585938 76.363281 95.722656 Z M 74.734375 15.898438 C 74.675781 16.027344 74.570312 16.128906 74.4375 16.179688 C 74.375 16.203125 74.308594 16.214844 74.242188 16.214844 C 74.167969 16.214844 74.09375 16.199219 74.027344 16.167969 C 73.894531 16.109375 73.792969 16.003906 73.742188 15.871094 C 73.691406 15.738281 73.695312 15.589844 73.753906 15.460938 C 73.8125 15.328125 73.917969 15.230469 74.050781 15.175781 C 74.183594 15.125 74.332031 15.128906 74.460938 15.1875 C 74.59375 15.246094 74.691406 15.351562 74.746094 15.484375 C 74.796875 15.621094 74.792969 15.765625 74.734375 15.898438 Z M 73.972656 97.03125 C 73.902344 97.0625 73.828125 97.078125 73.757812 97.078125 C 73.550781 97.078125 73.355469 96.957031 73.265625 96.757812 C 73.144531 96.488281 73.269531 96.171875 73.539062 96.050781 C 73.808594 95.933594 74.125 96.054688 74.246094 96.324219 C 74.367188 96.59375 74.242188 96.910156 73.972656 97.03125 Z M 72.609375 14.96875 L 72.609375 14.972656 C 72.558594 15.105469 72.457031 15.210938 72.328125 15.269531 C 72.257812 15.300781 72.183594 15.316406 72.109375 15.316406 C 72.042969 15.316406 71.980469 15.304688 71.914062 15.277344 C 71.78125 15.226562 71.675781 15.128906 71.617188 14.996094 C 71.558594 14.863281 71.554688 14.71875 71.609375 14.585938 C 71.660156 14.453125 71.757812 14.347656 71.890625 14.289062 C 72.019531 14.230469 72.167969 14.226562 72.300781 14.277344 C 72.578125 14.382812 72.714844 14.695312 72.609375 14.96875 Z M 72.101562 97.632812 C 72.042969 97.765625 71.933594 97.863281 71.800781 97.914062 C 71.738281 97.9375 71.675781 97.953125 71.609375 97.953125 C 71.535156 97.953125 71.460938 97.9375 71.390625 97.90625 C 71.261719 97.847656 71.160156 97.742188 71.109375 97.605469 C 71.003906 97.332031 71.140625 97.019531 71.417969 96.914062 C 71.691406 96.808594 72.003906 96.945312 72.109375 97.222656 C 72.160156 97.355469 72.15625 97.5 72.101562 97.632812 Z M 70.4375 14.15625 C 70.394531 14.292969 70.300781 14.40625 70.171875 14.46875 C 70.097656 14.507812 70.011719 14.527344 69.929688 14.527344 C 69.875 14.527344 69.816406 14.519531 69.761719 14.503906 C 69.625 14.457031 69.515625 14.363281 69.449219 14.234375 C 69.386719 14.109375 69.375 13.960938 69.417969 13.824219 C 69.511719 13.546875 69.816406 13.390625 70.09375 13.480469 C 70.230469 13.527344 70.339844 13.621094 70.40625 13.75 C 70.472656 13.875 70.484375 14.023438 70.4375 14.15625 Z M 69.898438 98.417969 C 69.832031 98.546875 69.722656 98.640625 69.585938 98.683594 C 69.53125 98.703125 69.476562 98.710938 69.417969 98.710938 C 69.335938 98.710938 69.253906 98.691406 69.175781 98.652344 C 69.050781 98.585938 68.953125 98.476562 68.910156 98.339844 C 68.867188 98.203125 68.878906 98.058594 68.941406 97.929688 C 69.007812 97.804688 69.117188 97.710938 69.253906 97.664062 C 69.539062 97.574219 69.839844 97.726562 69.929688 98.007812 C 69.976562 98.144531 69.964844 98.289062 69.898438 98.417969 Z M 68.230469 13.460938 C 68.191406 13.597656 68.101562 13.710938 67.980469 13.785156 C 67.898438 13.832031 67.804688 13.855469 67.710938 13.855469 C 67.664062 13.855469 67.621094 13.851562 67.574219 13.839844 C 67.433594 13.800781 67.320312 13.710938 67.246094 13.589844 C 67.175781 13.464844 67.15625 13.320312 67.195312 13.179688 C 67.230469 13.042969 67.320312 12.929688 67.441406 12.855469 C 67.566406 12.785156 67.710938 12.765625 67.851562 12.800781 C 67.988281 12.839844 68.105469 12.929688 68.175781 13.050781 C 68.246094 13.175781 68.265625 13.320312 68.230469 13.460938 Z M 67.660156 99.085938 C 67.585938 99.210938 67.472656 99.300781 67.332031 99.335938 C 67.285156 99.351562 67.242188 99.355469 67.195312 99.355469 C 66.957031 99.355469 66.742188 99.199219 66.675781 98.957031 C 66.601562 98.671875 66.769531 98.378906 67.054688 98.300781 C 67.339844 98.222656 67.636719 98.394531 67.710938 98.679688 C 67.75 98.820312 67.730469 98.964844 67.660156 99.085938 Z M 65.984375 12.878906 C 65.957031 13.019531 65.875 13.136719 65.753906 13.214844 C 65.664062 13.273438 65.566406 13.300781 65.460938 13.300781 C 65.425781 13.300781 65.386719 13.296875 65.351562 13.289062 C 65.0625 13.230469 64.875 12.945312 64.9375 12.65625 C 64.964844 12.515625 65.050781 12.394531 65.167969 12.316406 C 65.289062 12.238281 65.429688 12.210938 65.574219 12.242188 C 65.863281 12.300781 66.046875 12.589844 65.984375 12.878906 Z M 65.050781 99.871094 C 65.011719 99.878906 64.976562 99.882812 64.9375 99.882812 C 64.691406 99.882812 64.46875 99.710938 64.414062 99.457031 C 64.382812 99.316406 64.410156 99.175781 64.488281 99.054688 C 64.566406 98.933594 64.6875 98.851562 64.828125 98.820312 C 64.964844 98.792969 65.109375 98.816406 65.230469 98.898438 C 65.351562 98.976562 65.433594 99.09375 65.464844 99.234375 C 65.523438 99.523438 65.339844 99.808594 65.050781 99.871094 Z M 63.183594 12.867188 C 63.15625 12.867188 63.128906 12.863281 63.101562 12.859375 C 62.808594 12.8125 62.609375 12.539062 62.65625 12.246094 C 62.703125 11.953125 62.976562 11.753906 63.269531 11.800781 C 63.410156 11.824219 63.535156 11.898438 63.621094 12.015625 C 63.703125 12.128906 63.738281 12.273438 63.714844 12.414062 C 63.671875 12.675781 63.445312 12.867188 63.183594 12.867188 Z M 63.09375 100.070312 C 63.007812 100.1875 62.882812 100.261719 62.742188 100.285156 C 62.714844 100.289062 62.6875 100.292969 62.65625 100.292969 C 62.398438 100.292969 62.171875 100.101562 62.128906 99.839844 C 62.082031 99.546875 62.28125 99.273438 62.574219 99.226562 C 62.714844 99.207031 62.859375 99.238281 62.972656 99.320312 C 63.089844 99.40625 63.164062 99.53125 63.1875 99.671875 C 63.210938 99.8125 63.175781 99.953125 63.09375 100.070312 Z M 61.421875 12.070312 C 61.394531 12.34375 61.160156 12.550781 60.890625 12.550781 C 60.871094 12.550781 60.851562 12.550781 60.835938 12.546875 C 60.539062 12.515625 60.328125 12.25 60.355469 11.957031 C 60.386719 11.664062 60.648438 11.449219 60.945312 11.480469 C 61.238281 11.511719 61.453125 11.777344 61.421875 12.070312 Z M 60.777344 100.382812 C 60.6875 100.492188 60.558594 100.5625 60.414062 100.578125 C 60.394531 100.578125 60.378906 100.582031 60.359375 100.582031 C 60.234375 100.582031 60.117188 100.539062 60.019531 100.460938 C 59.910156 100.371094 59.839844 100.242188 59.824219 100.101562 C 59.8125 99.957031 59.851562 99.816406 59.941406 99.707031 C 60.03125 99.59375 60.160156 99.523438 60.304688 99.511719 C 60.445312 99.496094 60.585938 99.535156 60.695312 99.628906 C 60.808594 99.71875 60.878906 99.84375 60.890625 99.988281 C 60.90625 100.128906 60.867188 100.269531 60.777344 100.382812 Z M 58.941406 12.214844 C 58.839844 12.304688 58.714844 12.355469 58.582031 12.355469 C 58.574219 12.355469 58.5625 12.355469 58.554688 12.351562 C 58.410156 12.34375 58.277344 12.28125 58.183594 12.175781 C 58.085938 12.070312 58.039062 11.933594 58.046875 11.789062 C 58.054688 11.648438 58.117188 11.515625 58.222656 11.417969 C 58.328125 11.324219 58.46875 11.273438 58.609375 11.28125 C 58.753906 11.289062 58.882812 11.351562 58.980469 11.457031 C 59.074219 11.566406 59.125 11.703125 59.117188 11.847656 C 59.109375 11.988281 59.046875 12.121094 58.941406 12.214844 Z M 58.445312 100.570312 C 58.351562 100.675781 58.21875 100.738281 58.074219 100.746094 C 58.066406 100.746094 58.054688 100.746094 58.046875 100.746094 C 57.914062 100.746094 57.789062 100.699219 57.6875 100.609375 C 57.582031 100.515625 57.519531 100.382812 57.511719 100.238281 C 57.496094 99.945312 57.726562 99.691406 58.019531 99.675781 C 58.160156 99.667969 58.300781 99.71875 58.40625 99.8125 C 58.511719 99.910156 58.574219 100.039062 58.582031 100.183594 C 58.589844 100.328125 58.542969 100.464844 58.445312 100.570312 Z M 56.265625 12.28125 C 55.96875 12.28125 55.730469 12.039062 55.730469 11.742188 C 55.730469 11.449219 55.96875 11.207031 56.265625 11.207031 C 56.5625 11.207031 56.800781 11.449219 56.800781 11.742188 C 56.800781 12.039062 56.5625 12.28125 56.265625 12.28125 Z M 55.730469 100.792969 C 55.433594 100.792969 55.195312 100.554688 55.195312 100.257812 C 55.195312 99.960938 55.433594 99.722656 55.730469 99.722656 C 56.027344 99.722656 56.265625 99.960938 56.265625 100.257812 C 56.265625 100.554688 56.027344 100.792969 55.730469 100.792969 Z M 54.484375 11.761719 C 54.492188 11.90625 54.441406 12.042969 54.347656 12.148438 C 54.25 12.253906 54.121094 12.316406 53.976562 12.324219 C 53.96875 12.328125 53.957031 12.328125 53.949219 12.328125 C 53.816406 12.328125 53.6875 12.277344 53.589844 12.1875 C 53.484375 12.09375 53.421875 11.960938 53.414062 11.816406 C 53.40625 11.675781 53.453125 11.539062 53.550781 11.429688 C 53.644531 11.324219 53.777344 11.261719 53.921875 11.253906 C 54.066406 11.25 54.203125 11.296875 54.308594 11.390625 C 54.414062 11.488281 54.476562 11.617188 54.484375 11.761719 Z M 53.414062 100.71875 C 53.40625 100.71875 53.398438 100.71875 53.386719 100.71875 C 53.09375 100.703125 52.863281 100.449219 52.878906 100.15625 C 52.886719 100.011719 52.949219 99.878906 53.054688 99.785156 C 53.164062 99.6875 53.296875 99.636719 53.445312 99.648438 C 53.738281 99.664062 53.964844 99.917969 53.949219 100.210938 C 53.9375 100.496094 53.699219 100.71875 53.414062 100.71875 Z M 51.695312 12.492188 C 51.675781 12.492188 51.65625 12.492188 51.636719 12.492188 C 51.515625 12.492188 51.398438 12.453125 51.300781 12.375 C 51.1875 12.285156 51.121094 12.15625 51.105469 12.011719 C 51.089844 11.871094 51.132812 11.730469 51.222656 11.621094 C 51.3125 11.507812 51.4375 11.441406 51.582031 11.425781 C 51.722656 11.40625 51.863281 11.449219 51.976562 11.539062 C 52.085938 11.632812 52.15625 11.757812 52.171875 11.902344 C 52.203125 12.195312 51.988281 12.460938 51.695312 12.492188 Z M 51.441406 100.40625 C 51.347656 100.484375 51.230469 100.523438 51.109375 100.523438 C 51.089844 100.523438 51.070312 100.523438 51.050781 100.519531 C 50.910156 100.507812 50.78125 100.4375 50.691406 100.324219 C 50.601562 100.214844 50.558594 100.074219 50.574219 99.933594 L 50.574219 99.929688 C 50.589844 99.789062 50.65625 99.660156 50.769531 99.570312 C 50.882812 99.480469 51.019531 99.4375 51.164062 99.453125 C 51.304688 99.46875 51.433594 99.539062 51.523438 99.648438 C 51.613281 99.761719 51.65625 99.902344 51.640625 100.042969 C 51.625 100.1875 51.554688 100.316406 51.441406 100.40625 Z M 49.773438 12.5625 C 49.6875 12.675781 49.5625 12.753906 49.421875 12.777344 C 49.394531 12.78125 49.367188 12.78125 49.339844 12.78125 C 49.078125 12.78125 48.851562 12.59375 48.808594 12.332031 C 48.785156 12.1875 48.820312 12.046875 48.90625 11.929688 C 48.988281 11.816406 49.113281 11.738281 49.253906 11.714844 C 49.546875 11.671875 49.824219 11.871094 49.867188 12.164062 C 49.890625 12.304688 49.855469 12.445312 49.773438 12.5625 Z M 48.8125 100.207031 C 48.785156 100.207031 48.753906 100.207031 48.726562 100.203125 C 48.433594 100.15625 48.234375 99.878906 48.28125 99.589844 L 48.28125 99.585938 C 48.328125 99.296875 48.601562 99.097656 48.894531 99.140625 C 49.1875 99.1875 49.386719 99.464844 49.339844 99.753906 C 49.300781 100.019531 49.070312 100.207031 48.8125 100.207031 Z M 47.167969 13.179688 C 47.132812 13.1875 47.09375 13.191406 47.058594 13.191406 C 46.808594 13.191406 46.585938 13.019531 46.53125 12.765625 C 46.472656 12.476562 46.65625 12.191406 46.945312 12.128906 C 47.234375 12.070312 47.519531 12.253906 47.582031 12.542969 C 47.644531 12.832031 47.457031 13.117188 47.167969 13.179688 Z M 47.058594 99.347656 C 47.03125 99.488281 46.945312 99.609375 46.828125 99.6875 C 46.738281 99.742188 46.640625 99.773438 46.535156 99.773438 C 46.5 99.773438 46.460938 99.769531 46.421875 99.761719 C 46.285156 99.730469 46.164062 99.648438 46.085938 99.527344 C 46.007812 99.40625 45.980469 99.265625 46.011719 99.125 C 46.074219 98.835938 46.355469 98.652344 46.648438 98.710938 C 46.9375 98.773438 47.121094 99.058594 47.058594 99.347656 Z M 45.265625 13.449219 C 45.195312 13.574219 45.078125 13.664062 44.941406 13.699219 C 44.894531 13.710938 44.847656 13.71875 44.800781 13.71875 C 44.566406 13.71875 44.347656 13.5625 44.285156 13.320312 C 44.207031 13.035156 44.378906 12.742188 44.664062 12.664062 C 44.800781 12.625 44.945312 12.644531 45.070312 12.71875 C 45.195312 12.789062 45.28125 12.90625 45.320312 13.042969 C 45.355469 13.179688 45.335938 13.324219 45.265625 13.449219 Z M 44.804688 98.820312 C 44.765625 98.957031 44.679688 99.074219 44.554688 99.144531 C 44.472656 99.195312 44.378906 99.21875 44.285156 99.21875 C 44.238281 99.21875 44.191406 99.210938 44.148438 99.199219 C 44.007812 99.164062 43.894531 99.074219 43.820312 98.949219 C 43.75 98.824219 43.730469 98.679688 43.769531 98.542969 C 43.84375 98.257812 44.140625 98.085938 44.425781 98.164062 C 44.710938 98.238281 44.878906 98.535156 44.804688 98.820312 Z M 43.054688 14.070312 C 42.988281 14.199219 42.878906 14.292969 42.742188 14.335938 C 42.6875 14.355469 42.632812 14.363281 42.574219 14.363281 C 42.492188 14.363281 42.410156 14.34375 42.332031 14.304688 C 42.207031 14.238281 42.109375 14.128906 42.066406 13.992188 C 41.976562 13.710938 42.128906 13.410156 42.410156 13.316406 C 42.691406 13.222656 42.996094 13.378906 43.085938 13.660156 C 43.128906 13.796875 43.117188 13.941406 43.054688 14.070312 Z M 42.578125 98.175781 C 42.535156 98.3125 42.4375 98.421875 42.3125 98.488281 C 42.234375 98.527344 42.152344 98.546875 42.070312 98.546875 C 42.011719 98.546875 41.957031 98.539062 41.902344 98.519531 C 41.621094 98.429688 41.46875 98.125 41.558594 97.84375 C 41.648438 97.5625 41.953125 97.40625 42.234375 97.5 C 42.515625 97.589844 42.667969 97.894531 42.578125 98.175781 Z M 40.878906 14.804688 C 40.820312 14.9375 40.714844 15.035156 40.578125 15.089844 C 40.515625 15.113281 40.453125 15.125 40.386719 15.125 C 40.3125 15.125 40.238281 15.109375 40.167969 15.078125 C 40.039062 15.019531 39.9375 14.914062 39.886719 14.777344 C 39.835938 14.644531 39.839844 14.5 39.898438 14.367188 C 39.957031 14.238281 40.0625 14.136719 40.195312 14.085938 C 40.328125 14.035156 40.472656 14.039062 40.605469 14.097656 C 40.734375 14.15625 40.835938 14.261719 40.886719 14.394531 C 40.941406 14.527344 40.9375 14.675781 40.878906 14.804688 Z M 40.390625 97.414062 C 40.308594 97.628906 40.105469 97.757812 39.886719 97.757812 C 39.824219 97.757812 39.757812 97.746094 39.695312 97.722656 C 39.421875 97.617188 39.28125 97.308594 39.386719 97.03125 C 39.492188 96.753906 39.804688 96.617188 40.082031 96.722656 C 40.355469 96.828125 40.496094 97.140625 40.390625 97.414062 Z M 38.742188 15.652344 C 38.691406 15.785156 38.589844 15.890625 38.460938 15.949219 C 38.390625 15.980469 38.316406 15.996094 38.242188 15.996094 C 38.175781 15.996094 38.113281 15.984375 38.050781 15.960938 C 37.914062 15.910156 37.808594 15.808594 37.75 15.679688 C 37.691406 15.546875 37.6875 15.402344 37.742188 15.269531 C 37.792969 15.132812 37.890625 15.027344 38.023438 14.96875 C 38.152344 14.914062 38.300781 14.910156 38.433594 14.960938 C 38.566406 15.011719 38.671875 15.113281 38.730469 15.242188 C 38.789062 15.375 38.792969 15.519531 38.742188 15.652344 Z M 38.242188 96.542969 C 38.183594 96.671875 38.078125 96.773438 37.945312 96.824219 C 37.882812 96.847656 37.816406 96.859375 37.753906 96.859375 C 37.679688 96.859375 37.605469 96.84375 37.535156 96.8125 C 37.40625 96.753906 37.304688 96.648438 37.253906 96.515625 C 37.199219 96.382812 37.203125 96.234375 37.261719 96.105469 C 37.320312 95.972656 37.425781 95.875 37.5625 95.824219 C 37.695312 95.769531 37.839844 95.777344 37.972656 95.835938 C 38.242188 95.953125 38.363281 96.273438 38.242188 96.542969 Z M 36.386719 16.921875 C 36.308594 16.964844 36.226562 16.980469 36.144531 16.980469 C 35.949219 16.980469 35.761719 16.875 35.667969 16.6875 C 35.601562 16.5625 35.589844 16.417969 35.632812 16.28125 C 35.679688 16.144531 35.773438 16.03125 35.902344 15.96875 C 36.027344 15.902344 36.171875 15.890625 36.308594 15.9375 C 36.445312 15.980469 36.558594 16.074219 36.621094 16.203125 C 36.757812 16.464844 36.652344 16.789062 36.386719 16.921875 Z M 36.144531 95.558594 C 36.082031 95.683594 35.96875 95.777344 35.832031 95.824219 C 35.777344 95.839844 35.722656 95.851562 35.667969 95.851562 C 35.582031 95.851562 35.5 95.828125 35.421875 95.789062 C 35.296875 95.726562 35.203125 95.617188 35.15625 95.480469 C 35.113281 95.34375 35.125 95.199219 35.191406 95.070312 C 35.253906 94.941406 35.367188 94.847656 35.503906 94.804688 C 35.640625 94.757812 35.785156 94.769531 35.910156 94.835938 C 36.039062 94.898438 36.132812 95.011719 36.179688 95.148438 C 36.222656 95.285156 36.210938 95.429688 36.144531 95.558594 Z M 34.371094 18.003906 C 34.285156 18.050781 34.191406 18.074219 34.101562 18.074219 C 33.917969 18.074219 33.734375 17.980469 33.636719 17.808594 C 33.566406 17.683594 33.546875 17.539062 33.582031 17.398438 C 33.621094 17.261719 33.707031 17.144531 33.832031 17.074219 C 34.089844 16.925781 34.417969 17.015625 34.566406 17.269531 C 34.714844 17.527344 34.625 17.855469 34.371094 18.003906 Z M 34.101562 94.464844 C 34.003906 94.636719 33.824219 94.730469 33.636719 94.730469 C 33.546875 94.730469 33.453125 94.707031 33.371094 94.660156 C 33.113281 94.511719 33.027344 94.183594 33.175781 93.925781 C 33.246094 93.804688 33.359375 93.714844 33.5 93.675781 C 33.636719 93.640625 33.78125 93.660156 33.90625 93.730469 C 34.03125 93.800781 34.121094 93.917969 34.15625 94.058594 C 34.191406 94.195312 34.175781 94.339844 34.101562 94.464844 Z M 32.410156 19.1875 C 32.320312 19.246094 32.21875 19.273438 32.121094 19.273438 C 31.945312 19.273438 31.769531 19.1875 31.667969 19.03125 C 31.507812 18.78125 31.578125 18.449219 31.824219 18.289062 C 32.074219 18.125 32.40625 18.199219 32.566406 18.445312 L 32.570312 18.445312 C 32.730469 18.695312 32.65625 19.027344 32.410156 19.1875 Z M 32.121094 93.265625 C 32.042969 93.382812 31.921875 93.46875 31.78125 93.496094 C 31.742188 93.503906 31.707031 93.507812 31.667969 93.507812 C 31.566406 93.507812 31.464844 93.480469 31.378906 93.421875 C 31.257812 93.34375 31.175781 93.226562 31.144531 93.085938 C 31.117188 92.945312 31.140625 92.800781 31.21875 92.679688 C 31.296875 92.5625 31.417969 92.476562 31.558594 92.449219 C 31.699219 92.417969 31.84375 92.445312 31.960938 92.523438 C 32.082031 92.601562 32.164062 92.722656 32.195312 92.859375 C 32.222656 93 32.199219 93.144531 32.121094 93.265625 Z M 30.515625 20.472656 C 30.421875 20.542969 30.3125 20.574219 30.203125 20.574219 C 30.035156 20.574219 29.871094 20.496094 29.765625 20.355469 C 29.683594 20.238281 29.648438 20.097656 29.671875 19.953125 C 29.691406 19.8125 29.769531 19.6875 29.886719 19.605469 C 30.125 19.429688 30.460938 19.484375 30.632812 19.722656 C 30.71875 19.839844 30.753906 19.980469 30.730469 20.121094 C 30.707031 20.265625 30.632812 20.386719 30.515625 20.472656 Z M 30.203125 91.964844 C 30.097656 92.109375 29.933594 92.183594 29.765625 92.183594 C 29.660156 92.183594 29.546875 92.152344 29.453125 92.082031 C 29.214844 91.910156 29.160156 91.574219 29.335938 91.332031 C 29.507812 91.09375 29.84375 91.042969 30.082031 91.214844 C 30.199219 91.300781 30.277344 91.421875 30.296875 91.566406 C 30.320312 91.707031 30.285156 91.847656 30.203125 91.964844 Z M 28.691406 21.855469 C 28.59375 21.933594 28.472656 21.972656 28.355469 21.972656 C 28.199219 21.972656 28.042969 21.90625 27.9375 21.773438 C 27.75 21.546875 27.785156 21.207031 28.015625 21.019531 C 28.246094 20.835938 28.585938 20.871094 28.769531 21.101562 C 28.957031 21.332031 28.921875 21.667969 28.691406 21.855469 Z M 28.355469 90.566406 C 28.25 90.695312 28.09375 90.761719 27.9375 90.761719 C 27.820312 90.761719 27.699219 90.722656 27.601562 90.644531 C 27.371094 90.457031 27.335938 90.117188 27.523438 89.890625 C 27.613281 89.777344 27.742188 89.707031 27.882812 89.695312 C 28.023438 89.675781 28.164062 89.71875 28.277344 89.8125 C 28.503906 89.996094 28.542969 90.335938 28.355469 90.566406 Z M 26.941406 23.332031 C 26.839844 23.421875 26.710938 23.46875 26.582031 23.46875 C 26.4375 23.46875 26.289062 23.410156 26.183594 23.292969 C 25.984375 23.070312 26.003906 22.730469 26.222656 22.535156 C 26.445312 22.335938 26.785156 22.355469 26.980469 22.574219 C 27.179688 22.792969 27.160156 23.132812 26.941406 23.332031 Z M 26.585938 89.070312 C 26.488281 89.175781 26.355469 89.238281 26.214844 89.246094 C 26.203125 89.246094 26.195312 89.25 26.183594 89.25 C 26.050781 89.25 25.925781 89.199219 25.828125 89.109375 C 25.71875 89.015625 25.65625 88.882812 25.652344 88.738281 C 25.644531 88.597656 25.691406 88.460938 25.785156 88.351562 C 25.882812 88.246094 26.015625 88.183594 26.15625 88.175781 C 26.296875 88.167969 26.4375 88.214844 26.546875 88.3125 C 26.765625 88.511719 26.78125 88.851562 26.585938 89.070312 Z M 25.273438 24.894531 C 25.171875 24.996094 25.035156 25.054688 24.894531 25.054688 C 24.75 25.054688 24.613281 24.996094 24.511719 24.894531 C 24.304688 24.6875 24.304688 24.347656 24.511719 24.136719 C 24.613281 24.035156 24.75 23.980469 24.894531 23.980469 C 25.035156 23.980469 25.171875 24.035156 25.273438 24.136719 C 25.375 24.238281 25.429688 24.375 25.429688 24.519531 C 25.429688 24.660156 25.371094 24.796875 25.273438 24.894531 Z M 24.894531 87.484375 C 24.792969 87.585938 24.660156 87.644531 24.515625 87.644531 C 24.371094 87.644531 24.238281 87.585938 24.136719 87.484375 C 24.035156 87.382812 23.976562 87.25 23.976562 87.105469 C 23.976562 86.964844 24.035156 86.828125 24.136719 86.726562 C 24.238281 86.625 24.371094 86.570312 24.515625 86.570312 C 24.660156 86.570312 24.792969 86.625 24.894531 86.726562 C 24.996094 86.828125 25.050781 86.964844 25.050781 87.105469 C 25.050781 87.25 24.996094 87.382812 24.894531 87.484375 Z M 23.6875 26.546875 C 23.582031 26.664062 23.433594 26.722656 23.285156 26.722656 C 23.160156 26.722656 23.03125 26.679688 22.929688 26.585938 C 22.707031 26.390625 22.691406 26.050781 22.890625 25.828125 C 23.085938 25.609375 23.425781 25.589844 23.644531 25.789062 C 23.753906 25.886719 23.816406 26.015625 23.824219 26.160156 C 23.832031 26.304688 23.78125 26.441406 23.6875 26.546875 Z M 23.289062 85.816406 C 23.191406 85.90625 23.0625 85.953125 22.929688 85.953125 C 22.921875 85.953125 22.910156 85.953125 22.902344 85.953125 C 22.757812 85.945312 22.625 85.882812 22.53125 85.773438 C 22.4375 85.667969 22.386719 85.53125 22.394531 85.386719 C 22.402344 85.246094 22.464844 85.113281 22.570312 85.019531 C 22.789062 84.820312 23.128906 84.835938 23.328125 85.058594 C 23.527344 85.277344 23.507812 85.617188 23.289062 85.816406 Z M 22.1875 28.277344 C 22.082031 28.410156 21.929688 28.476562 21.773438 28.476562 C 21.652344 28.476562 21.535156 28.4375 21.433594 28.359375 C 21.203125 28.171875 21.167969 27.832031 21.355469 27.601562 C 21.445312 27.492188 21.574219 27.421875 21.714844 27.40625 C 21.855469 27.390625 22 27.433594 22.109375 27.523438 C 22.339844 27.710938 22.375 28.046875 22.1875 28.277344 Z M 21.773438 84.0625 C 21.675781 84.140625 21.558594 84.183594 21.4375 84.183594 C 21.417969 84.183594 21.398438 84.179688 21.378906 84.179688 C 21.238281 84.164062 21.109375 84.09375 21.019531 83.984375 C 20.832031 83.753906 20.867188 83.414062 21.097656 83.230469 L 21.097656 83.226562 C 21.328125 83.042969 21.667969 83.078125 21.851562 83.308594 C 22.039062 83.539062 22.003906 83.875 21.773438 84.0625 Z M 20.785156 30.085938 C 20.699219 30.203125 20.574219 30.277344 20.433594 30.300781 C 20.40625 30.304688 20.378906 30.308594 20.347656 30.308594 C 20.238281 30.308594 20.128906 30.273438 20.035156 30.203125 C 19.917969 30.121094 19.84375 29.996094 19.820312 29.855469 C 19.796875 29.710938 19.832031 29.570312 19.917969 29.457031 C 20 29.339844 20.125 29.261719 20.265625 29.242188 C 20.410156 29.21875 20.550781 29.253906 20.664062 29.335938 C 20.78125 29.421875 20.859375 29.546875 20.878906 29.6875 C 20.902344 29.828125 20.867188 29.96875 20.785156 30.085938 Z M 20.351562 82.230469 C 20.257812 82.300781 20.144531 82.335938 20.035156 82.335938 C 19.871094 82.335938 19.707031 82.257812 19.601562 82.113281 C 19.429688 81.875 19.480469 81.539062 19.722656 81.363281 C 19.960938 81.191406 20.296875 81.242188 20.46875 81.484375 C 20.644531 81.722656 20.589844 82.058594 20.351562 82.230469 Z M 19.136719 32.195312 C 19.101562 32.203125 19.0625 32.210938 19.023438 32.210938 C 18.921875 32.210938 18.820312 32.179688 18.734375 32.121094 C 18.613281 32.042969 18.53125 31.925781 18.5 31.785156 C 18.472656 31.644531 18.5 31.5 18.578125 31.378906 C 18.65625 31.261719 18.773438 31.175781 18.914062 31.148438 C 19.054688 31.117188 19.199219 31.144531 19.320312 31.222656 C 19.4375 31.300781 19.519531 31.421875 19.550781 31.5625 C 19.582031 31.699219 19.554688 31.84375 19.476562 31.964844 C 19.398438 32.085938 19.277344 32.167969 19.136719 32.195312 Z M 19.261719 79.992188 C 19.230469 80.132812 19.148438 80.253906 19.027344 80.332031 C 18.9375 80.390625 18.835938 80.417969 18.738281 80.417969 C 18.5625 80.417969 18.386719 80.332031 18.285156 80.171875 C 18.125 79.925781 18.195312 79.59375 18.441406 79.429688 C 18.5625 79.351562 18.707031 79.328125 18.847656 79.355469 C 18.988281 79.386719 19.109375 79.46875 19.183594 79.589844 C 19.261719 79.710938 19.289062 79.851562 19.261719 79.992188 Z M 17.804688 34.175781 C 17.710938 34.175781 17.621094 34.152344 17.535156 34.105469 C 17.410156 34.035156 17.324219 33.917969 17.285156 33.78125 C 17.25 33.640625 17.269531 33.496094 17.339844 33.371094 C 17.410156 33.25 17.527344 33.160156 17.664062 33.121094 C 17.804688 33.085938 17.949219 33.105469 18.070312 33.175781 C 18.195312 33.246094 18.285156 33.363281 18.320312 33.503906 C 18.359375 33.640625 18.339844 33.785156 18.269531 33.910156 C 18.167969 34.082031 17.988281 34.175781 17.804688 34.175781 Z M 17.804688 78.363281 C 17.722656 78.410156 17.628906 78.433594 17.539062 78.433594 C 17.492188 78.433594 17.445312 78.429688 17.398438 78.417969 C 17.257812 78.378906 17.144531 78.289062 17.070312 78.167969 C 17 78.042969 16.980469 77.898438 17.019531 77.757812 C 17.054688 77.621094 17.144531 77.503906 17.269531 77.433594 C 17.527344 77.285156 17.851562 77.375 18 77.628906 C 18.148438 77.886719 18.0625 78.214844 17.804688 78.363281 Z M 16.953125 76.019531 C 16.910156 76.15625 16.816406 76.269531 16.6875 76.332031 C 16.609375 76.371094 16.527344 76.390625 16.445312 76.390625 C 16.390625 76.390625 16.332031 76.382812 16.277344 76.367188 C 16.140625 76.320312 16.03125 76.226562 15.964844 76.097656 C 15.902344 75.972656 15.890625 75.824219 15.933594 75.6875 C 15.976562 75.554688 16.074219 75.441406 16.199219 75.378906 C 16.464844 75.242188 16.789062 75.347656 16.921875 75.609375 C 16.984375 75.738281 16.996094 75.882812 16.953125 76.019531 Z M 15.675781 74.246094 C 15.605469 74.28125 15.53125 74.292969 15.460938 74.292969 C 15.253906 74.292969 15.058594 74.175781 14.96875 73.976562 C 14.910156 73.84375 14.90625 73.699219 14.957031 73.566406 C 15.007812 73.433594 15.109375 73.324219 15.242188 73.269531 C 15.511719 73.144531 15.828125 73.269531 15.949219 73.539062 C 16.007812 73.671875 16.011719 73.816406 15.960938 73.949219 C 15.90625 74.082031 15.808594 74.191406 15.675781 74.246094 Z M 14.585938 72.148438 C 14.371094 72.148438 14.164062 72.015625 14.085938 71.804688 C 13.976562 71.527344 14.117188 71.21875 14.390625 71.109375 L 14.394531 71.109375 C 14.667969 71.003906 14.980469 71.144531 15.085938 71.421875 C 15.191406 71.695312 15.054688 72.007812 14.777344 72.113281 C 14.714844 72.136719 14.648438 72.148438 14.585938 72.148438 Z M 13.824219 69.960938 C 13.742188 69.960938 13.65625 69.941406 13.582031 69.902344 C 13.453125 69.835938 13.359375 69.726562 13.3125 69.589844 C 13.269531 69.453125 13.28125 69.304688 13.347656 69.179688 C 13.410156 69.050781 13.523438 68.957031 13.660156 68.914062 C 13.792969 68.867188 13.941406 68.878906 14.066406 68.945312 C 14.195312 69.011719 14.289062 69.121094 14.335938 69.257812 C 14.425781 69.539062 14.273438 69.839844 13.992188 69.933594 C 13.9375 69.949219 13.878906 69.960938 13.824219 69.960938 Z M 12.660156 67.335938 C 12.585938 67.050781 12.753906 66.757812 13.039062 66.679688 L 13.042969 66.679688 C 13.328125 66.605469 13.621094 66.773438 13.699219 67.058594 C 13.773438 67.34375 13.605469 67.636719 13.320312 67.714844 C 13.273438 67.726562 13.226562 67.734375 13.179688 67.734375 C 12.941406 67.734375 12.726562 67.574219 12.660156 67.335938 Z M 12.128906 65.054688 C 12.097656 64.914062 12.125 64.769531 12.203125 64.648438 C 12.28125 64.527344 12.402344 64.445312 12.542969 64.417969 C 12.832031 64.355469 13.117188 64.539062 13.175781 64.828125 C 13.207031 64.96875 13.179688 65.113281 13.101562 65.234375 C 13.023438 65.355469 12.902344 65.4375 12.765625 65.464844 C 12.726562 65.472656 12.6875 65.476562 12.652344 65.476562 C 12.40625 65.476562 12.183594 65.304688 12.128906 65.054688 Z M 11.714844 62.742188 C 11.667969 62.453125 11.867188 62.175781 12.160156 62.128906 C 12.453125 62.085938 12.726562 62.285156 12.773438 62.578125 C 12.796875 62.71875 12.761719 62.859375 12.679688 62.976562 C 12.59375 63.089844 12.46875 63.167969 12.328125 63.191406 C 12.300781 63.195312 12.269531 63.195312 12.242188 63.195312 C 12.128906 63.195312 12.019531 63.160156 11.929688 63.09375 C 11.8125 63.007812 11.738281 62.886719 11.714844 62.742188 Z M 11.421875 60.417969 C 11.40625 60.273438 11.449219 60.136719 11.539062 60.023438 C 11.628906 59.914062 11.757812 59.84375 11.898438 59.828125 C 12.042969 59.8125 12.179688 59.855469 12.292969 59.945312 C 12.402344 60.035156 12.472656 60.164062 12.488281 60.304688 C 12.503906 60.449219 12.460938 60.585938 12.371094 60.699219 C 12.28125 60.808594 12.152344 60.878906 12.011719 60.894531 C 11.992188 60.894531 11.972656 60.898438 11.953125 60.898438 C 11.832031 60.898438 11.714844 60.855469 11.617188 60.777344 C 11.507812 60.6875 11.4375 60.558594 11.421875 60.417969 Z M 11.757812 57.515625 L 11.761719 57.515625 C 12.054688 57.503906 12.308594 57.726562 12.324219 58.023438 C 12.339844 58.316406 12.109375 58.570312 11.816406 58.585938 C 11.804688 58.585938 11.796875 58.585938 11.785156 58.585938 C 11.652344 58.585938 11.527344 58.539062 11.429688 58.449219 C 11.320312 58.351562 11.257812 58.222656 11.25 58.078125 C 11.238281 57.785156 11.464844 57.53125 11.757812 57.515625 Z M 11.742188 55.199219 C 12.035156 55.199219 12.277344 55.4375 12.277344 55.734375 C 12.277344 56.03125 12.035156 56.269531 11.742188 56.269531 C 11.445312 56.269531 11.203125 56.03125 11.203125 55.734375 C 11.203125 55.4375 11.445312 55.199219 11.742188 55.199219 Z M 11.457031 53.019531 C 11.5625 52.921875 11.699219 52.871094 11.84375 52.882812 C 11.988281 52.890625 12.117188 52.953125 12.214844 53.058594 C 12.308594 53.164062 12.359375 53.304688 12.351562 53.445312 C 12.34375 53.589844 12.28125 53.71875 12.175781 53.816406 C 12.074219 53.90625 11.949219 53.953125 11.816406 53.953125 C 11.804688 53.953125 11.796875 53.953125 11.789062 53.953125 C 11.644531 53.945312 11.511719 53.882812 11.417969 53.777344 C 11.320312 53.671875 11.273438 53.53125 11.28125 53.390625 C 11.289062 53.246094 11.351562 53.113281 11.457031 53.019531 Z M 12.066406 50.574219 C 12.359375 50.605469 12.574219 50.871094 12.546875 51.164062 C 12.515625 51.441406 12.28125 51.644531 12.011719 51.644531 C 11.992188 51.644531 11.972656 51.644531 11.957031 51.640625 C 11.660156 51.613281 11.445312 51.347656 11.476562 51.054688 C 11.507812 50.757812 11.773438 50.546875 12.066406 50.574219 Z M 12.410156 48.285156 C 12.703125 48.328125 12.902344 48.605469 12.859375 48.898438 C 12.816406 49.160156 12.585938 49.351562 12.328125 49.351562 C 12.300781 49.351562 12.273438 49.347656 12.242188 49.34375 C 11.953125 49.296875 11.75 49.023438 11.796875 48.730469 C 11.84375 48.4375 12.121094 48.242188 12.410156 48.285156 Z M 12.238281 46.425781 C 12.269531 46.285156 12.351562 46.167969 12.472656 46.085938 C 12.589844 46.011719 12.734375 45.984375 12.875 46.011719 C 13.015625 46.042969 13.136719 46.125 13.214844 46.246094 C 13.292969 46.367188 13.316406 46.507812 13.289062 46.648438 C 13.257812 46.789062 13.175781 46.910156 13.054688 46.988281 C 12.96875 47.042969 12.867188 47.074219 12.765625 47.074219 C 12.726562 47.074219 12.6875 47.070312 12.652344 47.0625 C 12.363281 47 12.175781 46.714844 12.238281 46.425781 Z M 12.800781 44.148438 C 12.875 43.863281 13.171875 43.695312 13.457031 43.769531 C 13.742188 43.847656 13.914062 44.140625 13.835938 44.425781 C 13.800781 44.566406 13.710938 44.679688 13.585938 44.753906 C 13.503906 44.800781 13.410156 44.824219 13.320312 44.824219 C 13.273438 44.824219 13.226562 44.820312 13.179688 44.804688 C 13.042969 44.769531 12.925781 44.679688 12.855469 44.554688 C 12.78125 44.433594 12.761719 44.289062 12.800781 44.148438 Z M 13.480469 41.90625 C 13.570312 41.625 13.875 41.46875 14.15625 41.558594 C 14.4375 41.652344 14.589844 41.957031 14.5 42.238281 C 14.457031 42.371094 14.359375 42.484375 14.234375 42.546875 C 14.15625 42.585938 14.074219 42.605469 13.988281 42.605469 C 13.933594 42.605469 13.878906 42.597656 13.824219 42.582031 C 13.6875 42.535156 13.578125 42.441406 13.511719 42.3125 C 13.445312 42.1875 13.433594 42.042969 13.480469 41.90625 Z M 14.277344 39.699219 C 14.328125 39.566406 14.425781 39.457031 14.558594 39.402344 C 14.691406 39.34375 14.835938 39.339844 14.96875 39.390625 C 15.101562 39.441406 15.207031 39.542969 15.265625 39.671875 C 15.324219 39.804688 15.328125 39.949219 15.277344 40.082031 C 15.226562 40.21875 15.125 40.324219 14.996094 40.378906 C 14.925781 40.410156 14.851562 40.425781 14.777344 40.425781 C 14.710938 40.425781 14.648438 40.414062 14.585938 40.390625 C 14.449219 40.339844 14.34375 40.238281 14.285156 40.109375 C 14.226562 39.976562 14.222656 39.832031 14.277344 39.699219 Z M 15.1875 37.539062 C 15.304688 37.265625 15.625 37.144531 15.894531 37.265625 C 16.164062 37.386719 16.285156 37.703125 16.164062 37.972656 C 16.078125 38.171875 15.878906 38.292969 15.675781 38.292969 C 15.601562 38.292969 15.527344 38.277344 15.457031 38.246094 C 15.1875 38.125 15.066406 37.808594 15.1875 37.539062 Z M 16.207031 35.425781 C 16.34375 35.164062 16.667969 35.058594 16.929688 35.191406 C 17.058594 35.257812 17.152344 35.367188 17.195312 35.503906 C 17.238281 35.640625 17.230469 35.785156 17.164062 35.914062 C 17.097656 36.042969 16.988281 36.136719 16.851562 36.179688 C 16.796875 36.199219 16.742188 36.207031 16.683594 36.207031 C 16.601562 36.207031 16.519531 36.1875 16.441406 36.148438 C 16.179688 36.015625 16.074219 35.691406 16.207031 35.425781 Z M 95.308594 35.667969 C 95.574219 35.535156 95.894531 35.640625 96.03125 35.902344 C 96.164062 36.167969 96.0625 36.488281 95.796875 36.625 C 95.71875 36.664062 95.636719 36.683594 95.554688 36.683594 C 95.359375 36.683594 95.171875 36.574219 95.074219 36.390625 C 94.941406 36.125 95.046875 35.800781 95.308594 35.667969 Z M 96.320312 37.753906 C 96.589844 37.632812 96.90625 37.753906 97.027344 38.027344 C 97.148438 38.296875 97.027344 38.613281 96.757812 38.734375 C 96.6875 38.765625 96.613281 38.78125 96.539062 38.78125 C 96.472656 38.78125 96.410156 38.769531 96.347656 38.746094 C 96.210938 38.691406 96.105469 38.59375 96.046875 38.460938 C 95.929688 38.191406 96.050781 37.875 96.320312 37.753906 Z M 97.632812 39.898438 C 97.761719 39.957031 97.863281 40.0625 97.914062 40.199219 C 97.964844 40.332031 97.960938 40.476562 97.902344 40.609375 C 97.84375 40.738281 97.738281 40.839844 97.605469 40.890625 C 97.542969 40.914062 97.476562 40.925781 97.410156 40.925781 C 97.335938 40.925781 97.265625 40.910156 97.195312 40.878906 C 97.0625 40.820312 96.960938 40.714844 96.910156 40.582031 C 96.804688 40.304688 96.945312 39.996094 97.21875 39.890625 C 97.355469 39.835938 97.5 39.839844 97.632812 39.898438 Z M 98.683594 42.414062 C 98.726562 42.546875 98.714844 42.695312 98.652344 42.820312 C 98.585938 42.949219 98.476562 43.042969 98.339844 43.089844 C 98.285156 43.105469 98.226562 43.113281 98.171875 43.113281 C 97.945312 43.113281 97.734375 42.96875 97.660156 42.746094 C 97.570312 42.460938 97.726562 42.160156 98.007812 42.066406 C 98.289062 41.976562 98.589844 42.132812 98.683594 42.414062 Z M 99.085938 44.339844 C 99.210938 44.410156 99.296875 44.527344 99.335938 44.667969 C 99.371094 44.804688 99.351562 44.949219 99.28125 45.070312 C 99.210938 45.195312 99.09375 45.285156 98.957031 45.324219 C 98.910156 45.335938 98.863281 45.339844 98.816406 45.339844 C 98.582031 45.339844 98.363281 45.183594 98.300781 44.941406 C 98.222656 44.65625 98.390625 44.363281 98.679688 44.285156 C 98.816406 44.25 98.960938 44.269531 99.085938 44.339844 Z M 99.871094 46.949219 C 99.929688 47.238281 99.746094 47.523438 99.457031 47.585938 C 99.417969 47.59375 99.378906 47.597656 99.34375 47.597656 C 99.242188 47.597656 99.140625 47.566406 99.050781 47.511719 C 98.933594 47.433594 98.847656 47.3125 98.820312 47.171875 C 98.789062 47.03125 98.816406 46.890625 98.894531 46.769531 C 98.972656 46.648438 99.09375 46.566406 99.234375 46.535156 C 99.523438 46.476562 99.808594 46.660156 99.871094 46.949219 Z M 100.28125 49.257812 C 100.328125 49.550781 100.128906 49.824219 99.835938 49.871094 C 99.808594 49.875 99.78125 49.878906 99.75 49.878906 C 99.640625 49.878906 99.53125 49.84375 99.4375 49.773438 C 99.324219 49.691406 99.246094 49.566406 99.222656 49.425781 C 99.203125 49.285156 99.234375 49.140625 99.320312 49.027344 C 99.402344 48.910156 99.527344 48.832031 99.667969 48.8125 C 99.808594 48.789062 99.953125 48.824219 100.070312 48.90625 C 100.183594 48.992188 100.261719 49.117188 100.28125 49.257812 Z M 100.574219 51.582031 C 100.605469 51.878906 100.390625 52.144531 100.097656 52.171875 L 100.097656 52.175781 C 100.078125 52.175781 100.058594 52.175781 100.039062 52.175781 C 99.917969 52.175781 99.800781 52.136719 99.703125 52.058594 C 99.59375 51.964844 99.523438 51.839844 99.507812 51.695312 C 99.492188 51.554688 99.535156 51.414062 99.625 51.300781 C 99.714844 51.191406 99.84375 51.121094 99.984375 51.105469 C 100.273438 51.078125 100.542969 51.289062 100.574219 51.582031 Z M 100.609375 54.308594 C 100.511719 54.417969 100.378906 54.480469 100.238281 54.488281 C 100.226562 54.488281 100.21875 54.488281 100.207031 54.488281 C 100.074219 54.488281 99.949219 54.4375 99.851562 54.351562 C 99.746094 54.253906 99.679688 54.121094 99.675781 53.980469 C 99.664062 53.835938 99.714844 53.699219 99.808594 53.59375 C 99.90625 53.484375 100.039062 53.421875 100.179688 53.414062 C 100.472656 53.402344 100.730469 53.628906 100.746094 53.921875 C 100.753906 54.066406 100.703125 54.203125 100.609375 54.308594 Z M 100.792969 56.269531 C 100.792969 56.5625 100.550781 56.804688 100.253906 56.804688 C 99.960938 56.804688 99.71875 56.5625 99.71875 56.269531 C 99.71875 55.972656 99.960938 55.730469 100.253906 55.730469 C 100.550781 55.730469 100.792969 55.972656 100.792969 56.269531 Z M 56 9.636719 C 30.433594 9.636719 9.636719 30.4375 9.636719 56 C 9.636719 81.566406 30.433594 102.363281 56 102.363281 C 81.5625 102.363281 102.359375 81.566406 102.359375 56 C 102.359375 30.4375 81.5625 9.636719 56 9.636719 " fill-opacity="1" fill-rule="nonzero"/><g fill="#ffffff" fill-opacity="1"><g transform="translate(26.599147, 40.069896)"><g><path d="M -3.234375 -9.0625 L -5.4375 -5.578125 L -2.921875 -3.984375 L -0.78125 -7.359375 L -0.09375 -6.921875 L -2.234375 -3.546875 L 0.96875 -1.515625 L 0.5 -0.78125 L -6.59375 -5.28125 L -3.921875 -9.5 Z M -3.234375 -9.0625 "/></g></g></g><g fill="#ffffff" fill-opacity="1"><g transform="translate(29.538658, 35.287305)"><g><path d="M 1.625 -5.8125 C 1.21875 -6.1875 0.742188 -6.363281 0.203125 -6.34375 C -0.335938 -6.3125 -0.789062 -6.097656 -1.15625 -5.703125 C -1.53125 -5.296875 -1.707031 -4.820312 -1.6875 -4.28125 C -1.664062 -3.738281 -1.453125 -3.28125 -1.046875 -2.90625 C -0.648438 -2.539062 -0.179688 -2.367188 0.359375 -2.390625 C 0.898438 -2.410156 1.359375 -2.625 1.734375 -3.03125 C 2.097656 -3.425781 2.269531 -3.898438 2.25 -4.453125 C 2.226562 -4.992188 2.019531 -5.445312 1.625 -5.8125 Z M 2.203125 -6.4375 C 2.773438 -5.90625 3.082031 -5.25 3.125 -4.46875 C 3.144531 -3.6875 2.894531 -3.007812 2.375 -2.4375 C 1.84375 -1.863281 1.179688 -1.554688 0.390625 -1.515625 C -0.390625 -1.484375 -1.066406 -1.734375 -1.640625 -2.265625 C -2.222656 -2.796875 -2.53125 -3.457031 -2.5625 -4.25 C -2.59375 -5.03125 -2.335938 -5.710938 -1.796875 -6.296875 C -1.265625 -6.867188 -0.609375 -7.171875 0.171875 -7.203125 C 0.941406 -7.222656 1.617188 -6.96875 2.203125 -6.4375 Z M 2.203125 -6.4375 "/></g></g></g><g fill="#ffffff" fill-opacity="1"><g transform="translate(33.902974, 30.667009)"><g><path d="M 0.1875 -5.6875 C -0.0703125 -5.695312 -0.296875 -5.628906 -0.484375 -5.484375 C -0.648438 -5.347656 -0.757812 -5.191406 -0.8125 -5.015625 C -0.851562 -4.804688 -0.863281 -4.59375 -0.84375 -4.375 C -0.757812 -3.96875 -0.578125 -3.59375 -0.296875 -3.25 L 1.40625 -1.125 L 0.71875 -0.578125 L -2.6875 -4.8125 L -2 -5.359375 L -1.296875 -4.484375 L -1.421875 -4.671875 C -1.617188 -5.390625 -1.484375 -5.9375 -1.015625 -6.3125 C -0.867188 -6.4375 -0.703125 -6.519531 -0.515625 -6.5625 Z M 0.1875 -5.6875 "/></g></g></g><g fill="#ffffff" fill-opacity="1"><g transform="translate(36.704611, 28.41307)"><g/></g></g><g fill="#ffffff" fill-opacity="1"><g transform="translate(39.090769, 26.68713)"><g><path d="M 4.453125 -5.203125 L 4.65625 -4.796875 L 0.3125 -2.78125 C 0.582031 -2.394531 0.953125 -2.144531 1.421875 -2.03125 C 1.890625 -1.90625 2.335938 -1.941406 2.765625 -2.140625 C 3.046875 -2.273438 3.28125 -2.46875 3.46875 -2.71875 C 3.664062 -2.96875 3.796875 -3.242188 3.859375 -3.546875 L 4.765625 -3.96875 C 4.765625 -3.394531 4.617188 -2.882812 4.328125 -2.4375 C 4.046875 -1.957031 3.6875 -1.613281 3.25 -1.40625 C 2.8125 -1.207031 2.398438 -1.101562 2.015625 -1.09375 C 1.640625 -1.082031 1.285156 -1.140625 0.953125 -1.265625 C 0.222656 -1.523438 -0.304688 -2.015625 -0.640625 -2.734375 C -0.972656 -3.441406 -1.007812 -4.171875 -0.75 -4.921875 C -0.476562 -5.648438 0.015625 -6.179688 0.734375 -6.515625 C 1.410156 -6.828125 2.125 -6.851562 2.875 -6.59375 C 3.613281 -6.34375 4.140625 -5.878906 4.453125 -5.203125 Z M 3.515625 -5.078125 C 3.222656 -5.441406 2.851562 -5.691406 2.40625 -5.828125 C 1.957031 -5.941406 1.523438 -5.90625 1.109375 -5.71875 C 0.453125 -5.414062 0.078125 -4.894531 -0.015625 -4.15625 C -0.046875 -3.914062 -0.0351562 -3.679688 0.015625 -3.453125 Z M 3.515625 -5.078125 "/></g></g></g><g fill="#ffffff" fill-opacity="1"><g transform="translate(44.744318, 24.081343)"><g><path d="M 2.671875 -0.203125 L -1.3125 -5.28125 L -0.40625 -5.53125 L 2.15625 -2.046875 L 2.59375 -6.359375 L 3.5 -6.609375 Z M 2.671875 -0.203125 "/></g></g></g><g fill="#ffffff" fill-opacity="1"><g transform="translate(49.298858, 22.720875)"><g><path d="M 5.921875 -3.46875 L 5.953125 -3.015625 L 1.203125 -2.515625 C 1.328125 -2.054688 1.59375 -1.703125 2 -1.453125 C 2.40625 -1.191406 2.84375 -1.082031 3.3125 -1.125 C 3.625 -1.15625 3.914062 -1.257812 4.1875 -1.4375 C 4.4375 -1.613281 4.644531 -1.828125 4.8125 -2.078125 L 5.8125 -2.1875 C 5.625 -1.65625 5.316406 -1.21875 4.890625 -0.875 C 4.460938 -0.519531 4.007812 -0.316406 3.53125 -0.265625 C 3.050781 -0.210938 2.628906 -0.25 2.265625 -0.375 C 1.910156 -0.488281 1.59375 -0.65625 1.3125 -0.875 C 0.707031 -1.363281 0.363281 -2.003906 0.28125 -2.796875 C 0.207031 -3.578125 0.414062 -4.269531 0.90625 -4.875 C 1.394531 -5.476562 2.035156 -5.820312 2.828125 -5.90625 C 3.566406 -5.976562 4.25 -5.773438 4.875 -5.296875 C 5.488281 -4.828125 5.835938 -4.21875 5.921875 -3.46875 Z M 4.984375 -3.65625 C 4.828125 -4.101562 4.554688 -4.460938 4.171875 -4.734375 C 3.785156 -4.984375 3.363281 -5.082031 2.90625 -5.03125 C 2.1875 -4.957031 1.664062 -4.585938 1.34375 -3.921875 C 1.226562 -3.710938 1.164062 -3.492188 1.15625 -3.265625 Z M 4.984375 -3.65625 "/></g></g></g><g fill="#ffffff" fill-opacity="1"><g transform="translate(55.570773, 22.155495)"><g><path d="M 3.921875 -4.140625 C 3.722656 -4.328125 3.507812 -4.425781 3.28125 -4.4375 C 3.0625 -4.445312 2.875 -4.398438 2.71875 -4.296875 C 2.539062 -4.160156 2.394531 -4.007812 2.28125 -3.84375 C 2.0625 -3.488281 1.941406 -3.085938 1.921875 -2.640625 L 1.796875 0.078125 L 0.921875 0.046875 L 1.171875 -5.390625 L 2.046875 -5.359375 L 2 -4.234375 L 2.03125 -4.453125 C 2.351562 -5.109375 2.816406 -5.425781 3.421875 -5.40625 C 3.609375 -5.394531 3.789062 -5.347656 3.96875 -5.265625 Z M 3.921875 -4.140625 "/></g></g></g><g fill="#ffffff" fill-opacity="1"><g transform="translate(59.064997, 22.24847)"><g><path d="M 1.0625 3.328125 L 0.015625 3.140625 L 2.515625 -0.46875 L 1.0625 -5.34375 L 2.03125 -5.171875 L 3.125 -1.265625 L 5.28125 -4.59375 L 6.234375 -4.4375 Z M 1.0625 3.328125 "/></g></g></g><g fill="#ffffff" fill-opacity="1"><g transform="translate(63.909554, 23.135975)"><g/></g></g><g fill="#ffffff" fill-opacity="1"><g transform="translate(66.865117, 23.997426)"><g><path d="M 2.03125 -4.1875 L 2.34375 -4.921875 L 3.59375 -4.390625 L 4.421875 -6.328125 L 5.21875 -6 L 4.390625 -4.0625 L 5.625 -3.53125 L 5.3125 -2.796875 L 4.078125 -3.328125 L 2.28125 0.953125 L 1.484375 0.625 L 3.28125 -3.65625 Z M 2.03125 -4.1875 "/></g></g></g><g fill="#ffffff" fill-opacity="1"><g transform="translate(70.25526, 25.263093)"><g><path d="M 5.90625 0.453125 C 6.175781 0.00390625 6.257812 -0.488281 6.15625 -1.03125 C 6.050781 -1.550781 5.769531 -1.953125 5.3125 -2.234375 C 4.84375 -2.523438 4.351562 -2.597656 3.84375 -2.453125 C 3.3125 -2.304688 2.910156 -2.007812 2.640625 -1.5625 C 2.359375 -1.113281 2.273438 -0.617188 2.390625 -0.078125 C 2.484375 0.441406 2.765625 0.847656 3.234375 1.140625 C 3.691406 1.421875 4.179688 1.488281 4.703125 1.34375 C 5.222656 1.195312 5.625 0.898438 5.90625 0.453125 Z M 5.203125 3.21875 L 4.46875 2.765625 L 4.953125 1.984375 C 4.878906 2.003906 4.804688 2.03125 4.734375 2.0625 C 3.992188 2.28125 3.300781 2.191406 2.65625 1.796875 C 2.019531 1.398438 1.632812 0.820312 1.5 0.0625 C 1.375 -0.675781 1.515625 -1.367188 1.921875 -2.015625 C 2.316406 -2.660156 2.867188 -3.09375 3.578125 -3.3125 C 4.316406 -3.53125 5.003906 -3.441406 5.640625 -3.046875 C 6.285156 -2.648438 6.675781 -2.070312 6.8125 -1.3125 C 6.820312 -1.238281 6.832031 -1.160156 6.84375 -1.078125 L 7.328125 -1.859375 L 8.0625 -1.40625 Z M 5.203125 3.21875 "/></g></g></g><g fill="#ffffff" fill-opacity="1"><g transform="translate(75.787212, 28.734682)"><g><path d="M 1.8125 0.546875 C 1.875 0.796875 2.035156 1.035156 2.296875 1.265625 C 2.890625 1.785156 3.378906 1.820312 3.765625 1.375 C 3.992188 1.113281 3.953125 0.734375 3.640625 0.234375 C 3.523438 0.015625 3.382812 -0.207031 3.21875 -0.4375 C 3.050781 -0.675781 2.914062 -0.914062 2.8125 -1.15625 C 2.675781 -1.4375 2.628906 -1.703125 2.671875 -1.953125 C 2.679688 -2.191406 2.78125 -2.414062 2.96875 -2.625 C 3.320312 -3.03125 3.734375 -3.203125 4.203125 -3.140625 C 4.671875 -3.109375 5.101562 -2.914062 5.5 -2.5625 C 5.894531 -2.21875 6.148438 -1.851562 6.265625 -1.46875 C 6.390625 -1.082031 6.316406 -0.640625 6.046875 -0.140625 L 5.34375 -0.765625 C 5.46875 -1.046875 5.5 -1.285156 5.4375 -1.484375 C 5.351562 -1.679688 5.210938 -1.867188 5.015625 -2.046875 C 4.804688 -2.234375 4.59375 -2.34375 4.375 -2.375 C 4.132812 -2.414062 3.9375 -2.34375 3.78125 -2.15625 C 3.613281 -1.96875 3.554688 -1.773438 3.609375 -1.578125 C 3.671875 -1.398438 3.757812 -1.203125 3.875 -0.984375 C 4.007812 -0.765625 4.164062 -0.546875 4.34375 -0.328125 C 4.5 -0.0859375 4.625 0.148438 4.71875 0.390625 C 4.976562 0.960938 4.914062 1.46875 4.53125 1.90625 C 4.144531 2.34375 3.703125 2.523438 3.203125 2.453125 C 2.941406 2.421875 2.691406 2.351562 2.453125 2.25 C 2.222656 2.132812 2 1.976562 1.78125 1.78125 C 0.832031 0.945312 0.65625 0.046875 1.25 -0.921875 L 1.9375 -0.3125 C 1.78125 0.0195312 1.738281 0.304688 1.8125 0.546875 Z M 1.8125 0.546875 "/></g></g></g><g fill="#ffffff" fill-opacity="1"><g transform="translate(79.253071, 31.786854)"><g><path d="M 3.65625 -2.890625 L 4.25 -3.40625 L 5.140625 -2.390625 L 6.71875 -3.796875 L 7.296875 -3.15625 L 5.71875 -1.75 L 6.59375 -0.734375 L 6 -0.21875 L 5.125 -1.234375 L 1.640625 1.84375 L 1.0625 1.203125 L 4.546875 -1.875 Z M 3.65625 -2.890625 "/></g></g></g><g fill="#ffffff" fill-opacity="1"><g transform="translate(81.756091, 34.420349)"><g><path d="M 5.765625 3.6875 L 5.390625 3.9375 L 2.796875 -0.078125 C 2.453125 0.242188 2.25 0.644531 2.1875 1.125 C 2.144531 1.601562 2.25 2.039062 2.5 2.4375 C 2.664062 2.695312 2.890625 2.90625 3.171875 3.0625 C 3.453125 3.226562 3.742188 3.320312 4.046875 3.34375 L 4.59375 4.1875 C 4.03125 4.257812 3.5 4.179688 3 3.953125 C 2.476562 3.734375 2.085938 3.421875 1.828125 3.015625 C 1.578125 2.609375 1.425781 2.222656 1.375 1.859375 C 1.300781 1.492188 1.300781 1.132812 1.375 0.78125 C 1.539062 0.0078125 1.957031 -0.585938 2.625 -1.015625 C 3.28125 -1.441406 3.988281 -1.570312 4.75 -1.40625 C 5.519531 -1.25 6.117188 -0.835938 6.546875 -0.171875 C 6.953125 0.460938 7.082031 1.164062 6.9375 1.9375 C 6.78125 2.695312 6.390625 3.28125 5.765625 3.6875 Z M 5.515625 2.796875 C 5.835938 2.453125 6.035156 2.050781 6.109375 1.59375 C 6.160156 1.113281 6.0625 0.679688 5.8125 0.296875 C 5.425781 -0.304688 4.859375 -0.601562 4.109375 -0.59375 C 3.878906 -0.582031 3.648438 -0.535156 3.421875 -0.453125 Z M 5.515625 2.796875 "/></g></g></g><g fill="#ffffff" fill-opacity="1"><g transform="translate(18.963927, 73.515458)"><g><path d="M 6.71875 -3.625 L 7.40625 -4.015625 L 8.421875 -2.265625 L 8.875 -1.5 L 9.890625 0.25 L 9.203125 0.640625 L 8.1875 -1.109375 L 1.625 2.71875 L 1.171875 1.953125 L 7.734375 -1.875 Z M 6.71875 -3.625 "/></g></g></g><g fill="#ffffff" fill-opacity="1"><g transform="translate(22.168266, 78.945303)"><g><path d="M 1.140625 1.390625 L 0.59375 0.703125 L 7.734375 -5.203125 L 8.28125 -4.515625 L 4.609375 -1.46875 C 4.953125 -1.53125 5.289062 -1.515625 5.625 -1.421875 C 5.96875 -1.328125 6.265625 -1.128906 6.515625 -0.828125 C 6.765625 -0.523438 6.925781 -0.25 7 0 C 7.050781 0.25 7.0625 0.503906 7.03125 0.765625 C 6.925781 1.265625 6.632812 1.710938 6.15625 2.109375 L 3.53125 4.28125 L 2.984375 3.609375 L 5.609375 1.4375 C 5.878906 1.207031 6.066406 0.957031 6.171875 0.6875 C 6.242188 0.394531 6.160156 0.109375 5.921875 -0.171875 C 5.691406 -0.453125 5.460938 -0.644531 5.234375 -0.75 C 4.984375 -0.851562 4.726562 -0.890625 4.46875 -0.859375 C 4 -0.804688 3.476562 -0.539062 2.90625 -0.0625 Z M 1.140625 1.390625 "/></g></g></g><g fill="#ffffff" fill-opacity="1"><g transform="translate(26.825603, 84.480638)"><g><path d="M 6.59375 1.84375 L 6.3125 2.1875 L 2.65625 -0.890625 C 2.414062 -0.484375 2.34375 -0.0390625 2.4375 0.4375 C 2.519531 0.90625 2.742188 1.289062 3.109375 1.59375 C 3.347656 1.800781 3.617188 1.9375 3.921875 2 C 4.234375 2.0625 4.546875 2.0625 4.859375 2 L 5.625 2.640625 C 5.09375 2.878906 4.5625 2.96875 4.03125 2.90625 C 3.46875 2.84375 3.003906 2.660156 2.640625 2.359375 C 2.273438 2.046875 2.007812 1.71875 1.84375 1.375 C 1.675781 1.03125 1.570312 0.679688 1.53125 0.328125 C 1.46875 -0.453125 1.691406 -1.144531 2.203125 -1.75 C 2.710938 -2.34375 3.351562 -2.675781 4.125 -2.75 C 4.90625 -2.820312 5.597656 -2.601562 6.203125 -2.09375 C 6.773438 -1.601562 7.109375 -0.96875 7.203125 -0.1875 C 7.285156 0.59375 7.082031 1.269531 6.59375 1.84375 Z M 6.09375 1.046875 C 6.300781 0.617188 6.367188 0.171875 6.296875 -0.296875 C 6.203125 -0.742188 5.984375 -1.117188 5.640625 -1.421875 C 5.085938 -1.878906 4.457031 -1.992188 3.75 -1.765625 C 3.53125 -1.691406 3.328125 -1.582031 3.140625 -1.4375 Z M 6.09375 1.046875 "/></g></g></g><g fill="#ffffff" fill-opacity="1"><g transform="translate(32.689667, 89.198435)"><g><path d="M 5.4375 -1.71875 C 5.351562 -1.96875 5.21875 -2.15625 5.03125 -2.28125 C 4.84375 -2.394531 4.648438 -2.445312 4.453125 -2.4375 C 4.234375 -2.40625 4.03125 -2.347656 3.84375 -2.265625 C 3.488281 -2.054688 3.191406 -1.757812 2.953125 -1.375 L 1.53125 0.9375 L 0.78125 0.484375 L 3.625 -4.140625 L 4.375 -3.6875 L 3.796875 -2.734375 L 3.9375 -2.90625 C 4.53125 -3.320312 5.085938 -3.375 5.609375 -3.0625 C 5.765625 -2.957031 5.898438 -2.828125 6.015625 -2.671875 Z M 5.4375 -1.71875 "/></g></g></g><g fill="#ffffff" fill-opacity="1"><g transform="translate(36.62248, 91.676594)"><g><path d="M 6.859375 -0.15625 L 6.671875 0.25 L 2.28125 -1.625 C 2.164062 -1.15625 2.222656 -0.710938 2.453125 -0.296875 C 2.679688 0.128906 3.007812 0.4375 3.4375 0.625 C 3.726562 0.75 4.03125 0.796875 4.34375 0.765625 C 4.664062 0.742188 4.957031 0.65625 5.21875 0.5 L 6.140625 0.890625 C 5.710938 1.273438 5.226562 1.515625 4.6875 1.609375 C 4.144531 1.710938 3.65625 1.671875 3.21875 1.484375 C 2.769531 1.296875 2.421875 1.0625 2.171875 0.78125 C 1.910156 0.507812 1.707031 0.207031 1.5625 -0.125 C 1.269531 -0.851562 1.28125 -1.582031 1.59375 -2.3125 C 1.90625 -3.03125 2.425781 -3.535156 3.15625 -3.828125 C 3.882812 -4.117188 4.609375 -4.109375 5.328125 -3.796875 C 6.023438 -3.503906 6.523438 -2.992188 6.828125 -2.265625 C 7.140625 -1.554688 7.148438 -0.851562 6.859375 -0.15625 Z M 6.140625 -0.78125 C 6.210938 -1.238281 6.148438 -1.679688 5.953125 -2.109375 C 5.734375 -2.523438 5.410156 -2.820312 4.984375 -3 C 4.328125 -3.28125 3.691406 -3.207031 3.078125 -2.78125 C 2.878906 -2.644531 2.710938 -2.484375 2.578125 -2.296875 Z M 6.140625 -0.78125 "/></g></g></g><g fill="#ffffff" fill-opacity="1"><g transform="translate(43.54106, 94.43755)"><g><path d="M 4.65625 -8.328125 L 2.4375 -5.609375 L 1.9375 -5.75 L 3.515625 -8.640625 Z M 4.65625 -8.328125 "/></g></g></g><g fill="#ffffff" fill-opacity="1"><g transform="translate(46.557071, 95.320305)"><g><path d="M 1.8125 -0.484375 C 2.007812 -0.296875 2.28125 -0.171875 2.625 -0.109375 C 3.40625 0.015625 3.847656 -0.21875 3.953125 -0.8125 C 4.003906 -1.144531 3.757812 -1.445312 3.21875 -1.71875 C 3 -1.84375 2.757812 -1.957031 2.5 -2.0625 C 2.238281 -2.1875 2 -2.320312 1.78125 -2.46875 C 1.519531 -2.632812 1.34375 -2.828125 1.25 -3.046875 C 1.144531 -3.273438 1.113281 -3.519531 1.15625 -3.78125 C 1.25 -4.320312 1.503906 -4.6875 1.921875 -4.875 C 2.347656 -5.09375 2.820312 -5.160156 3.34375 -5.078125 C 3.851562 -4.984375 4.265625 -4.800781 4.578125 -4.53125 C 4.878906 -4.269531 5.046875 -3.851562 5.078125 -3.28125 L 4.15625 -3.4375 C 4.113281 -3.757812 4.007812 -3.988281 3.84375 -4.125 C 3.664062 -4.25 3.445312 -4.332031 3.1875 -4.375 C 2.914062 -4.425781 2.675781 -4.410156 2.46875 -4.328125 C 2.257812 -4.234375 2.132812 -4.066406 2.09375 -3.828125 C 2.050781 -3.585938 2.097656 -3.394531 2.234375 -3.25 C 2.378906 -3.125 2.5625 -3 2.78125 -2.875 C 3.007812 -2.757812 3.253906 -2.648438 3.515625 -2.546875 C 3.773438 -2.429688 4.015625 -2.296875 4.234375 -2.140625 C 4.742188 -1.796875 4.953125 -1.335938 4.859375 -0.765625 C 4.753906 -0.179688 4.472656 0.207031 4.015625 0.40625 C 3.785156 0.519531 3.535156 0.59375 3.265625 0.625 C 3.003906 0.644531 2.734375 0.628906 2.453125 0.578125 C 1.203125 0.367188 0.578125 -0.300781 0.578125 -1.4375 L 1.484375 -1.296875 C 1.523438 -0.921875 1.632812 -0.648438 1.8125 -0.484375 Z M 1.8125 -0.484375 "/></g></g></g><g fill="#ffffff" fill-opacity="1"><g transform="translate(52.12215, 96.180289)"><g/></g></g><g fill="#ffffff" fill-opacity="1"><g transform="translate(56.244207, 96.471108)"><g><path d="M 4.984375 -3.1875 C 4.929688 -3.71875 4.707031 -4.164062 4.3125 -4.53125 C 3.90625 -4.894531 3.429688 -5.050781 2.890625 -5 C 2.335938 -4.945312 1.90625 -4.707031 1.59375 -4.28125 C 1.257812 -3.84375 1.117188 -3.359375 1.171875 -2.828125 C 1.222656 -2.296875 1.445312 -1.859375 1.84375 -1.515625 C 2.238281 -1.148438 2.710938 -0.992188 3.265625 -1.046875 C 3.804688 -1.097656 4.238281 -1.335938 4.5625 -1.765625 C 4.894531 -2.179688 5.035156 -2.65625 4.984375 -3.1875 Z M 6.09375 -0.5625 L 5.234375 -0.484375 L 5.15625 -1.40625 C 5.101562 -1.34375 5.0625 -1.273438 5.03125 -1.203125 C 4.5625 -0.585938 3.953125 -0.242188 3.203125 -0.171875 C 2.453125 -0.0976562 1.800781 -0.328125 1.25 -0.859375 C 0.695312 -1.367188 0.382812 -2 0.3125 -2.75 C 0.238281 -3.507812 0.425781 -4.195312 0.875 -4.8125 C 1.320312 -5.414062 1.921875 -5.753906 2.671875 -5.828125 C 3.421875 -5.898438 4.082031 -5.675781 4.65625 -5.15625 C 4.707031 -5.101562 4.757812 -5.046875 4.8125 -4.984375 L 4.734375 -5.890625 L 5.59375 -5.96875 Z M 6.09375 -0.5625 "/></g></g></g><g fill="#ffffff" fill-opacity="1"><g transform="translate(64.012925, 95.553726)"><g/></g></g><g fill="#ffffff" fill-opacity="1"><g transform="translate(68.046088, 94.653952)"><g><path d="M 2.828125 2.203125 L 2.015625 2.53125 L -1.171875 -5.390625 L -0.359375 -5.71875 L -0.015625 -4.859375 C -0.00390625 -4.929688 0.015625 -5.007812 0.046875 -5.09375 C 0.304688 -5.8125 0.785156 -6.3125 1.484375 -6.59375 C 2.179688 -6.875 2.875 -6.847656 3.5625 -6.515625 C 4.238281 -6.171875 4.71875 -5.644531 5 -4.9375 C 5.28125 -4.238281 5.296875 -3.539062 5.046875 -2.84375 C 4.785156 -2.113281 4.304688 -1.609375 3.609375 -1.328125 C 2.910156 -1.046875 2.21875 -1.078125 1.53125 -1.421875 C 1.445312 -1.441406 1.378906 -1.476562 1.328125 -1.53125 Z M 4.203125 -4.625 C 4.003906 -5.125 3.660156 -5.484375 3.171875 -5.703125 C 2.679688 -5.929688 2.179688 -5.945312 1.671875 -5.75 C 1.171875 -5.539062 0.828125 -5.1875 0.640625 -4.6875 C 0.453125 -4.1875 0.457031 -3.6875 0.65625 -3.1875 C 0.851562 -2.695312 1.191406 -2.335938 1.671875 -2.109375 C 2.160156 -1.878906 2.65625 -1.867188 3.15625 -2.078125 C 3.664062 -2.273438 4.015625 -2.625 4.203125 -3.125 C 4.398438 -3.632812 4.398438 -4.132812 4.203125 -4.625 Z M 4.203125 -4.625 "/></g></g></g><g fill="#ffffff" fill-opacity="1"><g transform="translate(75.191817, 91.560363)"><g><path d="M 1.5625 -0.890625 L 0.796875 -0.453125 L -3.796875 -8.5 L -3.03125 -8.9375 Z M 1.5625 -0.890625 "/></g></g></g><g fill="#ffffff" fill-opacity="1"><g transform="translate(78.258464, 89.916886)"><g><path d="M 2.5 -5.359375 C 2.175781 -5.773438 1.75 -6.03125 1.21875 -6.125 C 0.6875 -6.207031 0.207031 -6.085938 -0.21875 -5.765625 C -0.65625 -5.421875 -0.890625 -4.984375 -0.921875 -4.453125 C -0.984375 -3.921875 -0.851562 -3.445312 -0.53125 -3.03125 C -0.207031 -2.601562 0.222656 -2.34375 0.765625 -2.25 C 1.285156 -2.15625 1.765625 -2.28125 2.203125 -2.625 C 2.628906 -2.945312 2.863281 -3.378906 2.90625 -3.921875 C 2.957031 -4.453125 2.820312 -4.929688 2.5 -5.359375 Z M 4.859375 -3.734375 L 4.15625 -3.203125 L 3.59375 -3.9375 C 3.59375 -3.851562 3.59375 -3.773438 3.59375 -3.703125 C 3.53125 -2.929688 3.203125 -2.316406 2.609375 -1.859375 C 2.015625 -1.398438 1.34375 -1.238281 0.59375 -1.375 C -0.144531 -1.519531 -0.742188 -1.894531 -1.203125 -2.5 C -1.671875 -3.101562 -1.878906 -3.773438 -1.828125 -4.515625 C -1.773438 -5.285156 -1.453125 -5.898438 -0.859375 -6.359375 C -0.265625 -6.816406 0.410156 -6.976562 1.171875 -6.84375 C 1.242188 -6.820312 1.320312 -6.800781 1.40625 -6.78125 L 0.84375 -7.515625 L 1.546875 -8.046875 Z M 4.859375 -3.734375 "/></g></g></g><g fill="#ffffff" fill-opacity="1"><g transform="translate(84.531939, 84.934748)"><g><path d="M 1.375 -6.796875 L 0.765625 -6.09375 C 0.410156 -6.207031 0.046875 -6.222656 -0.328125 -6.140625 C -0.691406 -6.054688 -0.976562 -5.894531 -1.1875 -5.65625 C -1.40625 -5.40625 -1.554688 -5.164062 -1.640625 -4.9375 C -1.710938 -4.695312 -1.738281 -4.457031 -1.71875 -4.21875 C -1.664062 -3.675781 -1.445312 -3.234375 -1.0625 -2.890625 C -0.664062 -2.535156 -0.207031 -2.375 0.3125 -2.40625 C 0.84375 -2.414062 1.285156 -2.617188 1.640625 -3.015625 C 1.867188 -3.265625 2.015625 -3.5625 2.078125 -3.90625 C 2.140625 -4.25 2.109375 -4.582031 1.984375 -4.90625 L 2.625 -5.640625 C 3.082031 -4.828125 3.128906 -3.992188 2.765625 -3.140625 C 2.660156 -2.878906 2.492188 -2.617188 2.265625 -2.359375 C 2.035156 -2.097656 1.75 -1.894531 1.40625 -1.75 C 1.070312 -1.59375 0.722656 -1.507812 0.359375 -1.5 C -0.410156 -1.476562 -1.082031 -1.722656 -1.65625 -2.234375 C -2.226562 -2.742188 -2.546875 -3.378906 -2.609375 -4.140625 C -2.671875 -4.921875 -2.441406 -5.601562 -1.921875 -6.1875 C -1.503906 -6.65625 -0.984375 -6.945312 -0.359375 -7.0625 C 0.234375 -7.175781 0.8125 -7.085938 1.375 -6.796875 Z M 1.375 -6.796875 "/></g></g></g><g fill="#ffffff" fill-opacity="1"><g transform="translate(89.39262, 79.368217)"><g><path d="M 0.796875 -6.796875 L 1.1875 -6.5625 L -1.296875 -2.484375 C -0.847656 -2.304688 -0.398438 -2.300781 0.046875 -2.46875 C 0.503906 -2.632812 0.851562 -2.914062 1.09375 -3.3125 C 1.257812 -3.582031 1.351562 -3.875 1.375 -4.1875 C 1.394531 -4.5 1.347656 -4.804688 1.234375 -5.109375 L 1.75 -5.953125 C 2.070312 -5.484375 2.234375 -4.972656 2.234375 -4.421875 C 2.265625 -3.867188 2.15625 -3.382812 1.90625 -2.96875 C 1.65625 -2.5625 1.375 -2.253906 1.0625 -2.046875 C 0.757812 -1.816406 0.4375 -1.65625 0.09375 -1.5625 C -0.664062 -1.382812 -1.382812 -1.5 -2.0625 -1.90625 C -2.726562 -2.3125 -3.160156 -2.894531 -3.359375 -3.65625 C -3.535156 -4.414062 -3.421875 -5.132812 -3.015625 -5.8125 C -2.628906 -6.457031 -2.054688 -6.882812 -1.296875 -7.09375 C -0.535156 -7.289062 0.160156 -7.191406 0.796875 -6.796875 Z M 0.09375 -6.1875 C -0.351562 -6.320312 -0.800781 -6.320312 -1.25 -6.1875 C -1.6875 -6.03125 -2.023438 -5.753906 -2.265625 -5.359375 C -2.640625 -4.742188 -2.65625 -4.101562 -2.3125 -3.4375 C -2.21875 -3.226562 -2.082031 -3.039062 -1.90625 -2.875 Z M 0.09375 -6.1875 "/></g></g></g><g clip-path="url(#c0bfb034e8)"><g clip-path="url(#1bf6f4fc6c)"><path fill="#ffffff" d="M 16.828125 53.683594 L 22.132812 53.683594 L 22.132812 58.320312 L 16.828125 58.320312 Z M 16.828125 53.683594 " fill-opacity="1" fill-rule="nonzero"/></g></g><g clip-path="url(#fc4ac73cd7)"><g clip-path="url(#e806de191b)"><path fill="#ffffff" d="M 89.875 53.683594 L 95.183594 53.683594 L 95.183594 58.320312 L 89.875 58.320312 Z M 89.875 53.683594 " fill-opacity="1" fill-rule="nonzero"/></g></g><g clip-path="url(#fd5fc8f3b4)"><path fill="#ffffff" d="M 46.410156 38.277344 C 46.144531 38.296875 45.933594 38.511719 45.921875 38.777344 L 45.296875 50.183594 C 45.230469 51.355469 45.671875 52.230469 46.277344 52.816406 C 46.792969 53.3125 47.382812 53.59375 47.910156 53.871094 L 47.183594 71.21875 C 47.113281 72.933594 48.601562 74.289062 50.3125 74.289062 C 52.027344 74.289062 53.511719 72.933594 53.441406 71.21875 L 52.714844 53.871094 C 53.242188 53.59375 53.835938 53.3125 54.351562 52.816406 C 54.953125 52.230469 55.390625 51.355469 55.328125 50.183594 L 54.707031 38.777344 C 54.6875 38.488281 54.441406 38.269531 54.15625 38.285156 C 53.871094 38.300781 53.648438 38.546875 53.667969 38.832031 L 54.292969 50.242188 C 54.34375 51.152344 54.0625 51.644531 53.625 52.066406 C 53.1875 52.492188 52.550781 52.800781 51.933594 53.140625 C 51.757812 53.234375 51.652344 53.421875 51.664062 53.617188 L 52.402344 71.261719 C 52.445312 72.347656 51.488281 73.25 50.3125 73.25 C 49.140625 73.25 48.179688 72.347656 48.226562 71.261719 L 48.964844 53.617188 C 48.972656 53.421875 48.867188 53.238281 48.695312 53.140625 C 48.074219 52.800781 47.4375 52.492188 47 52.066406 C 46.558594 51.644531 46.285156 51.152344 46.335938 50.242188 L 46.957031 38.832031 C 46.980469 38.523438 46.722656 38.261719 46.410156 38.277344 Z M 46.410156 38.277344 " fill-opacity="1" fill-rule="evenodd"/></g><path fill="#ffffff" d="M 49.011719 38.277344 C 48.726562 38.285156 48.496094 38.519531 48.503906 38.808594 L 48.503906 47.757812 C 48.488281 48.050781 48.726562 48.296875 49.023438 48.296875 C 49.316406 48.296875 49.554688 48.050781 49.542969 47.757812 L 49.542969 38.808594 C 49.546875 38.511719 49.308594 38.273438 49.011719 38.277344 Z M 49.011719 38.277344 " fill-opacity="1" fill-rule="evenodd"/><path fill="#ffffff" d="M 51.597656 38.277344 C 51.308594 38.28125 51.078125 38.515625 51.082031 38.808594 L 51.082031 47.757812 C 51.082031 48.042969 51.316406 48.28125 51.601562 48.28125 C 51.890625 48.28125 52.125 48.046875 52.125 47.757812 L 52.125 38.808594 C 52.128906 38.511719 51.890625 38.273438 51.597656 38.277344 Z M 51.597656 38.277344 " fill-opacity="1" fill-rule="evenodd"/><g clip-path="url(#cef360cbfc)"><path fill="#ffffff" d="M 60.894531 38.949219 C 61.144531 38.871094 61.675781 39 62.277344 39.601562 C 63.726562 41.039062 65.71875 43.820312 65.71875 48.640625 C 65.71875 53.082031 64.726562 55.683594 63.347656 57.050781 C 63.238281 57.160156 63.183594 57.308594 63.195312 57.460938 L 64.222656 71.257812 C 64.265625 71.828125 64.070312 72.175781 63.738281 72.445312 C 63.402344 72.714844 62.894531 72.875 62.371094 72.875 C 61.847656 72.878906 61.324219 72.722656 60.960938 72.445312 C 60.597656 72.164062 60.371094 71.800781 60.371094 71.222656 L 60.371094 40.285156 C 60.371094 39.8125 60.453125 39.476562 60.558594 39.269531 C 60.664062 39.066406 60.765625 38.988281 60.894531 38.949219 Z M 60.582031 37.957031 C 60.179688 38.085938 59.839844 38.394531 59.632812 38.796875 C 59.425781 39.199219 59.332031 39.695312 59.332031 40.285156 L 59.332031 71.21875 C 59.332031 72.101562 59.746094 72.824219 60.332031 73.273438 C 60.917969 73.71875 61.652344 73.917969 62.378906 73.914062 C 63.101562 73.914062 63.832031 73.710938 64.394531 73.253906 C 64.957031 72.796875 65.324219 72.058594 65.257812 71.183594 L 64.242188 57.507812 C 65.785156 55.820312 66.757812 53.046875 66.757812 48.640625 C 66.757812 43.53125 64.605469 40.445312 63.011719 38.863281 C 62.253906 38.113281 61.386719 37.703125 60.582031 37.957031 Z M 60.582031 37.957031 " fill-opacity="1" fill-rule="evenodd"/></g></svg>