<svg xmlns="http://www.w3.org/2000/svg" xmlns:xlink="http://www.w3.org/1999/xlink" width="300" zoomAndPan="magnify" viewBox="0 0 224.87999 225" height="300" preserveAspectRatio="xMidYMid meet" version="1.0"><defs><g/><clipPath id="6aa3097508"><path d="M 0 0.0585938 L 224.761719 0.0585938 L 224.761719 224.9375 L 0 224.9375 Z M 0 0.0585938 " clip-rule="nonzero"/></clipPath><clipPath id="9094c5ff6b"><path d="M 0.00390625 0.855469 L 223.722656 0.855469 L 223.722656 224.144531 L 0.00390625 224.144531 Z M 0.00390625 0.855469 " clip-rule="nonzero"/></clipPath><clipPath id="480eb6e9f8"><path d="M 33.789062 107.808594 L 44.441406 107.808594 L 44.441406 117.152344 L 33.789062 117.152344 Z M 33.789062 107.808594 " clip-rule="nonzero"/></clipPath><clipPath id="2d3f7448d6"><path d="M 34.210938 109.332031 C 33.347656 110.753906 33.953125 112.136719 34.71875 112.871094 L 39.183594 117.152344 L 43.554688 112.886719 C 44.265625 112.097656 44.535156 111.257812 44.386719 110.324219 C 44.175781 109.035156 43.113281 108.035156 41.800781 107.890625 C 40.996094 107.804688 40.214844 108.03125 39.609375 108.539062 C 39.445312 108.671875 39.300781 108.824219 39.171875 108.988281 C 39.019531 108.800781 38.84375 108.628906 38.644531 108.476562 C 37.945312 107.949219 37.054688 107.738281 36.203125 107.902344 C 35.394531 108.058594 34.667969 108.578125 34.210938 109.332031 Z M 34.210938 109.332031 " clip-rule="nonzero"/></clipPath><clipPath id="acc73e777b"><path d="M 180.453125 107.808594 L 191.109375 107.808594 L 191.109375 117.152344 L 180.453125 117.152344 Z M 180.453125 107.808594 " clip-rule="nonzero"/></clipPath><clipPath id="c7fc8fa26f"><path d="M 180.875 109.332031 C 180.011719 110.753906 180.621094 112.136719 181.386719 112.871094 L 185.851562 117.152344 L 190.21875 112.886719 C 190.929688 112.097656 191.203125 111.257812 191.050781 110.324219 C 190.84375 109.035156 189.78125 108.035156 188.464844 107.890625 C 187.660156 107.804688 186.882812 108.03125 186.273438 108.539062 C 186.113281 108.671875 185.964844 108.824219 185.839844 108.988281 C 185.6875 108.800781 185.511719 108.628906 185.308594 108.476562 C 184.609375 107.949219 183.722656 107.738281 182.867188 107.902344 C 182.058594 108.058594 181.332031 108.578125 180.875 109.332031 Z M 180.875 109.332031 " clip-rule="nonzero"/></clipPath><clipPath id="343d93beae"><path d="M 90.824219 76 L 112 76 L 112 149.261719 L 90.824219 149.261719 Z M 90.824219 76 " clip-rule="nonzero"/></clipPath><clipPath id="38c2f5e54e"><path d="M 119 76 L 133.730469 76 L 133.730469 149 L 119 149 Z M 119 76 " clip-rule="nonzero"/></clipPath></defs><g clip-path="url(#6aa3097508)"><path fill="#ffffff" d="M 0 0.0585938 L 224.878906 0.0585938 L 224.878906 224.941406 L 0 224.941406 Z M 0 0.0585938 " fill-opacity="1" fill-rule="nonzero"/><path fill="#ffffff" d="M 0 0.0585938 L 224.878906 0.0585938 L 224.878906 224.941406 L 0 224.941406 Z M 0 0.0585938 " fill-opacity="1" fill-rule="nonzero"/></g><g clip-path="url(#9094c5ff6b)"><path fill="#e48b8d" d="M 112.433594 207.75 C 59.914062 207.75 17.183594 165.019531 17.183594 112.5 C 17.183594 59.976562 59.914062 17.25 112.433594 17.25 C 164.957031 17.25 207.683594 59.976562 207.683594 112.5 C 207.683594 165.019531 164.957031 207.75 112.433594 207.75 Z M 224.867188 112.5 C 224.867188 108.089844 215.984375 104.253906 215.46875 99.980469 C 214.945312 95.613281 222.652344 89.777344 221.625 85.585938 C 220.578125 81.328125 211.035156 79.734375 209.5 75.6875 C 207.949219 71.59375 214.023438 64.074219 212.007812 60.238281 C 209.972656 56.371094 200.328125 57.117188 197.859375 53.542969 C 195.378906 49.957031 199.476562 41.199219 196.59375 37.941406 C 193.703125 34.683594 184.515625 37.703125 181.253906 34.8125 C 178 31.929688 179.898438 22.445312 176.3125 19.964844 C 172.738281 17.492188 164.539062 22.617188 160.671875 20.582031 C 156.832031 18.566406 156.40625 8.898438 152.316406 7.347656 C 148.269531 5.8125 141.542969 12.757812 137.28125 11.707031 C 133.089844 10.679688 130.351562 1.402344 125.984375 0.875 C 121.710938 0.363281 116.847656 8.714844 112.433594 8.714844 C 108.023438 8.714844 103.15625 0.363281 98.882812 0.875 C 94.515625 1.402344 91.777344 10.679688 87.585938 11.707031 C 83.328125 12.757812 76.601562 5.8125 72.554688 7.347656 C 68.464844 8.898438 68.035156 18.5625 64.199219 20.582031 C 60.332031 22.617188 52.132812 17.492188 48.558594 19.960938 C 44.972656 22.441406 46.871094 31.929688 43.617188 34.8125 C 40.355469 37.703125 31.167969 34.683594 28.28125 37.941406 C 25.394531 41.195312 29.492188 49.953125 27.011719 53.542969 C 24.542969 57.113281 14.898438 56.371094 12.863281 60.238281 C 10.847656 64.074219 16.921875 71.59375 15.367188 75.6875 C 13.832031 79.730469 4.292969 81.328125 3.246094 85.585938 C 2.214844 89.777344 9.921875 95.613281 9.398438 99.980469 C 8.886719 104.253906 0.00390625 108.089844 0.00390625 112.5 C 0.00390625 116.910156 8.886719 120.746094 9.398438 125.015625 C 9.921875 129.382812 2.214844 135.21875 3.246094 139.410156 C 4.292969 143.671875 13.832031 145.265625 15.367188 149.308594 C 16.921875 153.402344 10.84375 160.921875 12.863281 164.761719 C 14.898438 168.625 24.542969 167.882812 27.011719 171.453125 C 29.492188 175.042969 25.390625 183.800781 28.277344 187.054688 C 31.167969 190.316406 40.355469 187.292969 43.613281 190.183594 C 46.867188 193.070312 44.972656 202.554688 48.558594 205.035156 C 52.132812 207.503906 60.332031 202.382812 64.199219 204.414062 C 68.035156 206.433594 68.460938 216.097656 72.554688 217.652344 C 76.601562 219.1875 83.324219 212.242188 87.585938 213.289062 C 91.777344 214.320312 94.515625 223.597656 98.886719 224.121094 C 103.15625 224.636719 108.023438 216.28125 112.433594 216.28125 C 116.847656 216.28125 121.710938 224.636719 125.984375 224.121094 C 130.351562 223.597656 133.089844 214.320312 137.28125 213.289062 C 141.542969 212.242188 148.269531 219.1875 152.3125 217.652344 C 156.40625 216.097656 156.832031 206.433594 160.667969 204.414062 C 164.535156 202.382812 172.738281 207.503906 176.308594 205.035156 C 179.894531 202.554688 178 193.070312 181.253906 190.183594 C 184.511719 187.296875 193.699219 190.316406 196.589844 187.058594 C 199.476562 183.800781 195.375 175.042969 197.855469 171.457031 C 200.328125 167.882812 209.972656 168.628906 212.007812 164.761719 C 214.023438 160.925781 207.949219 153.402344 209.5 149.3125 C 211.035156 145.265625 220.578125 143.671875 221.625 139.410156 C 222.652344 135.21875 214.945312 129.382812 215.46875 125.015625 C 215.984375 120.746094 224.867188 116.910156 224.867188 112.5 " fill-opacity="1" fill-rule="nonzero"/></g><path fill="#e48b8d" d="M 201.148438 118.761719 C 201.128906 118.761719 201.109375 118.761719 201.089844 118.761719 C 200.800781 118.746094 200.535156 118.621094 200.34375 118.40625 C 200.152344 118.191406 200.054688 117.917969 200.070312 117.628906 C 200.085938 117.339844 200.210938 117.078125 200.425781 116.886719 C 200.640625 116.691406 200.914062 116.59375 201.203125 116.609375 C 201.796875 116.640625 202.25 117.148438 202.222656 117.742188 C 202.191406 118.316406 201.714844 118.761719 201.148438 118.761719 Z M 201.429688 123.15625 C 201.238281 123.316406 201 123.398438 200.753906 123.398438 C 200.71875 123.398438 200.679688 123.394531 200.640625 123.390625 C 200.046875 123.328125 199.617188 122.796875 199.683594 122.207031 C 199.710938 121.921875 199.851562 121.664062 200.074219 121.484375 C 200.296875 121.304688 200.582031 121.21875 200.863281 121.25 C 201.152344 121.28125 201.410156 121.417969 201.589844 121.644531 C 201.769531 121.867188 201.855469 122.148438 201.824219 122.4375 C 201.792969 122.71875 201.652344 122.976562 201.429688 123.15625 Z M 200.75 127.800781 C 200.566406 127.9375 200.34375 128.007812 200.121094 128.007812 C 200.0625 128.007812 200.007812 128.003906 199.949219 127.996094 C 199.363281 127.898438 198.960938 127.347656 199.054688 126.761719 C 199.101562 126.476562 199.253906 126.226562 199.484375 126.058594 C 199.71875 125.886719 200.003906 125.824219 200.285156 125.867188 C 200.570312 125.910156 200.820312 126.0625 200.988281 126.296875 C 201.160156 126.53125 201.226562 126.8125 201.179688 127.097656 C 201.136719 127.382812 200.984375 127.632812 200.75 127.800781 Z M 200.296875 131.722656 C 200.234375 132.003906 200.070312 132.246094 199.828125 132.402344 C 199.652344 132.515625 199.449219 132.574219 199.242188 132.574219 C 199.167969 132.574219 199.09375 132.570312 199.019531 132.550781 C 198.4375 132.429688 198.066406 131.855469 198.1875 131.277344 C 198.3125 130.695312 198.886719 130.324219 199.464844 130.445312 C 199.746094 130.503906 199.988281 130.671875 200.144531 130.914062 C 200.300781 131.15625 200.355469 131.441406 200.296875 131.722656 Z M 199.167969 136.296875 C 199.09375 136.570312 198.917969 136.804688 198.667969 136.949219 C 198.503906 137.042969 198.316406 137.09375 198.132812 137.09375 C 198.039062 137.09375 197.941406 137.082031 197.851562 137.054688 C 197.570312 136.980469 197.339844 136.804688 197.195312 136.554688 C 197.050781 136.304688 197.015625 136.015625 197.089844 135.738281 C 197.164062 135.460938 197.34375 135.226562 197.589844 135.082031 C 197.839844 134.9375 198.132812 134.902344 198.40625 134.976562 C 198.683594 135.050781 198.917969 135.226562 199.0625 135.476562 C 199.207031 135.726562 199.242188 136.019531 199.167969 136.296875 Z M 197.804688 140.800781 C 197.714844 141.074219 197.527344 141.296875 197.269531 141.429688 C 197.117188 141.507812 196.949219 141.546875 196.78125 141.546875 C 196.671875 141.546875 196.558594 141.527344 196.445312 141.492188 C 196.175781 141.402344 195.953125 141.214844 195.820312 140.957031 C 195.691406 140.703125 195.667969 140.410156 195.757812 140.136719 C 195.847656 139.863281 196.035156 139.640625 196.292969 139.507812 C 196.550781 139.378906 196.84375 139.355469 197.113281 139.445312 C 197.390625 139.535156 197.609375 139.722656 197.742188 139.980469 C 197.871094 140.238281 197.894531 140.527344 197.804688 140.800781 Z M 196.207031 145.230469 C 196.042969 145.660156 195.632812 145.921875 195.199219 145.921875 C 195.074219 145.921875 194.941406 145.898438 194.816406 145.851562 C 194.261719 145.636719 193.984375 145.015625 194.195312 144.460938 C 194.300781 144.191406 194.5 143.976562 194.761719 143.859375 C 195.027344 143.742188 195.320312 143.734375 195.589844 143.839844 C 195.855469 143.941406 196.070312 144.144531 196.1875 144.40625 C 196.300781 144.667969 196.308594 144.960938 196.207031 145.230469 Z M 194.378906 149.570312 C 194.261719 149.832031 194.046875 150.035156 193.78125 150.136719 C 193.652344 150.1875 193.523438 150.210938 193.394531 150.210938 C 193.246094 150.210938 193.097656 150.179688 192.957031 150.117188 C 192.691406 150 192.492188 149.785156 192.390625 149.515625 C 192.285156 149.246094 192.292969 148.957031 192.414062 148.691406 C 192.53125 148.433594 192.742188 148.230469 193.007812 148.128906 C 193.277344 148.023438 193.570312 148.03125 193.832031 148.148438 C 194.09375 148.265625 194.296875 148.476562 194.402344 148.746094 C 194.503906 149.015625 194.496094 149.308594 194.378906 149.570312 Z M 192.328125 153.808594 C 192.195312 154.066406 191.972656 154.253906 191.699219 154.34375 C 191.589844 154.378906 191.480469 154.398438 191.367188 154.398438 C 191.199219 154.398438 191.03125 154.355469 190.878906 154.277344 C 190.621094 154.148438 190.433594 153.925781 190.34375 153.652344 C 190.253906 153.378906 190.277344 153.085938 190.40625 152.832031 C 190.539062 152.574219 190.757812 152.386719 191.03125 152.296875 C 191.308594 152.207031 191.601562 152.230469 191.855469 152.359375 C 192.113281 152.492188 192.300781 152.710938 192.390625 152.988281 C 192.480469 153.261719 192.457031 153.550781 192.328125 153.808594 Z M 190.199219 69.46875 C 190.03125 69.5625 189.847656 69.609375 189.660156 69.609375 C 189.566406 69.609375 189.472656 69.597656 189.382812 69.574219 C 189.101562 69.5 188.871094 69.320312 188.726562 69.070312 C 188.582031 68.824219 188.542969 68.535156 188.617188 68.253906 C 188.695312 67.976562 188.871094 67.746094 189.121094 67.601562 C 189.632812 67.304688 190.292969 67.480469 190.589844 67.996094 C 190.886719 68.507812 190.710938 69.167969 190.199219 69.464844 Z M 190.058594 157.933594 C 189.855469 158.277344 189.492188 158.472656 189.121094 158.472656 C 188.9375 158.472656 188.75 158.425781 188.585938 158.328125 C 188.335938 158.183594 188.15625 157.953125 188.082031 157.671875 C 188.007812 157.394531 188.046875 157.105469 188.191406 156.855469 C 188.332031 156.605469 188.566406 156.429688 188.84375 156.355469 C 189.121094 156.28125 189.414062 156.316406 189.660156 156.460938 C 189.910156 156.605469 190.089844 156.835938 190.164062 157.117188 C 190.238281 157.394531 190.199219 157.683594 190.058594 157.933594 Z M 187.835938 65.457031 C 187.65625 65.570312 187.453125 65.628906 187.253906 65.628906 C 186.902344 65.628906 186.554688 65.453125 186.351562 65.136719 C 186.023438 64.640625 186.167969 63.972656 186.664062 63.648438 C 187.160156 63.324219 187.832031 63.464844 188.15625 63.964844 C 188.480469 64.460938 188.335938 65.132812 187.839844 65.453125 Z M 187.570312 161.933594 C 187.414062 162.171875 187.175781 162.339844 186.894531 162.398438 C 186.816406 162.414062 186.742188 162.421875 186.664062 162.421875 C 186.460938 162.421875 186.257812 162.363281 186.082031 162.25 C 185.839844 162.09375 185.675781 161.851562 185.613281 161.570312 C 185.554688 161.289062 185.605469 161 185.765625 160.757812 C 186.085938 160.261719 186.753906 160.121094 187.253906 160.441406 C 187.75 160.765625 187.894531 161.4375 187.570312 161.933594 Z M 184.640625 61.777344 C 184.308594 61.777344 183.980469 61.625 183.769531 61.335938 C 183.601562 61.101562 183.53125 60.816406 183.574219 60.535156 C 183.621094 60.25 183.773438 60 184.007812 59.832031 C 184.242188 59.660156 184.527344 59.59375 184.808594 59.636719 C 185.09375 59.683594 185.34375 59.835938 185.511719 60.070312 C 185.859375 60.550781 185.753906 61.222656 185.273438 61.574219 C 185.082031 61.710938 184.859375 61.777344 184.640625 61.777344 Z M 184.882812 165.796875 C 184.710938 166.03125 184.460938 166.183594 184.175781 166.226562 C 184.121094 166.238281 184.0625 166.242188 184.007812 166.242188 C 183.78125 166.242188 183.5625 166.171875 183.375 166.035156 C 182.898438 165.6875 182.789062 165.011719 183.136719 164.53125 C 183.488281 164.050781 184.160156 163.941406 184.644531 164.292969 C 185.121094 164.640625 185.230469 165.316406 184.882812 165.796875 Z M 182.507812 57.832031 C 182.308594 57.992188 182.070312 58.070312 181.832031 58.070312 C 181.515625 58.070312 181.207031 57.933594 180.992188 57.671875 C 180.8125 57.445312 180.730469 57.167969 180.757812 56.882812 C 180.789062 56.59375 180.929688 56.335938 181.152344 56.15625 C 181.375 55.976562 181.660156 55.890625 181.945312 55.921875 C 182.230469 55.953125 182.488281 56.09375 182.667969 56.316406 C 182.847656 56.539062 182.929688 56.820312 182.902344 57.105469 C 182.871094 57.390625 182.730469 57.648438 182.507812 57.832031 Z M 181.992188 169.515625 C 181.777344 169.777344 181.46875 169.914062 181.152344 169.914062 C 180.914062 169.914062 180.675781 169.835938 180.476562 169.675781 C 180.015625 169.300781 179.945312 168.621094 180.320312 168.160156 C 180.691406 167.699219 181.371094 167.628906 181.832031 168 C 182.292969 168.375 182.367188 169.054688 181.992188 169.515625 Z M 179.550781 54.238281 C 179.34375 54.421875 179.089844 54.515625 178.832031 54.515625 C 178.535156 54.515625 178.242188 54.394531 178.03125 54.160156 C 177.835938 53.945312 177.738281 53.667969 177.753906 53.382812 C 177.769531 53.09375 177.894531 52.832031 178.109375 52.636719 C 178.550781 52.242188 179.230469 52.277344 179.628906 52.714844 C 180.027344 53.15625 179.992188 53.839844 179.550781 54.238281 Z M 178.914062 173.078125 C 178.722656 173.292969 178.457031 173.417969 178.167969 173.433594 C 178.148438 173.433594 178.128906 173.433594 178.109375 173.433594 C 177.84375 173.433594 177.589844 173.339844 177.394531 173.160156 C 176.949219 172.761719 176.914062 172.078125 177.3125 171.636719 C 177.710938 171.195312 178.394531 171.160156 178.832031 171.558594 C 179.046875 171.75 179.171875 172.015625 179.1875 172.300781 C 179.203125 172.589844 179.105469 172.863281 178.914062 173.078125 Z M 176.410156 50.804688 C 176.199219 51.015625 175.925781 51.121094 175.648438 51.121094 C 175.371094 51.121094 175.097656 51.015625 174.886719 50.804688 C 174.46875 50.386719 174.46875 49.703125 174.886719 49.28125 C 175.308594 48.863281 175.992188 48.863281 176.410156 49.28125 C 176.828125 49.703125 176.828125 50.386719 176.410156 50.804688 Z M 175.652344 176.472656 C 175.441406 176.683594 175.164062 176.789062 174.890625 176.789062 C 174.613281 176.789062 174.339844 176.683594 174.128906 176.472656 C 173.707031 176.054688 173.707031 175.371094 174.128906 174.949219 C 174.546875 174.53125 175.230469 174.53125 175.652344 174.949219 C 176.070312 175.371094 176.070312 176.054688 175.652344 176.472656 Z M 173.09375 47.542969 C 172.878906 47.777344 172.585938 47.898438 172.292969 47.898438 C 172.035156 47.898438 171.777344 47.808594 171.574219 47.621094 C 171.132812 47.222656 171.097656 46.542969 171.492188 46.101562 C 171.894531 45.660156 172.574219 45.625 173.015625 46.019531 C 173.457031 46.417969 173.492188 47.101562 173.09375 47.542969 Z M 172.214844 179.695312 C 172.015625 179.875 171.761719 179.972656 171.496094 179.972656 C 171.476562 179.972656 171.457031 179.972656 171.4375 179.96875 C 171.152344 179.957031 170.886719 179.828125 170.695312 179.617188 C 170.300781 179.175781 170.332031 178.492188 170.773438 178.09375 C 171.214844 177.699219 171.898438 177.730469 172.296875 178.175781 C 172.488281 178.386719 172.585938 178.664062 172.570312 178.949219 C 172.554688 179.238281 172.429688 179.503906 172.214844 179.695312 Z M 169.609375 44.457031 C 169.398438 44.71875 169.085938 44.855469 168.773438 44.855469 C 168.535156 44.855469 168.292969 44.777344 168.097656 44.617188 C 167.871094 44.433594 167.730469 44.175781 167.703125 43.890625 C 167.671875 43.605469 167.757812 43.324219 167.9375 43.101562 C 168.3125 42.636719 168.992188 42.570312 169.453125 42.941406 C 169.914062 43.316406 169.984375 43.992188 169.609375 44.457031 Z M 168.617188 182.730469 C 168.417969 182.894531 168.179688 182.972656 167.941406 182.972656 C 167.628906 182.972656 167.316406 182.835938 167.101562 182.574219 L 167.101562 182.570312 C 166.730469 182.109375 166.800781 181.429688 167.261719 181.058594 C 167.726562 180.683594 168.402344 180.757812 168.777344 181.21875 C 168.957031 181.441406 169.039062 181.722656 169.011719 182.007812 C 168.980469 182.292969 168.84375 182.550781 168.617188 182.730469 Z M 165.972656 41.558594 C 165.800781 41.789062 165.550781 41.945312 165.265625 41.988281 C 165.210938 41.996094 165.152344 42 165.097656 42 C 164.871094 42 164.652344 41.929688 164.464844 41.796875 C 164.234375 41.625 164.082031 41.375 164.035156 41.09375 C 163.992188 40.808594 164.058594 40.523438 164.226562 40.292969 C 164.398438 40.058594 164.648438 39.90625 164.933594 39.859375 C 165.214844 39.816406 165.5 39.886719 165.730469 40.054688 C 165.964844 40.222656 166.117188 40.472656 166.164062 40.757812 C 166.210938 41.039062 166.140625 41.324219 165.972656 41.558594 Z M 164.863281 185.574219 C 164.675781 185.714844 164.453125 185.78125 164.234375 185.78125 C 163.902344 185.78125 163.570312 185.628906 163.359375 185.335938 C 163.011719 184.855469 163.117188 184.183594 163.597656 183.835938 C 164.078125 183.484375 164.753906 183.589844 165.101562 184.070312 C 165.453125 184.550781 165.34375 185.226562 164.863281 185.574219 Z M 162.1875 38.851562 L 162.183594 38.851562 C 162.027344 39.09375 161.789062 39.261719 161.507812 39.320312 C 161.429688 39.335938 161.355469 39.34375 161.28125 39.34375 C 161.074219 39.34375 160.871094 39.285156 160.695312 39.167969 C 160.453125 39.011719 160.289062 38.769531 160.230469 38.488281 C 160.167969 38.210938 160.222656 37.921875 160.378906 37.679688 C 160.535156 37.4375 160.777344 37.273438 161.058594 37.214844 C 161.339844 37.152344 161.628906 37.207031 161.867188 37.363281 C 162.367188 37.6875 162.507812 38.351562 162.1875 38.851562 Z M 160.96875 188.21875 C 160.789062 188.335938 160.585938 188.394531 160.382812 188.394531 C 160.03125 188.394531 159.683594 188.222656 159.480469 187.902344 L 159.476562 187.902344 C 159.324219 187.660156 159.269531 187.375 159.328125 187.09375 C 159.386719 186.8125 159.554688 186.570312 159.796875 186.414062 C 160.039062 186.257812 160.328125 186.203125 160.605469 186.261719 C 160.886719 186.324219 161.128906 186.488281 161.285156 186.730469 C 161.609375 187.226562 161.46875 187.894531 160.96875 188.21875 Z M 158.261719 36.347656 C 158.121094 36.597656 157.886719 36.777344 157.609375 36.851562 C 157.515625 36.875 157.421875 36.890625 157.328125 36.890625 C 157.140625 36.890625 156.957031 36.839844 156.789062 36.742188 C 156.277344 36.449219 156.101562 35.785156 156.394531 35.273438 C 156.539062 35.023438 156.773438 34.847656 157.050781 34.769531 C 157.328125 34.695312 157.617188 34.734375 157.867188 34.878906 C 158.382812 35.175781 158.558594 35.835938 158.261719 36.347656 Z M 156.941406 190.65625 C 156.773438 190.753906 156.589844 190.800781 156.402344 190.800781 C 156.308594 190.800781 156.214844 190.789062 156.121094 190.761719 C 155.84375 190.691406 155.609375 190.511719 155.464844 190.261719 C 155.324219 190.011719 155.285156 189.722656 155.359375 189.445312 C 155.433594 189.167969 155.613281 188.933594 155.863281 188.789062 C 156.109375 188.648438 156.398438 188.609375 156.679688 188.683594 C 156.957031 188.757812 157.1875 188.9375 157.335938 189.183594 C 157.628906 189.699219 157.453125 190.359375 156.941406 190.65625 Z M 154.214844 34.054688 L 154.214844 34.058594 C 154.023438 34.429688 153.644531 34.644531 153.253906 34.644531 C 153.089844 34.644531 152.921875 34.605469 152.765625 34.527344 C 152.238281 34.257812 152.027344 33.605469 152.296875 33.078125 C 152.566406 32.550781 153.214844 32.335938 153.742188 32.605469 C 154.273438 32.875 154.484375 33.527344 154.214844 34.054688 Z M 153.324219 192.25 C 153.234375 192.523438 153.042969 192.746094 152.789062 192.878906 C 152.632812 192.957031 152.46875 192.996094 152.300781 192.996094 C 152.1875 192.996094 152.074219 192.976562 151.964844 192.941406 C 151.691406 192.855469 151.46875 192.664062 151.339844 192.40625 C 151.070312 191.878906 151.28125 191.230469 151.808594 190.960938 C 152.066406 190.828125 152.355469 190.804688 152.632812 190.894531 C 152.90625 190.984375 153.128906 191.171875 153.257812 191.429688 C 153.390625 191.683594 153.410156 191.976562 153.324219 192.25 Z M 150.050781 31.976562 C 149.933594 32.238281 149.722656 32.441406 149.453125 32.542969 C 149.328125 32.59375 149.199219 32.617188 149.066406 32.617188 C 148.917969 32.617188 148.769531 32.585938 148.628906 32.523438 C 148.367188 32.40625 148.164062 32.195312 148.0625 31.925781 C 147.957031 31.65625 147.964844 31.363281 148.085938 31.101562 C 148.199219 30.839844 148.410156 30.636719 148.683594 30.53125 C 148.949219 30.429688 149.246094 30.4375 149.503906 30.554688 C 149.769531 30.671875 149.96875 30.882812 150.074219 31.152344 C 150.175781 31.421875 150.167969 31.714844 150.050781 31.976562 Z M 148.527344 194.878906 C 148.382812 194.941406 148.234375 194.972656 148.089844 194.972656 C 147.675781 194.972656 147.28125 194.734375 147.101562 194.335938 C 146.863281 193.792969 147.109375 193.152344 147.648438 192.910156 C 148.191406 192.675781 148.832031 192.917969 149.070312 193.457031 C 149.3125 194 149.066406 194.636719 148.527344 194.878906 Z M 145.785156 30.117188 L 145.785156 30.121094 C 145.683594 30.386719 145.480469 30.601562 145.21875 30.71875 C 145.078125 30.777344 144.929688 30.808594 144.78125 30.808594 C 144.652344 30.808594 144.519531 30.785156 144.394531 30.738281 C 144.125 30.636719 143.914062 30.433594 143.796875 30.167969 C 143.679688 29.90625 143.671875 29.613281 143.773438 29.347656 C 143.875 29.078125 144.078125 28.867188 144.339844 28.75 C 144.601562 28.632812 144.898438 28.625 145.164062 28.726562 C 145.71875 28.9375 146 29.5625 145.785156 30.117188 Z M 144.761719 196.089844 C 144.644531 196.351562 144.433594 196.554688 144.164062 196.65625 C 144.039062 196.703125 143.910156 196.730469 143.78125 196.730469 C 143.628906 196.730469 143.480469 196.695312 143.339844 196.632812 C 143.078125 196.515625 142.875 196.304688 142.773438 196.035156 C 142.5625 195.480469 142.839844 194.859375 143.394531 194.644531 C 143.945312 194.429688 144.570312 194.710938 144.785156 195.265625 C 144.886719 195.535156 144.878906 195.824219 144.761719 196.089844 Z M 141.429688 28.488281 C 141.339844 28.761719 141.148438 28.980469 140.894531 29.113281 C 140.738281 29.191406 140.574219 29.230469 140.40625 29.230469 C 140.292969 29.230469 140.179688 29.214844 140.070312 29.175781 C 139.796875 29.089844 139.574219 28.898438 139.445312 28.640625 C 139.3125 28.386719 139.292969 28.09375 139.378906 27.820312 C 139.5625 27.257812 140.175781 26.945312 140.734375 27.128906 C 141.011719 27.21875 141.234375 27.410156 141.363281 27.664062 C 141.496094 27.921875 141.515625 28.214844 141.429688 28.488281 Z M 140.34375 197.667969 C 140.210938 197.921875 139.992188 198.113281 139.71875 198.203125 C 139.609375 198.238281 139.496094 198.253906 139.382812 198.253906 C 139.214844 198.253906 139.046875 198.214844 138.894531 198.136719 C 138.636719 198.007812 138.449219 197.785156 138.359375 197.511719 C 138.269531 197.234375 138.292969 196.945312 138.425781 196.6875 C 138.554688 196.433594 138.777344 196.242188 139.050781 196.152344 C 139.621094 195.972656 140.222656 196.28125 140.410156 196.84375 C 140.496094 197.117188 140.476562 197.410156 140.34375 197.667969 Z M 136.992188 27.085938 C 136.917969 27.363281 136.738281 27.59375 136.492188 27.738281 C 136.324219 27.832031 136.140625 27.882812 135.953125 27.882812 C 135.859375 27.882812 135.765625 27.871094 135.671875 27.84375 C 135.394531 27.769531 135.164062 27.59375 135.019531 27.34375 C 134.875 27.09375 134.835938 26.804688 134.914062 26.527344 C 134.984375 26.25 135.164062 26.015625 135.410156 25.871094 C 135.664062 25.730469 135.953125 25.691406 136.230469 25.765625 C 136.507812 25.839844 136.742188 26.019531 136.882812 26.265625 C 137.027344 26.515625 137.066406 26.808594 136.992188 27.085938 Z M 135.847656 199.007812 C 135.703125 199.257812 135.472656 199.4375 135.195312 199.511719 C 135.101562 199.535156 135.007812 199.546875 134.917969 199.546875 C 134.441406 199.546875 134.003906 199.230469 133.875 198.75 C 133.722656 198.175781 134.066406 197.585938 134.636719 197.433594 C 135.207031 197.273438 135.800781 197.617188 135.953125 198.191406 C 136.03125 198.46875 135.992188 198.761719 135.847656 199.007812 Z M 132.488281 25.914062 C 132.429688 26.195312 132.261719 26.4375 132.023438 26.59375 C 131.84375 26.707031 131.644531 26.769531 131.4375 26.769531 C 131.363281 26.769531 131.285156 26.761719 131.210938 26.746094 C 130.628906 26.621094 130.257812 26.050781 130.378906 25.46875 C 130.441406 25.1875 130.605469 24.945312 130.847656 24.789062 C 131.089844 24.632812 131.371094 24.578125 131.660156 24.636719 C 132.238281 24.761719 132.609375 25.335938 132.488281 25.914062 Z M 130.613281 200.585938 C 130.535156 200.601562 130.460938 200.609375 130.386719 200.609375 C 129.886719 200.609375 129.4375 200.257812 129.332031 199.753906 C 129.273438 199.472656 129.324219 199.183594 129.484375 198.945312 C 129.640625 198.703125 129.878906 198.535156 130.160156 198.476562 C 130.4375 198.417969 130.730469 198.46875 130.972656 198.625 C 131.214844 198.78125 131.378906 199.023438 131.4375 199.304688 C 131.5625 199.886719 131.191406 200.457031 130.613281 200.585938 Z M 126.863281 25.894531 C 126.808594 25.894531 126.753906 25.890625 126.699219 25.878906 C 126.109375 25.789062 125.707031 25.234375 125.800781 24.648438 C 125.894531 24.0625 126.445312 23.660156 127.03125 23.753906 C 127.316406 23.796875 127.566406 23.949219 127.738281 24.183594 C 127.90625 24.414062 127.972656 24.699219 127.929688 24.984375 C 127.84375 25.511719 127.386719 25.894531 126.863281 25.894531 Z M 126.675781 200.984375 C 126.507812 201.214844 126.257812 201.367188 125.972656 201.414062 C 125.917969 201.421875 125.863281 201.425781 125.804688 201.425781 C 125.285156 201.425781 124.824219 201.046875 124.742188 200.519531 C 124.652344 199.933594 125.050781 199.378906 125.636719 199.285156 C 125.917969 199.246094 126.207031 199.308594 126.4375 199.480469 C 126.671875 199.648438 126.824219 199.898438 126.871094 200.183594 C 126.914062 200.464844 126.847656 200.75 126.675781 200.984375 Z M 123.328125 24.292969 C 123.269531 24.847656 122.796875 25.257812 122.257812 25.257812 C 122.21875 25.257812 122.183594 25.257812 122.144531 25.253906 C 121.554688 25.191406 121.125 24.660156 121.1875 24.070312 C 121.25 23.480469 121.773438 23.050781 122.367188 23.109375 C 122.960938 23.171875 123.390625 23.703125 123.328125 24.292969 Z M 122.027344 201.605469 C 121.847656 201.832031 121.589844 201.96875 121.304688 202 C 121.265625 202.003906 121.226562 202.007812 121.1875 202.007812 C 120.941406 202.007812 120.707031 201.921875 120.511719 201.765625 C 120.289062 201.585938 120.148438 201.328125 120.121094 201.042969 C 120.089844 200.757812 120.171875 200.476562 120.351562 200.253906 C 120.53125 200.027344 120.789062 199.890625 121.078125 199.859375 C 121.359375 199.828125 121.644531 199.910156 121.867188 200.09375 C 122.089844 200.273438 122.230469 200.53125 122.261719 200.816406 C 122.289062 201.101562 122.207031 201.382812 122.027344 201.605469 Z M 118.339844 24.589844 C 118.140625 24.769531 117.886719 24.867188 117.621094 24.867188 C 117.605469 24.867188 117.582031 24.863281 117.566406 24.863281 C 117.277344 24.847656 117.011719 24.722656 116.820312 24.507812 C 116.628906 24.292969 116.53125 24.019531 116.546875 23.730469 C 116.5625 23.445312 116.6875 23.179688 116.902344 22.988281 C 117.113281 22.796875 117.394531 22.695312 117.675781 22.710938 C 117.964844 22.726562 118.226562 22.855469 118.421875 23.066406 C 118.613281 23.28125 118.710938 23.558594 118.695312 23.84375 C 118.679688 24.132812 118.554688 24.398438 118.339844 24.589844 Z M 117.351562 201.988281 C 117.15625 202.199219 116.894531 202.328125 116.605469 202.339844 C 116.585938 202.34375 116.566406 202.34375 116.546875 202.34375 C 116.28125 202.34375 116.027344 202.246094 115.828125 202.066406 C 115.617188 201.875 115.488281 201.609375 115.472656 201.324219 L 115.472656 201.320312 C 115.445312 200.730469 115.902344 200.222656 116.492188 200.191406 C 116.777344 200.179688 117.058594 200.273438 117.269531 200.46875 C 117.484375 200.660156 117.609375 200.921875 117.625 201.210938 C 117.640625 201.496094 117.542969 201.773438 117.351562 201.988281 Z M 112.972656 24.714844 C 112.378906 24.714844 111.894531 24.234375 111.894531 23.640625 C 111.894531 23.042969 112.378906 22.5625 112.972656 22.5625 C 113.5625 22.5625 114.046875 23.042969 114.046875 23.640625 C 114.046875 24.234375 113.5625 24.714844 112.972656 24.714844 Z M 111.898438 202.4375 C 111.304688 202.4375 110.820312 201.953125 110.820312 201.359375 C 110.820312 200.765625 111.304688 200.28125 111.898438 200.28125 C 112.492188 200.28125 112.976562 200.765625 112.976562 201.359375 C 112.976562 201.953125 112.492188 202.4375 111.898438 202.4375 Z M 109.394531 23.675781 C 109.410156 23.960938 109.3125 24.238281 109.121094 24.453125 C 108.925781 24.667969 108.664062 24.792969 108.375 24.808594 C 108.359375 24.808594 108.339844 24.808594 108.320312 24.808594 C 108.050781 24.808594 107.796875 24.710938 107.597656 24.53125 C 107.386719 24.339844 107.257812 24.074219 107.242188 23.789062 C 107.230469 23.5 107.328125 23.226562 107.519531 23.011719 C 107.710938 22.796875 107.976562 22.671875 108.261719 22.65625 C 108.558594 22.648438 108.828125 22.738281 109.039062 22.929688 C 109.253906 23.125 109.378906 23.386719 109.394531 23.675781 Z M 107.246094 202.289062 C 107.230469 202.289062 107.210938 202.289062 107.195312 202.285156 C 106.597656 202.253906 106.140625 201.746094 106.171875 201.15625 C 106.1875 200.867188 106.3125 200.601562 106.527344 200.410156 C 106.742188 200.214844 107.007812 200.117188 107.304688 200.136719 C 107.898438 200.167969 108.355469 200.675781 108.324219 201.265625 C 108.292969 201.839844 107.816406 202.289062 107.246094 202.289062 Z M 103.792969 25.140625 C 103.753906 25.144531 103.714844 25.144531 103.675781 25.144531 C 103.429688 25.144531 103.195312 25.0625 103.003906 24.90625 C 102.777344 24.722656 102.640625 24.46875 102.609375 24.179688 C 102.578125 23.894531 102.660156 23.613281 102.84375 23.390625 C 103.023438 23.167969 103.28125 23.027344 103.566406 23 C 103.851562 22.964844 104.132812 23.050781 104.355469 23.230469 C 104.582031 23.414062 104.71875 23.671875 104.75 23.957031 C 104.8125 24.546875 104.382812 25.078125 103.792969 25.140625 Z M 103.289062 201.65625 C 103.097656 201.8125 102.859375 201.894531 102.617188 201.894531 C 102.578125 201.894531 102.539062 201.890625 102.5 201.886719 C 102.214844 201.859375 101.957031 201.71875 101.777344 201.496094 C 101.59375 201.273438 101.511719 200.992188 101.542969 200.707031 L 101.542969 200.703125 C 101.570312 200.417969 101.710938 200.160156 101.9375 199.980469 C 102.160156 199.796875 102.441406 199.714844 102.726562 199.746094 C 103.011719 199.777344 103.269531 199.914062 103.449219 200.140625 C 103.628906 200.363281 103.714844 200.644531 103.683594 200.929688 C 103.652344 201.214844 103.511719 201.472656 103.289062 201.65625 Z M 99.933594 25.28125 C 99.765625 25.511719 99.515625 25.667969 99.230469 25.710938 C 99.175781 25.71875 99.117188 25.726562 99.0625 25.726562 C 98.542969 25.726562 98.085938 25.347656 98 24.816406 C 97.953125 24.53125 98.023438 24.246094 98.191406 24.015625 C 98.363281 23.78125 98.613281 23.628906 98.894531 23.585938 C 99.484375 23.492188 100.035156 23.894531 100.125 24.480469 C 100.171875 24.761719 100.105469 25.046875 99.933594 25.28125 Z M 98.003906 201.257812 C 97.949219 201.257812 97.890625 201.253906 97.835938 201.246094 C 97.25 201.152344 96.847656 200.601562 96.941406 200.015625 C 97.035156 199.425781 97.585938 199.03125 98.171875 199.117188 C 98.757812 199.210938 99.160156 199.765625 99.066406 200.351562 C 98.984375 200.882812 98.523438 201.257812 98.003906 201.257812 Z M 94.707031 26.523438 C 94.632812 26.539062 94.558594 26.546875 94.484375 26.546875 C 93.988281 26.546875 93.539062 26.199219 93.429688 25.691406 C 93.308594 25.113281 93.679688 24.539062 94.261719 24.414062 C 94.835938 24.292969 95.414062 24.664062 95.539062 25.246094 C 95.660156 25.824219 95.289062 26.398438 94.707031 26.523438 Z M 94.488281 199.53125 C 94.425781 199.8125 94.261719 200.054688 94.019531 200.210938 C 93.84375 200.324219 93.644531 200.382812 93.4375 200.382812 C 93.363281 200.382812 93.285156 200.375 93.210938 200.359375 C 92.929688 200.300781 92.6875 200.136719 92.53125 199.894531 C 92.375 199.652344 92.320312 199.363281 92.382812 199.082031 C 92.503906 198.503906 93.074219 198.132812 93.65625 198.253906 C 94.238281 198.378906 94.609375 198.949219 94.488281 199.53125 Z M 90.886719 27.066406 C 90.742188 27.3125 90.511719 27.492188 90.234375 27.566406 C 90.140625 27.59375 90.046875 27.605469 89.953125 27.605469 C 89.480469 27.605469 89.042969 27.289062 88.914062 26.808594 C 88.761719 26.230469 89.101562 25.640625 89.675781 25.488281 C 89.953125 25.410156 90.242188 25.449219 90.492188 25.59375 C 90.742188 25.738281 90.917969 25.972656 90.992188 26.25 C 91.066406 26.527344 91.03125 26.816406 90.886719 27.066406 Z M 89.957031 198.472656 C 89.882812 198.75 89.703125 198.984375 89.457031 199.125 C 89.289062 199.222656 89.105469 199.269531 88.917969 199.269531 C 88.824219 199.269531 88.730469 199.257812 88.636719 199.234375 C 88.363281 199.160156 88.128906 198.980469 87.984375 198.734375 C 87.839844 198.484375 87.800781 198.191406 87.878906 197.914062 C 88.03125 197.339844 88.625 197 89.195312 197.152344 C 89.769531 197.308594 90.113281 197.898438 89.957031 198.472656 Z M 86.445312 28.308594 C 86.3125 28.566406 86.089844 28.757812 85.816406 28.847656 C 85.707031 28.882812 85.597656 28.898438 85.484375 28.898438 C 85.316406 28.898438 85.148438 28.859375 84.996094 28.78125 C 84.738281 28.652344 84.550781 28.429688 84.460938 28.152344 C 84.277344 27.589844 84.589844 26.980469 85.152344 26.796875 C 85.71875 26.613281 86.324219 26.925781 86.511719 27.488281 C 86.597656 27.761719 86.574219 28.054688 86.445312 28.308594 Z M 85.488281 197.179688 C 85.402344 197.453125 85.210938 197.675781 84.953125 197.804688 C 84.800781 197.882812 84.632812 197.921875 84.46875 197.921875 C 84.355469 197.921875 84.242188 197.90625 84.132812 197.871094 C 83.566406 197.6875 83.257812 197.078125 83.441406 196.511719 C 83.625 195.949219 84.234375 195.636719 84.796875 195.820312 C 85.363281 196.003906 85.671875 196.613281 85.488281 197.179688 Z M 82.074219 29.785156 C 81.957031 30.050781 81.746094 30.25 81.476562 30.355469 C 81.351562 30.402344 81.21875 30.425781 81.089844 30.425781 C 80.941406 30.425781 80.792969 30.394531 80.652344 30.332031 C 80.390625 30.214844 80.1875 30.003906 80.085938 29.734375 C 79.980469 29.464844 79.988281 29.171875 80.105469 28.910156 C 80.222656 28.648438 80.4375 28.445312 80.703125 28.34375 C 80.972656 28.238281 81.265625 28.246094 81.527344 28.363281 C 81.789062 28.480469 81.992188 28.695312 82.09375 28.960938 C 82.199219 29.230469 82.191406 29.523438 82.074219 29.785156 Z M 81.09375 195.652344 C 80.929688 196.078125 80.519531 196.34375 80.085938 196.34375 C 79.960938 196.34375 79.828125 196.320312 79.703125 196.269531 C 79.148438 196.058594 78.871094 195.433594 79.082031 194.882812 C 79.296875 194.328125 79.921875 194.046875 80.472656 194.261719 C 81.027344 194.472656 81.308594 195.097656 81.09375 195.652344 Z M 77.785156 31.488281 C 77.683594 31.757812 77.484375 31.96875 77.21875 32.085938 C 77.078125 32.148438 76.929688 32.179688 76.78125 32.179688 C 76.652344 32.179688 76.523438 32.15625 76.394531 32.109375 C 76.128906 32.003906 75.914062 31.804688 75.796875 31.539062 C 75.679688 31.277344 75.671875 30.984375 75.777344 30.71875 C 75.878906 30.449219 76.082031 30.234375 76.34375 30.117188 C 76.605469 30 76.898438 29.992188 77.167969 30.097656 C 77.4375 30.199219 77.648438 30.402344 77.765625 30.664062 C 77.882812 30.925781 77.890625 31.21875 77.785156 31.488281 Z M 76.785156 193.898438 C 76.667969 194.160156 76.457031 194.363281 76.1875 194.464844 C 76.0625 194.515625 75.933594 194.535156 75.800781 194.535156 C 75.652344 194.535156 75.503906 194.507812 75.363281 194.445312 C 75.101562 194.328125 74.898438 194.113281 74.796875 193.84375 C 74.691406 193.578125 74.699219 193.285156 74.816406 193.023438 C 74.933594 192.757812 75.148438 192.554688 75.417969 192.453125 C 75.6875 192.351562 75.980469 192.359375 76.242188 192.476562 C 76.78125 192.71875 77.027344 193.355469 76.785156 193.898438 Z M 73.058594 34.039062 C 72.902344 34.117188 72.738281 34.15625 72.574219 34.15625 C 72.179688 34.15625 71.800781 33.941406 71.609375 33.570312 C 71.480469 33.3125 71.457031 33.019531 71.546875 32.746094 C 71.636719 32.472656 71.824219 32.25 72.082031 32.121094 C 72.339844 31.992188 72.628906 31.96875 72.902344 32.054688 C 73.175781 32.144531 73.398438 32.335938 73.53125 32.589844 C 73.800781 33.121094 73.589844 33.769531 73.058594 34.039062 Z M 72.574219 191.921875 C 72.441406 192.175781 72.21875 192.367188 71.945312 192.457031 C 71.835938 192.492188 71.722656 192.507812 71.613281 192.507812 C 71.445312 192.507812 71.277344 192.46875 71.125 192.390625 C 70.871094 192.261719 70.679688 192.039062 70.589844 191.765625 C 70.5 191.492188 70.523438 191.199219 70.65625 190.941406 C 70.785156 190.683594 71.007812 190.496094 71.285156 190.40625 C 71.554688 190.316406 71.847656 190.34375 72.105469 190.472656 C 72.359375 190.601562 72.550781 190.824219 72.640625 191.097656 C 72.726562 191.371094 72.703125 191.664062 72.574219 191.921875 Z M 69.007812 36.207031 C 68.835938 36.304688 68.652344 36.351562 68.46875 36.351562 C 68.097656 36.351562 67.734375 36.160156 67.535156 35.8125 C 67.390625 35.566406 67.355469 35.273438 67.429688 34.996094 C 67.503906 34.71875 67.679688 34.484375 67.929688 34.34375 C 68.445312 34.046875 69.105469 34.222656 69.402344 34.738281 C 69.699219 35.25 69.519531 35.910156 69.007812 36.207031 Z M 68.472656 189.726562 C 68.273438 190.070312 67.910156 190.265625 67.539062 190.265625 C 67.355469 190.265625 67.171875 190.21875 67 190.121094 C 66.488281 189.820312 66.308594 189.164062 66.605469 188.648438 C 66.75 188.398438 66.984375 188.21875 67.261719 188.148438 C 67.535156 188.074219 67.832031 188.109375 68.078125 188.253906 C 68.328125 188.398438 68.503906 188.628906 68.578125 188.910156 C 68.652344 189.1875 68.617188 189.476562 68.472656 189.726562 Z M 65.074219 38.585938 C 64.894531 38.703125 64.691406 38.757812 64.488281 38.757812 C 64.136719 38.757812 63.789062 38.585938 63.585938 38.269531 C 63.261719 37.769531 63.402344 37.101562 63.902344 36.777344 C 64.398438 36.453125 65.066406 36.597656 65.390625 37.097656 C 65.714844 37.59375 65.570312 38.261719 65.074219 38.585938 Z M 64.492188 187.320312 C 64.332031 187.558594 64.09375 187.726562 63.8125 187.785156 C 63.734375 187.800781 63.660156 187.808594 63.585938 187.808594 C 63.378906 187.808594 63.175781 187.75 63 187.632812 C 62.761719 187.480469 62.59375 187.238281 62.535156 186.957031 C 62.472656 186.675781 62.527344 186.390625 62.683594 186.148438 C 62.839844 185.90625 63.082031 185.738281 63.363281 185.679688 C 63.644531 185.617188 63.933594 185.671875 64.175781 185.828125 C 64.414062 185.984375 64.582031 186.226562 64.640625 186.507812 C 64.699219 186.789062 64.648438 187.078125 64.492188 187.320312 Z M 61.269531 41.164062 C 61.078125 41.304688 60.859375 41.371094 60.640625 41.371094 C 60.304688 41.371094 59.976562 41.214844 59.765625 40.925781 C 59.597656 40.695312 59.527344 40.410156 59.574219 40.125 C 59.617188 39.839844 59.773438 39.589844 60.003906 39.421875 C 60.488281 39.074219 61.160156 39.183594 61.507812 39.660156 C 61.679688 39.894531 61.746094 40.179688 61.703125 40.460938 C 61.65625 40.746094 61.503906 40.996094 61.269531 41.164062 Z M 60.640625 184.707031 C 60.429688 184.996094 60.101562 185.148438 59.765625 185.148438 C 59.550781 185.148438 59.328125 185.082031 59.136719 184.945312 C 58.65625 184.597656 58.550781 183.921875 58.898438 183.441406 C 59.246094 182.960938 59.917969 182.855469 60.402344 183.203125 C 60.636719 183.371094 60.789062 183.621094 60.832031 183.90625 C 60.878906 184.191406 60.808594 184.476562 60.640625 184.707031 Z M 57.605469 43.941406 C 57.40625 44.101562 57.167969 44.179688 56.929688 44.179688 C 56.617188 44.179688 56.304688 44.042969 56.09375 43.78125 C 55.71875 43.320312 55.789062 42.640625 56.253906 42.265625 C 56.714844 41.894531 57.394531 41.964844 57.765625 42.425781 C 58.140625 42.886719 58.070312 43.566406 57.605469 43.941406 Z M 56.933594 181.898438 C 56.722656 182.160156 56.410156 182.296875 56.09375 182.296875 C 55.855469 182.296875 55.617188 182.21875 55.417969 182.058594 C 54.957031 181.683594 54.886719 181.003906 55.257812 180.542969 C 55.441406 180.320312 55.699219 180.179688 55.984375 180.148438 C 56.269531 180.117188 56.550781 180.203125 56.773438 180.382812 C 57.234375 180.757812 57.304688 181.433594 56.933594 181.898438 Z M 54.09375 46.902344 C 53.886719 47.089844 53.628906 47.179688 53.375 47.179688 C 53.078125 47.179688 52.785156 47.058594 52.574219 46.824219 C 52.175781 46.382812 52.210938 45.699219 52.652344 45.304688 C 53.09375 44.90625 53.777344 44.941406 54.175781 45.382812 C 54.570312 45.824219 54.535156 46.507812 54.09375 46.902344 Z M 53.375 178.898438 C 53.183594 179.113281 52.921875 179.238281 52.632812 179.253906 C 52.613281 179.253906 52.59375 179.253906 52.574219 179.253906 C 52.308594 179.253906 52.054688 179.15625 51.855469 178.976562 C 51.640625 178.785156 51.515625 178.519531 51.5 178.234375 C 51.484375 177.945312 51.582031 177.671875 51.777344 177.457031 C 51.96875 177.242188 52.230469 177.117188 52.519531 177.101562 C 52.800781 177.085938 53.082031 177.183594 53.296875 177.378906 C 53.738281 177.773438 53.773438 178.457031 53.375 178.898438 Z M 50.742188 50.046875 C 50.539062 50.25 50.269531 50.363281 49.980469 50.363281 C 49.691406 50.363281 49.421875 50.25 49.21875 50.046875 C 48.796875 49.628906 48.796875 48.945312 49.21875 48.523438 C 49.421875 48.320312 49.691406 48.207031 49.980469 48.207031 C 50.269531 48.207031 50.539062 48.320312 50.742188 48.523438 C 50.945312 48.726562 51.058594 49 51.058594 49.285156 C 51.054688 49.574219 50.945312 49.84375 50.742188 50.046875 Z M 49.980469 175.714844 C 49.78125 175.917969 49.511719 176.03125 49.222656 176.03125 C 48.933594 176.03125 48.664062 175.917969 48.460938 175.714844 C 48.257812 175.511719 48.144531 175.242188 48.144531 174.953125 C 48.144531 174.667969 48.257812 174.398438 48.460938 174.191406 C 48.664062 173.988281 48.933594 173.878906 49.222656 173.878906 C 49.511719 173.878906 49.78125 173.992188 49.984375 174.195312 C 50.1875 174.394531 50.296875 174.664062 50.296875 174.953125 C 50.296875 175.242188 50.1875 175.511719 49.980469 175.714844 Z M 47.558594 53.363281 C 47.34375 53.597656 47.050781 53.71875 46.757812 53.71875 C 46.5 53.71875 46.242188 53.625 46.035156 53.441406 C 45.59375 53.042969 45.558594 52.363281 45.957031 51.921875 C 46.351562 51.480469 47.035156 51.441406 47.476562 51.839844 C 47.691406 52.03125 47.816406 52.296875 47.832031 52.585938 C 47.847656 52.871094 47.75 53.148438 47.558594 53.363281 Z M 46.761719 172.359375 C 46.5625 172.539062 46.308594 172.636719 46.039062 172.636719 C 46.019531 172.636719 46 172.636719 45.984375 172.636719 C 45.695312 172.621094 45.429688 172.496094 45.238281 172.28125 C 45.046875 172.066406 44.949219 171.792969 44.964844 171.503906 C 44.980469 171.214844 45.105469 170.953125 45.316406 170.761719 C 45.757812 170.363281 46.441406 170.398438 46.839844 170.839844 C 47.238281 171.28125 47.199219 171.964844 46.761719 172.359375 Z M 44.550781 56.839844 C 44.339844 57.101562 44.027344 57.238281 43.714844 57.238281 C 43.476562 57.238281 43.234375 57.160156 43.035156 56.996094 C 42.574219 56.625 42.503906 55.945312 42.878906 55.484375 C 43.058594 55.257812 43.316406 55.121094 43.601562 55.089844 C 43.886719 55.058594 44.167969 55.140625 44.390625 55.324219 C 44.855469 55.695312 44.925781 56.375 44.550781 56.839844 Z M 43.71875 168.839844 C 43.523438 168.996094 43.289062 169.082031 43.042969 169.082031 C 43.003906 169.082031 42.964844 169.078125 42.925781 169.074219 C 42.640625 169.046875 42.382812 168.90625 42.203125 168.683594 C 41.828125 168.21875 41.902344 167.542969 42.359375 167.167969 L 42.363281 167.167969 C 42.824219 166.792969 43.503906 166.863281 43.875 167.328125 C 44.25 167.789062 44.175781 168.46875 43.71875 168.839844 Z M 41.730469 60.46875 C 41.5625 60.699219 41.3125 60.851562 41.027344 60.898438 C 40.972656 60.90625 40.914062 60.910156 40.859375 60.910156 C 40.632812 60.910156 40.414062 60.839844 40.226562 60.707031 C 39.992188 60.535156 39.839844 60.285156 39.796875 60.003906 C 39.75 59.71875 39.820312 59.433594 39.988281 59.199219 C 40.15625 58.96875 40.40625 58.816406 40.691406 58.769531 C 40.980469 58.722656 41.261719 58.792969 41.492188 58.960938 C 41.726562 59.132812 41.878906 59.382812 41.921875 59.664062 C 41.96875 59.949219 41.902344 60.234375 41.730469 60.46875 Z M 40.863281 165.167969 C 40.671875 165.308594 40.449219 165.375 40.230469 165.375 C 39.898438 165.375 39.566406 165.21875 39.359375 164.929688 C 39.007812 164.449219 39.117188 163.773438 39.597656 163.425781 C 40.078125 163.074219 40.75 163.183594 41.101562 163.664062 C 41.449219 164.144531 41.34375 164.820312 40.863281 165.167969 Z M 38.425781 64.707031 C 38.351562 64.722656 38.273438 64.730469 38.199219 64.730469 C 37.992188 64.730469 37.792969 64.671875 37.613281 64.554688 C 37.375 64.398438 37.207031 64.15625 37.148438 63.875 C 37.089844 63.59375 37.140625 63.304688 37.300781 63.066406 C 37.457031 62.824219 37.695312 62.660156 37.976562 62.597656 C 38.261719 62.535156 38.546875 62.59375 38.789062 62.75 C 39.03125 62.90625 39.195312 63.148438 39.253906 63.429688 C 39.316406 63.710938 39.261719 64 39.105469 64.238281 C 38.949219 64.480469 38.707031 64.644531 38.425781 64.707031 Z M 38.671875 160.671875 C 38.609375 160.953125 38.445312 161.195312 38.203125 161.351562 C 38.023438 161.46875 37.820312 161.523438 37.621094 161.523438 C 37.265625 161.523438 36.921875 161.351562 36.714844 161.03125 C 36.390625 160.535156 36.53125 159.867188 37.03125 159.542969 C 37.273438 159.386719 37.5625 159.335938 37.839844 159.394531 C 38.121094 159.453125 38.363281 159.621094 38.519531 159.859375 C 38.675781 160.101562 38.730469 160.390625 38.671875 160.671875 Z M 35.746094 68.679688 C 35.5625 68.679688 35.378906 68.636719 35.210938 68.535156 C 34.960938 68.394531 34.78125 68.160156 34.707031 67.882812 C 34.632812 67.605469 34.671875 67.316406 34.816406 67.066406 C 34.957031 66.816406 35.191406 66.640625 35.46875 66.5625 C 35.746094 66.488281 36.035156 66.527344 36.285156 66.671875 C 36.535156 66.816406 36.710938 67.046875 36.789062 67.324219 C 36.863281 67.601562 36.824219 67.894531 36.679688 68.144531 C 36.480469 68.488281 36.117188 68.679688 35.746094 68.679688 Z M 35.75 157.398438 C 35.582031 157.492188 35.398438 157.542969 35.210938 157.542969 C 35.117188 157.542969 35.023438 157.53125 34.933594 157.503906 C 34.652344 157.429688 34.421875 157.253906 34.277344 157.003906 C 34.132812 156.753906 34.097656 156.464844 34.171875 156.1875 C 34.246094 155.90625 34.421875 155.675781 34.671875 155.53125 C 35.1875 155.238281 35.847656 155.414062 36.144531 155.925781 C 36.441406 156.441406 36.261719 157.101562 35.75 157.398438 Z M 34.039062 152.695312 C 33.949219 152.96875 33.761719 153.191406 33.503906 153.320312 C 33.351562 153.402344 33.183594 153.441406 33.015625 153.441406 C 32.90625 153.441406 32.792969 153.421875 32.683594 153.386719 C 32.410156 153.300781 32.1875 153.109375 32.054688 152.851562 C 31.925781 152.59375 31.902344 152.304688 31.992188 152.03125 C 32.082031 151.757812 32.269531 151.535156 32.527344 151.402344 C 33.054688 151.136719 33.707031 151.347656 33.976562 151.875 C 34.105469 152.132812 34.128906 152.421875 34.039062 152.695312 Z M 31.476562 149.136719 C 31.332031 149.199219 31.183594 149.230469 31.039062 149.230469 C 30.625 149.230469 30.230469 148.992188 30.054688 148.589844 C 29.9375 148.328125 29.929688 148.035156 30.03125 147.765625 C 30.136719 147.496094 30.335938 147.285156 30.601562 147.167969 C 31.140625 146.925781 31.78125 147.171875 32.019531 147.714844 C 32.136719 147.976562 32.144531 148.269531 32.042969 148.539062 C 31.941406 148.808594 31.738281 149.019531 31.476562 149.136719 Z M 29.285156 144.917969 C 28.851562 144.917969 28.441406 144.65625 28.277344 144.230469 C 28.066406 143.675781 28.34375 143.050781 28.898438 142.839844 C 29.453125 142.625 30.074219 142.90625 30.289062 143.457031 C 30.5 144.011719 30.222656 144.632812 29.671875 144.847656 C 29.542969 144.898438 29.414062 144.917969 29.285156 144.917969 Z M 27.753906 140.527344 C 27.589844 140.527344 27.421875 140.488281 27.269531 140.410156 C 27.011719 140.277344 26.820312 140.054688 26.734375 139.78125 C 26.644531 139.507812 26.667969 139.214844 26.796875 138.957031 C 26.929688 138.703125 27.152344 138.511719 27.425781 138.425781 C 27.699219 138.335938 27.988281 138.359375 28.246094 138.488281 C 28.503906 138.621094 28.691406 138.84375 28.78125 139.117188 C 28.964844 139.679688 28.65625 140.289062 28.089844 140.472656 C 27.980469 140.507812 27.867188 140.527344 27.753906 140.527344 Z M 25.421875 135.257812 C 25.269531 134.683594 25.609375 134.09375 26.183594 133.941406 L 26.183594 133.9375 C 26.761719 133.789062 27.351562 134.128906 27.503906 134.703125 C 27.65625 135.273438 27.316406 135.867188 26.742188 136.019531 C 26.648438 136.046875 26.554688 136.058594 26.464844 136.058594 C 25.988281 136.058594 25.550781 135.738281 25.421875 135.257812 Z M 24.351562 130.675781 C 24.289062 130.394531 24.34375 130.105469 24.5 129.863281 C 24.65625 129.621094 24.898438 129.457031 25.179688 129.394531 C 25.765625 129.273438 26.335938 129.644531 26.457031 130.226562 C 26.515625 130.507812 26.464844 130.796875 26.304688 131.035156 C 26.148438 131.277344 25.910156 131.445312 25.628906 131.503906 C 25.550781 131.519531 25.476562 131.527344 25.40625 131.527344 C 24.90625 131.527344 24.457031 131.179688 24.351562 130.675781 Z M 23.519531 126.039062 C 23.425781 125.453125 23.828125 124.898438 24.414062 124.804688 L 24.417969 124.804688 C 25 124.71875 25.554688 125.117188 25.648438 125.703125 C 25.691406 125.984375 25.625 126.269531 25.453125 126.503906 C 25.285156 126.734375 25.035156 126.890625 24.753906 126.933594 C 24.695312 126.941406 24.636719 126.949219 24.582031 126.949219 C 24.355469 126.949219 24.136719 126.875 23.949219 126.742188 C 23.71875 126.570312 23.566406 126.324219 23.519531 126.039062 Z M 22.933594 121.367188 C 22.902344 121.082031 22.984375 120.800781 23.167969 120.578125 C 23.347656 120.355469 23.605469 120.214844 23.890625 120.183594 C 24.179688 120.152344 24.457031 120.234375 24.679688 120.417969 C 24.90625 120.597656 25.046875 120.855469 25.074219 121.140625 C 25.105469 121.425781 25.023438 121.707031 24.839844 121.933594 C 24.660156 122.15625 24.402344 122.296875 24.117188 122.324219 C 24.078125 122.328125 24.039062 122.332031 24 122.332031 C 23.757812 122.332031 23.523438 122.25 23.328125 122.09375 C 23.105469 121.910156 22.964844 121.652344 22.933594 121.367188 Z M 23.609375 115.539062 L 23.613281 115.539062 C 24.199219 115.515625 24.710938 115.964844 24.742188 116.558594 C 24.773438 117.148438 24.316406 117.65625 23.722656 117.6875 C 23.703125 117.691406 23.683594 117.691406 23.664062 117.691406 C 23.398438 117.691406 23.144531 117.59375 22.945312 117.414062 C 22.734375 117.222656 22.605469 116.957031 22.589844 116.671875 C 22.5625 116.078125 23.019531 115.570312 23.609375 115.539062 Z M 23.574219 110.886719 C 24.167969 110.886719 24.652344 111.367188 24.652344 111.960938 C 24.652344 112.558594 24.167969 113.039062 23.574219 113.039062 C 22.980469 113.039062 22.496094 112.558594 22.496094 111.960938 C 22.496094 111.367188 22.980469 110.886719 23.574219 110.886719 Z M 23.003906 106.511719 C 23.214844 106.320312 23.492188 106.214844 23.78125 106.238281 C 24.066406 106.253906 24.332031 106.378906 24.523438 106.59375 C 24.714844 106.804688 24.8125 107.082031 24.800781 107.371094 C 24.785156 107.65625 24.65625 107.921875 24.445312 108.113281 C 24.246094 108.292969 23.992188 108.390625 23.722656 108.390625 C 23.707031 108.390625 23.6875 108.390625 23.667969 108.390625 C 23.378906 108.371094 23.117188 108.246094 22.921875 108.035156 C 22.730469 107.820312 22.632812 107.542969 22.648438 107.257812 C 22.664062 106.96875 22.789062 106.707031 23.003906 106.511719 Z M 24.226562 101.605469 L 24.230469 101.605469 C 24.820312 101.667969 25.25 102.199219 25.1875 102.789062 C 25.128906 103.34375 24.660156 103.753906 24.117188 103.753906 C 24.078125 103.753906 24.042969 103.753906 24.003906 103.75 C 23.414062 103.6875 22.984375 103.15625 23.046875 102.566406 C 23.109375 101.976562 23.640625 101.546875 24.226562 101.605469 Z M 24.917969 97.003906 L 24.921875 97.003906 C 25.503906 97.097656 25.90625 97.652344 25.816406 98.238281 C 25.730469 98.765625 25.273438 99.144531 24.753906 99.144531 C 24.695312 99.144531 24.640625 99.140625 24.582031 99.132812 C 23.996094 99.039062 23.59375 98.488281 23.6875 97.898438 C 23.78125 97.3125 24.335938 96.921875 24.917969 97.003906 Z M 24.574219 93.277344 C 24.632812 92.996094 24.800781 92.753906 25.039062 92.597656 C 25.28125 92.441406 25.570312 92.386719 25.851562 92.445312 C 26.132812 92.507812 26.375 92.671875 26.53125 92.914062 C 26.6875 93.15625 26.738281 93.441406 26.679688 93.722656 C 26.621094 94.003906 26.453125 94.246094 26.214844 94.402344 C 26.035156 94.515625 25.835938 94.578125 25.628906 94.578125 C 25.554688 94.578125 25.476562 94.570312 25.402344 94.554688 C 24.820312 94.429688 24.449219 93.855469 24.574219 93.277344 Z M 25.699219 88.703125 C 25.851562 88.132812 26.445312 87.789062 27.019531 87.941406 C 27.59375 88.097656 27.933594 88.6875 27.78125 89.261719 C 27.707031 89.539062 27.527344 89.773438 27.277344 89.914062 C 27.113281 90.011719 26.929688 90.058594 26.742188 90.058594 C 26.648438 90.058594 26.554688 90.046875 26.460938 90.023438 C 26.183594 89.949219 25.953125 89.769531 25.808594 89.519531 C 25.664062 89.269531 25.625 88.980469 25.699219 88.703125 Z M 27.0625 84.199219 C 27.246094 83.632812 27.855469 83.320312 28.421875 83.503906 C 28.988281 83.6875 29.296875 84.296875 29.113281 84.863281 C 29.023438 85.136719 28.835938 85.359375 28.578125 85.488281 C 28.421875 85.566406 28.257812 85.605469 28.089844 85.605469 C 27.976562 85.605469 27.867188 85.589844 27.757812 85.554688 C 27.484375 85.464844 27.261719 85.273438 27.128906 85.019531 C 27 84.761719 26.976562 84.472656 27.0625 84.199219 Z M 28.664062 79.765625 C 28.765625 79.5 28.96875 79.285156 29.230469 79.167969 C 29.492188 79.054688 29.785156 79.042969 30.054688 79.148438 C 30.324219 79.25 30.535156 79.453125 30.652344 79.714844 C 30.769531 79.980469 30.777344 80.273438 30.671875 80.539062 C 30.570312 80.808594 30.367188 81.019531 30.105469 81.136719 C 29.964844 81.199219 29.816406 81.230469 29.667969 81.230469 C 29.539062 81.230469 29.40625 81.207031 29.28125 81.160156 C 29.011719 81.058594 28.800781 80.855469 28.683594 80.589844 C 28.566406 80.328125 28.558594 80.035156 28.664062 79.765625 Z M 30.488281 75.429688 C 30.730469 74.886719 31.371094 74.640625 31.910156 74.882812 C 32.453125 75.121094 32.699219 75.761719 32.457031 76.304688 C 32.28125 76.707031 31.886719 76.945312 31.472656 76.945312 C 31.324219 76.945312 31.179688 76.914062 31.035156 76.851562 C 30.492188 76.609375 30.25 75.96875 30.488281 75.429688 Z M 32.542969 71.191406 C 32.8125 70.660156 33.464844 70.453125 33.992188 70.71875 C 34.246094 70.851562 34.4375 71.074219 34.527344 71.347656 C 34.613281 71.621094 34.59375 71.910156 34.460938 72.167969 C 34.332031 72.425781 34.109375 72.617188 33.835938 72.703125 C 33.726562 72.738281 33.613281 72.757812 33.5 72.757812 C 33.332031 72.757812 33.167969 72.71875 33.011719 72.636719 C 32.484375 72.371094 32.273438 71.71875 32.542969 71.191406 Z M 191.363281 71.675781 C 191.894531 71.40625 192.542969 71.617188 192.8125 72.144531 C 193.082031 72.675781 192.871094 73.324219 192.34375 73.59375 C 192.1875 73.675781 192.019531 73.710938 191.855469 73.710938 C 191.464844 73.710938 191.085938 73.496094 190.894531 73.125 C 190.625 72.59375 190.835938 71.945312 191.363281 71.675781 Z M 193.394531 75.863281 C 193.9375 75.617188 194.574219 75.867188 194.816406 76.410156 C 195.054688 76.949219 194.8125 77.589844 194.269531 77.828125 C 194.128906 77.890625 193.980469 77.921875 193.832031 77.921875 C 193.703125 77.921875 193.570312 77.898438 193.445312 77.851562 C 193.175781 77.75 192.964844 77.546875 192.847656 77.285156 C 192.605469 76.742188 192.851562 76.105469 193.394531 75.863281 Z M 196.027344 80.171875 C 196.289062 80.289062 196.488281 80.5 196.59375 80.769531 C 196.695312 81.039062 196.6875 81.328125 196.570312 81.59375 C 196.453125 81.855469 196.242188 82.054688 195.972656 82.160156 C 195.847656 82.207031 195.714844 82.234375 195.585938 82.234375 C 195.4375 82.234375 195.289062 82.203125 195.148438 82.140625 C 194.882812 82.023438 194.683594 81.8125 194.582031 81.539062 C 194.367188 80.984375 194.644531 80.363281 195.199219 80.148438 C 195.46875 80.046875 195.761719 80.054688 196.027344 80.171875 Z M 198.136719 85.214844 C 198.226562 85.488281 198.203125 85.78125 198.070312 86.039062 C 197.941406 86.292969 197.71875 86.484375 197.445312 86.574219 C 197.335938 86.609375 197.222656 86.628906 197.113281 86.628906 C 196.660156 86.628906 196.234375 86.335938 196.085938 85.882812 C 195.90625 85.316406 196.214844 84.707031 196.78125 84.523438 C 197.34375 84.34375 197.953125 84.652344 198.136719 85.214844 Z M 198.945312 89.085938 C 199.195312 89.230469 199.375 89.460938 199.445312 89.742188 C 199.519531 90.015625 199.484375 90.308594 199.339844 90.554688 C 199.195312 90.804688 198.964844 90.984375 198.683594 91.058594 C 198.589844 91.082031 198.5 91.09375 198.40625 91.09375 C 197.933594 91.09375 197.496094 90.777344 197.367188 90.296875 C 197.210938 89.726562 197.550781 89.132812 198.128906 88.980469 C 198.402344 88.902344 198.695312 88.941406 198.945312 89.085938 Z M 200.519531 94.324219 C 200.640625 94.90625 200.269531 95.476562 199.691406 95.601562 C 199.613281 95.617188 199.539062 95.625 199.460938 95.625 C 199.257812 95.625 199.058594 95.566406 198.878906 95.453125 C 198.636719 95.296875 198.472656 95.054688 198.414062 94.773438 C 198.351562 94.492188 198.40625 94.203125 198.5625 93.960938 C 198.71875 93.722656 198.960938 93.554688 199.242188 93.496094 C 199.828125 93.375 200.394531 93.742188 200.519531 94.324219 Z M 201.347656 98.957031 C 201.441406 99.546875 201.042969 100.097656 200.453125 100.191406 C 200.398438 100.199219 200.339844 100.207031 200.285156 100.207031 C 200.058594 100.207031 199.839844 100.132812 199.652344 100 C 199.421875 99.832031 199.265625 99.582031 199.222656 99.296875 C 199.179688 99.011719 199.246094 98.726562 199.414062 98.496094 C 199.582031 98.261719 199.832031 98.109375 200.117188 98.066406 C 200.398438 98.019531 200.6875 98.085938 200.917969 98.257812 C 201.152344 98.425781 201.304688 98.675781 201.347656 98.957031 Z M 201.9375 103.628906 C 201.996094 104.222656 201.566406 104.753906 200.976562 104.816406 C 200.9375 104.820312 200.902344 104.820312 200.863281 104.820312 C 200.617188 104.820312 200.378906 104.738281 200.1875 104.582031 C 199.964844 104.398438 199.824219 104.140625 199.792969 103.855469 C 199.765625 103.570312 199.847656 103.289062 200.027344 103.066406 C 200.210938 102.84375 200.464844 102.703125 200.753906 102.671875 C 201.328125 102.613281 201.871094 103.039062 201.9375 103.628906 Z M 202.003906 109.105469 C 201.808594 109.316406 201.546875 109.445312 201.257812 109.460938 C 201.238281 109.460938 201.21875 109.460938 201.199219 109.460938 C 200.933594 109.460938 200.679688 109.363281 200.480469 109.183594 C 200.269531 108.992188 200.140625 108.726562 200.128906 108.441406 C 200.109375 108.152344 200.210938 107.878906 200.402344 107.664062 C 200.59375 107.449219 200.859375 107.324219 201.144531 107.308594 C 201.730469 107.28125 202.246094 107.734375 202.277344 108.328125 C 202.292969 108.613281 202.195312 108.890625 202.003906 109.105469 Z M 202.371094 113.035156 C 202.371094 113.628906 201.886719 114.113281 201.292969 114.113281 C 200.703125 114.113281 200.21875 113.628906 200.21875 113.035156 C 200.21875 112.441406 200.703125 111.957031 201.292969 111.957031 C 201.886719 111.957031 202.371094 112.441406 202.371094 113.035156 Z M 112.433594 19.410156 C 61.105469 19.410156 19.347656 61.171875 19.347656 112.5 C 19.347656 163.828125 61.105469 205.585938 112.433594 205.585938 C 163.761719 205.585938 205.523438 163.828125 205.523438 112.5 C 205.523438 61.171875 163.761719 19.410156 112.433594 19.410156 " fill-opacity="1" fill-rule="nonzero"/><g fill="#ffffff" fill-opacity="1"><g transform="translate(53.406227, 80.513049)"><g><path d="M -6.53125 -18.21875 L -10.96875 -11.203125 L -5.90625 -8 L -1.59375 -14.796875 L -0.203125 -13.90625 L -4.515625 -7.109375 L 1.921875 -3.03125 L 1 -1.578125 L -13.265625 -10.625 L -7.90625 -19.09375 Z M -6.53125 -18.21875 "/></g></g></g><g fill="#ffffff" fill-opacity="1"><g transform="translate(59.30823, 70.91048)"><g><path d="M 3.25 -11.671875 C 2.445312 -12.410156 1.503906 -12.765625 0.421875 -12.734375 C -0.679688 -12.671875 -1.601562 -12.238281 -2.34375 -11.4375 C -3.082031 -10.632812 -3.429688 -9.6875 -3.390625 -8.59375 C -3.347656 -7.5 -2.925781 -6.582031 -2.125 -5.84375 C -1.320312 -5.113281 -0.378906 -4.769531 0.703125 -4.8125 C 1.804688 -4.851562 2.726562 -5.273438 3.46875 -6.078125 C 4.207031 -6.878906 4.554688 -7.835938 4.515625 -8.953125 C 4.472656 -10.035156 4.050781 -10.941406 3.25 -11.671875 Z M 4.4375 -12.953125 C 5.613281 -11.878906 6.226562 -10.5625 6.28125 -9 C 6.3125 -7.414062 5.800781 -6.050781 4.75 -4.90625 C 3.695312 -3.769531 2.382812 -3.15625 0.8125 -3.0625 C -0.75 -2.988281 -2.117188 -3.488281 -3.296875 -4.5625 C -4.453125 -5.632812 -5.0625 -6.960938 -5.125 -8.546875 C -5.1875 -10.109375 -4.6875 -11.46875 -3.625 -12.625 C -2.550781 -13.78125 -1.226562 -14.398438 0.34375 -14.484375 C 1.914062 -14.535156 3.28125 -14.023438 4.4375 -12.953125 Z M 4.4375 -12.953125 "/></g></g></g><g fill="#ffffff" fill-opacity="1"><g transform="translate(68.070979, 61.633769)"><g><path d="M 0.375 -11.4375 C -0.15625 -11.476562 -0.597656 -11.351562 -0.953125 -11.0625 C -1.304688 -10.78125 -1.523438 -10.441406 -1.609375 -10.046875 C -1.691406 -9.628906 -1.710938 -9.207031 -1.671875 -8.78125 C -1.535156 -7.957031 -1.1875 -7.203125 -0.625 -6.515625 L 2.796875 -2.25 L 1.453125 -1.171875 L -5.390625 -9.6875 L -4.046875 -10.765625 L -2.640625 -9 L -2.84375 -9.390625 C -3.238281 -10.816406 -2.960938 -11.914062 -2.015625 -12.6875 C -1.710938 -12.925781 -1.382812 -13.097656 -1.03125 -13.203125 Z M 0.375 -11.4375 "/></g></g></g><g fill="#ffffff" fill-opacity="1"><g transform="translate(73.696155, 57.108271)"><g/></g></g><g fill="#ffffff" fill-opacity="1"><g transform="translate(78.487123, 53.642899)"><g><path d="M 8.953125 -10.453125 L 9.34375 -9.625 L 0.640625 -5.578125 C 1.179688 -4.796875 1.914062 -4.289062 2.84375 -4.0625 C 3.800781 -3.832031 4.695312 -3.910156 5.53125 -4.296875 C 6.101562 -4.554688 6.585938 -4.945312 6.984375 -5.46875 C 7.367188 -5.957031 7.632812 -6.515625 7.78125 -7.140625 L 9.578125 -7.984375 C 9.585938 -6.835938 9.300781 -5.800781 8.71875 -4.875 C 8.125 -3.925781 7.390625 -3.242188 6.515625 -2.828125 C 5.628906 -2.421875 4.816406 -2.207031 4.078125 -2.1875 C 3.328125 -2.175781 2.609375 -2.289062 1.921875 -2.53125 C 0.441406 -3.039062 -0.632812 -4.019531 -1.3125 -5.46875 C -1.96875 -6.894531 -2.023438 -8.359375 -1.484375 -9.859375 C -0.953125 -11.328125 0.0234375 -12.390625 1.453125 -13.046875 C 2.835938 -13.691406 4.273438 -13.769531 5.765625 -13.28125 C 7.253906 -12.757812 8.316406 -11.816406 8.953125 -10.453125 Z M 7.0625 -10.21875 C 6.488281 -10.96875 5.738281 -11.46875 4.8125 -11.71875 C 3.90625 -11.945312 3.03125 -11.863281 2.1875 -11.46875 C 0.894531 -10.863281 0.148438 -9.820312 -0.046875 -8.34375 C -0.0976562 -7.875 -0.0703125 -7.410156 0.03125 -6.953125 Z M 7.0625 -10.21875 "/></g></g></g><g fill="#ffffff" fill-opacity="1"><g transform="translate(89.83842, 48.410954)"><g><path d="M 5.375 -0.390625 L -2.65625 -10.59375 L -0.828125 -11.09375 L 4.34375 -4.125 L 5.234375 -12.765625 L 7.03125 -13.265625 Z M 5.375 -0.390625 "/></g></g></g><g fill="#ffffff" fill-opacity="1"><g transform="translate(98.983105, 45.679382)"><g><path d="M 11.890625 -6.9375 L 11.984375 -6.03125 L 2.4375 -5.0625 C 2.6875 -4.144531 3.21875 -3.425781 4.03125 -2.90625 C 4.84375 -2.363281 5.710938 -2.140625 6.640625 -2.234375 C 7.253906 -2.296875 7.835938 -2.507812 8.390625 -2.875 C 8.921875 -3.21875 9.351562 -3.660156 9.6875 -4.203125 L 11.65625 -4.40625 C 11.289062 -3.320312 10.679688 -2.441406 9.828125 -1.765625 C 8.953125 -1.054688 8.035156 -0.648438 7.078125 -0.546875 C 6.109375 -0.453125 5.269531 -0.515625 4.5625 -0.734375 C 3.84375 -0.960938 3.203125 -1.304688 2.640625 -1.765625 C 1.421875 -2.734375 0.726562 -4.007812 0.5625 -5.59375 C 0.40625 -7.15625 0.828125 -8.554688 1.828125 -9.796875 C 2.816406 -11.003906 4.09375 -11.6875 5.65625 -11.84375 C 7.164062 -12 8.546875 -11.601562 9.796875 -10.65625 C 11.035156 -9.675781 11.734375 -8.4375 11.890625 -6.9375 Z M 10 -7.34375 C 9.71875 -8.238281 9.179688 -8.957031 8.390625 -9.5 C 7.597656 -10.007812 6.742188 -10.21875 5.828125 -10.125 C 4.398438 -9.976562 3.351562 -9.234375 2.6875 -7.890625 C 2.488281 -7.472656 2.359375 -7.023438 2.296875 -6.546875 Z M 10 -7.34375 "/></g></g></g><g fill="#ffffff" fill-opacity="1"><g transform="translate(111.575965, 44.544203)"><g><path d="M 7.84375 -8.3125 C 7.476562 -8.695312 7.066406 -8.898438 6.609375 -8.921875 C 6.160156 -8.941406 5.773438 -8.832031 5.453125 -8.59375 C 5.109375 -8.34375 4.816406 -8.039062 4.578125 -7.6875 C 4.128906 -6.976562 3.882812 -6.179688 3.84375 -5.296875 L 3.59375 0.171875 L 1.859375 0.078125 L 2.359375 -10.828125 L 4.09375 -10.734375 L 3.984375 -8.484375 L 4.09375 -8.921875 C 4.738281 -10.253906 5.671875 -10.890625 6.890625 -10.828125 C 7.273438 -10.816406 7.628906 -10.726562 7.953125 -10.5625 Z M 7.84375 -8.3125 "/></g></g></g><g fill="#ffffff" fill-opacity="1"><g transform="translate(118.591729, 44.730879)"><g><path d="M 2.125 6.671875 L 0.046875 6.3125 L 5.046875 -0.921875 L 2.140625 -10.71875 L 4.09375 -10.375 L 6.265625 -2.5625 L 10.609375 -9.234375 L 12.53125 -8.90625 Z M 2.125 6.671875 "/></g></g></g><g fill="#ffffff" fill-opacity="1"><g transform="translate(128.318715, 46.512828)"><g/></g></g><g fill="#ffffff" fill-opacity="1"><g transform="translate(134.252944, 48.242463)"><g><path d="M 4.078125 -8.390625 L 4.703125 -9.875 L 7.234375 -8.8125 L 8.875 -12.734375 L 10.46875 -12.046875 L 8.828125 -8.125 L 11.3125 -7.078125 L 10.6875 -5.59375 L 8.203125 -6.640625 L 4.578125 1.9375 L 2.984375 1.25 L 6.609375 -7.328125 Z M 4.078125 -8.390625 "/></g></g></g><g fill="#ffffff" fill-opacity="1"><g transform="translate(141.059733, 50.783692)"><g><path d="M 11.84375 0.890625 C 12.394531 -0.00390625 12.578125 -0.984375 12.390625 -2.046875 C 12.171875 -3.109375 11.597656 -3.925781 10.671875 -4.5 C 9.742188 -5.082031 8.757812 -5.222656 7.71875 -4.921875 C 6.664062 -4.640625 5.863281 -4.050781 5.3125 -3.15625 C 4.75 -2.25 4.570312 -1.257812 4.78125 -0.1875 C 4.988281 0.863281 5.554688 1.679688 6.484375 2.265625 C 7.410156 2.835938 8.398438 2.976562 9.453125 2.6875 C 10.484375 2.394531 11.28125 1.796875 11.84375 0.890625 Z M 10.453125 6.46875 L 8.96875 5.546875 L 9.953125 3.96875 C 9.796875 4.03125 9.644531 4.082031 9.5 4.125 C 8.007812 4.5625 6.625 4.390625 5.34375 3.609375 C 4.0625 2.804688 3.285156 1.640625 3.015625 0.109375 C 2.753906 -1.367188 3.023438 -2.757812 3.828125 -4.0625 C 4.628906 -5.351562 5.753906 -6.21875 7.203125 -6.65625 C 8.679688 -7.09375 10.0625 -6.910156 11.34375 -6.109375 C 12.625 -5.328125 13.40625 -4.171875 13.6875 -2.640625 C 13.707031 -2.484375 13.722656 -2.320312 13.734375 -2.15625 L 14.71875 -3.75 L 16.203125 -2.828125 Z M 10.453125 6.46875 "/></g></g></g><g fill="#ffffff" fill-opacity="1"><g transform="translate(152.166884, 57.75401)"><g><path d="M 3.625 1.109375 C 3.757812 1.609375 4.085938 2.085938 4.609375 2.546875 C 5.796875 3.585938 6.78125 3.660156 7.5625 2.765625 C 8.019531 2.242188 7.941406 1.472656 7.328125 0.453125 C 7.078125 0.015625 6.789062 -0.429688 6.46875 -0.890625 C 6.132812 -1.359375 5.859375 -1.835938 5.640625 -2.328125 C 5.378906 -2.890625 5.28125 -3.410156 5.34375 -3.890625 C 5.394531 -4.378906 5.601562 -4.832031 5.96875 -5.25 C 6.6875 -6.070312 7.507812 -6.4375 8.4375 -6.34375 C 9.382812 -6.257812 10.253906 -5.863281 11.046875 -5.15625 C 11.847656 -4.457031 12.363281 -3.722656 12.59375 -2.953125 C 12.832031 -2.160156 12.679688 -1.269531 12.140625 -0.28125 L 10.734375 -1.5 C 10.992188 -2.101562 11.046875 -2.601562 10.890625 -3 C 10.742188 -3.382812 10.46875 -3.753906 10.0625 -4.109375 C 9.644531 -4.472656 9.222656 -4.695312 8.796875 -4.78125 C 8.328125 -4.851562 7.929688 -4.707031 7.609375 -4.34375 C 7.285156 -3.96875 7.175781 -3.582031 7.28125 -3.1875 C 7.363281 -2.820312 7.535156 -2.421875 7.796875 -1.984375 C 8.054688 -1.554688 8.359375 -1.113281 8.703125 -0.65625 C 9.023438 -0.195312 9.296875 0.285156 9.515625 0.796875 C 10.015625 1.929688 9.875 2.941406 9.09375 3.828125 C 8.3125 4.710938 7.421875 5.085938 6.421875 4.953125 C 5.910156 4.878906 5.414062 4.726562 4.9375 4.5 C 4.476562 4.28125 4.023438 3.972656 3.578125 3.578125 C 1.660156 1.898438 1.304688 0.0859375 2.515625 -1.859375 L 3.890625 -0.640625 C 3.566406 0.015625 3.476562 0.597656 3.625 1.109375 Z M 3.625 1.109375 "/></g></g></g><g fill="#ffffff" fill-opacity="1"><g transform="translate(159.125692, 63.882211)"><g><path d="M 7.3125 -5.78125 L 8.515625 -6.859375 L 10.328125 -4.8125 L 13.515625 -7.625 L 14.65625 -6.328125 L 11.46875 -3.515625 L 13.265625 -1.484375 L 12.0625 -0.40625 L 10.265625 -2.4375 L 3.28125 3.71875 L 2.140625 2.421875 L 9.125 -3.734375 Z M 7.3125 -5.78125 "/></g></g></g><g fill="#ffffff" fill-opacity="1"><g transform="translate(164.151303, 69.169789)"><g><path d="M 11.59375 7.4375 L 10.828125 7.9375 L 5.625 -0.125 C 4.914062 0.519531 4.515625 1.316406 4.421875 2.265625 C 4.316406 3.234375 4.515625 4.109375 5.015625 4.890625 C 5.347656 5.421875 5.800781 5.847656 6.375 6.171875 C 6.914062 6.484375 7.503906 6.664062 8.140625 6.71875 L 9.21875 8.390625 C 8.082031 8.554688 7.015625 8.410156 6.015625 7.953125 C 4.992188 7.503906 4.222656 6.875 3.703125 6.0625 C 3.179688 5.238281 2.851562 4.46875 2.71875 3.75 C 2.601562 2.988281 2.625 2.257812 2.78125 1.5625 C 3.082031 0.03125 3.90625 -1.164062 5.25 -2.03125 C 6.570312 -2.882812 8.007812 -3.148438 9.5625 -2.828125 C 11.082031 -2.492188 12.269531 -1.664062 13.125 -0.34375 C 13.945312 0.9375 14.222656 2.347656 13.953125 3.890625 C 13.648438 5.441406 12.863281 6.625 11.59375 7.4375 Z M 11.078125 5.59375 C 11.753906 4.925781 12.148438 4.117188 12.265625 3.171875 C 12.367188 2.234375 12.171875 1.375 11.671875 0.59375 C 10.898438 -0.601562 9.757812 -1.195312 8.25 -1.1875 C 7.789062 -1.175781 7.332031 -1.085938 6.875 -0.921875 Z M 11.078125 5.59375 "/></g></g></g><g fill="#ffffff" fill-opacity="1"><g transform="translate(38.0761, 147.665629)"><g><path d="M 13.484375 -7.265625 L 14.890625 -8.09375 L 16.953125 -4.5625 L 17.828125 -3.0625 L 19.890625 0.46875 L 18.484375 1.296875 L 16.421875 -2.234375 L 3.234375 5.4375 L 2.359375 3.9375 L 15.546875 -3.734375 Z M 13.484375 -7.265625 "/></g></g></g><g fill="#ffffff" fill-opacity="1"><g transform="translate(44.509828, 158.567769)"><g><path d="M 2.296875 2.765625 L 1.1875 1.4375 L 15.546875 -10.421875 L 16.65625 -9.09375 L 9.265625 -2.984375 C 9.960938 -3.097656 10.640625 -3.0625 11.296875 -2.875 C 11.992188 -2.65625 12.585938 -2.25 13.078125 -1.65625 C 13.578125 -1.0625 13.894531 -0.507812 14.03125 0 C 14.164062 0.507812 14.191406 1.015625 14.109375 1.515625 C 13.921875 2.523438 13.335938 3.4375 12.359375 4.25 L 7.09375 8.59375 L 5.984375 7.25 L 11.25 2.90625 C 11.789062 2.445312 12.164062 1.929688 12.375 1.359375 C 12.539062 0.796875 12.390625 0.234375 11.921875 -0.328125 C 11.441406 -0.910156 10.96875 -1.304688 10.5 -1.515625 C 10.007812 -1.722656 9.507812 -1.796875 9 -1.734375 C 8.050781 -1.648438 6.988281 -1.117188 5.8125 -0.140625 Z M 2.296875 2.765625 "/></g></g></g><g fill="#ffffff" fill-opacity="1"><g transform="translate(53.860912, 169.681715)"><g><path d="M 13.265625 3.703125 L 12.6875 4.390625 L 5.34375 -1.78125 C 4.84375 -0.945312 4.6875 -0.0664062 4.875 0.859375 C 5.0625 1.816406 5.507812 2.59375 6.21875 3.1875 C 6.695312 3.59375 7.257812 3.867188 7.90625 4.015625 C 8.507812 4.171875 9.128906 4.175781 9.765625 4.03125 L 11.28125 5.296875 C 10.257812 5.796875 9.195312 5.972656 8.09375 5.828125 C 6.988281 5.691406 6.0625 5.3125 5.3125 4.6875 C 4.570312 4.0625 4.035156 3.425781 3.703125 2.78125 C 3.367188 2.09375 3.171875 1.390625 3.109375 0.671875 C 2.953125 -0.890625 3.382812 -2.28125 4.40625 -3.5 C 5.414062 -4.707031 6.71875 -5.375 8.3125 -5.5 C 9.863281 -5.632812 11.238281 -5.195312 12.4375 -4.1875 C 13.601562 -3.207031 14.28125 -1.941406 14.46875 -0.390625 C 14.632812 1.179688 14.234375 2.546875 13.265625 3.703125 Z M 12.234375 2.078125 C 12.679688 1.242188 12.820312 0.359375 12.65625 -0.578125 C 12.476562 -1.492188 12.035156 -2.253906 11.328125 -2.859375 C 10.242188 -3.773438 8.976562 -4.007812 7.53125 -3.5625 C 7.09375 -3.414062 6.6875 -3.195312 6.3125 -2.90625 Z M 12.234375 2.078125 "/></g></g></g><g fill="#ffffff" fill-opacity="1"><g transform="translate(65.63488, 179.154189)"><g><path d="M 10.90625 -3.46875 C 10.757812 -3.976562 10.488281 -4.351562 10.09375 -4.59375 C 9.71875 -4.832031 9.332031 -4.929688 8.9375 -4.890625 C 8.507812 -4.828125 8.109375 -4.695312 7.734375 -4.5 C 6.992188 -4.09375 6.394531 -3.515625 5.9375 -2.765625 L 3.0625 1.890625 L 1.578125 0.96875 L 7.296875 -8.328125 L 8.78125 -7.40625 L 7.609375 -5.5 L 7.90625 -5.828125 C 9.113281 -6.671875 10.234375 -6.773438 11.265625 -6.140625 C 11.597656 -5.941406 11.867188 -5.6875 12.078125 -5.375 Z M 10.90625 -3.46875 "/></g></g></g><g fill="#ffffff" fill-opacity="1"><g transform="translate(73.531252, 184.12988)"><g><path d="M 13.765625 -0.328125 L 13.40625 0.515625 L 4.59375 -3.25 C 4.363281 -2.320312 4.476562 -1.4375 4.9375 -0.59375 C 5.382812 0.269531 6.035156 0.882812 6.890625 1.25 C 7.460938 1.488281 8.078125 1.585938 8.734375 1.546875 C 9.359375 1.515625 9.953125 1.335938 10.515625 1.015625 L 12.34375 1.796875 C 11.488281 2.566406 10.523438 3.046875 9.453125 3.234375 C 8.347656 3.421875 7.347656 3.328125 6.453125 2.953125 C 5.566406 2.566406 4.867188 2.101562 4.359375 1.5625 C 3.835938 1.019531 3.4375 0.414062 3.15625 -0.25 C 2.5625 -1.707031 2.578125 -3.171875 3.203125 -4.640625 C 3.816406 -6.078125 4.863281 -7.09375 6.34375 -7.6875 C 7.789062 -8.269531 9.238281 -8.25 10.6875 -7.625 C 12.082031 -7.03125 13.097656 -6.007812 13.734375 -4.5625 C 14.347656 -3.125 14.359375 -1.710938 13.765625 -0.328125 Z M 12.3125 -1.578125 C 12.488281 -2.492188 12.363281 -3.382812 11.9375 -4.25 C 11.507812 -5.070312 10.867188 -5.664062 10.015625 -6.03125 C 8.703125 -6.59375 7.421875 -6.453125 6.171875 -5.609375 C 5.796875 -5.335938 5.46875 -5.007812 5.1875 -4.625 Z M 12.3125 -1.578125 "/></g></g></g><g fill="#ffffff" fill-opacity="1"><g transform="translate(87.422498, 189.673374)"><g><path d="M 9.3125 -16.71875 L 4.890625 -11.28125 L 3.90625 -11.5625 L 7.03125 -17.359375 Z M 9.3125 -16.71875 "/></g></g></g><g fill="#ffffff" fill-opacity="1"><g transform="translate(93.478096, 191.445787)"><g><path d="M 3.671875 -0.96875 C 4.035156 -0.601562 4.5625 -0.363281 5.25 -0.25 C 6.8125 0.0195312 7.691406 -0.425781 7.890625 -1.59375 C 8.003906 -2.28125 7.535156 -2.90625 6.484375 -3.46875 C 6.035156 -3.695312 5.550781 -3.925781 5.03125 -4.15625 C 4.5 -4.375 4.019531 -4.632812 3.59375 -4.9375 C 3.070312 -5.289062 2.707031 -5.6875 2.5 -6.125 C 2.289062 -6.5625 2.234375 -7.050781 2.328125 -7.59375 C 2.503906 -8.664062 3.015625 -9.410156 3.859375 -9.828125 C 4.703125 -10.253906 5.648438 -10.375 6.703125 -10.1875 C 7.742188 -10.007812 8.566406 -9.648438 9.171875 -9.109375 C 9.785156 -8.566406 10.125 -7.734375 10.1875 -6.609375 L 8.359375 -6.921875 C 8.265625 -7.554688 8.039062 -8 7.6875 -8.25 C 7.375 -8.507812 6.953125 -8.6875 6.421875 -8.78125 C 5.867188 -8.875 5.390625 -8.835938 4.984375 -8.671875 C 4.546875 -8.492188 4.285156 -8.164062 4.203125 -7.6875 C 4.117188 -7.195312 4.222656 -6.8125 4.515625 -6.53125 C 4.796875 -6.269531 5.15625 -6.015625 5.59375 -5.765625 C 6.039062 -5.535156 6.53125 -5.316406 7.0625 -5.109375 C 7.582031 -4.898438 8.066406 -4.640625 8.515625 -4.328125 C 9.535156 -3.609375 9.945312 -2.664062 9.75 -1.5 C 9.550781 -0.34375 8.992188 0.4375 8.078125 0.84375 C 7.597656 1.050781 7.09375 1.1875 6.5625 1.25 C 6.050781 1.300781 5.5 1.273438 4.90625 1.171875 C 2.40625 0.742188 1.160156 -0.609375 1.171875 -2.890625 L 2.984375 -2.578125 C 3.035156 -1.847656 3.265625 -1.3125 3.671875 -0.96875 Z M 3.671875 -0.96875 "/></g></g></g><g fill="#ffffff" fill-opacity="1"><g transform="translate(104.651761, 193.172476)"><g/></g></g><g fill="#ffffff" fill-opacity="1"><g transform="translate(112.928095, 193.756387)"><g><path d="M 9.984375 -6.421875 C 9.890625 -7.472656 9.441406 -8.363281 8.640625 -9.09375 C 7.835938 -9.8125 6.890625 -10.117188 5.796875 -10.015625 C 4.710938 -9.910156 3.84375 -9.4375 3.1875 -8.59375 C 2.519531 -7.71875 2.234375 -6.753906 2.328125 -5.703125 C 2.429688 -4.648438 2.890625 -3.765625 3.703125 -3.046875 C 4.503906 -2.316406 5.445312 -2.003906 6.53125 -2.109375 C 7.625 -2.210938 8.5 -2.691406 9.15625 -3.546875 C 9.8125 -4.410156 10.085938 -5.367188 9.984375 -6.421875 Z M 12.25 -1.140625 L 10.5 -0.984375 L 10.328125 -2.828125 C 10.242188 -2.691406 10.15625 -2.5625 10.0625 -2.4375 C 9.132812 -1.1875 7.921875 -0.488281 6.421875 -0.34375 C 4.921875 -0.207031 3.601562 -0.671875 2.46875 -1.734375 C 1.375 -2.753906 0.753906 -4.023438 0.609375 -5.546875 C 0.472656 -7.066406 0.847656 -8.429688 1.734375 -9.640625 C 2.648438 -10.890625 3.859375 -11.582031 5.359375 -11.71875 C 6.859375 -11.863281 8.179688 -11.40625 9.328125 -10.34375 C 9.441406 -10.238281 9.550781 -10.125 9.65625 -10 L 9.484375 -11.859375 L 11.234375 -12.015625 Z M 12.25 -1.140625 "/></g></g></g><g fill="#ffffff" fill-opacity="1"><g transform="translate(128.526264, 191.914453)"><g/></g></g><g fill="#ffffff" fill-opacity="1"><g transform="translate(136.62412, 190.107866)"><g><path d="M 5.640625 4.40625 L 4.03125 5.0625 L -2.359375 -10.8125 L -0.75 -11.46875 L -0.0625 -9.75 C -0.0078125 -9.914062 0.046875 -10.070312 0.109375 -10.21875 C 0.640625 -11.675781 1.597656 -12.6875 2.984375 -13.25 C 4.390625 -13.8125 5.785156 -13.75 7.171875 -13.0625 C 8.523438 -12.394531 9.484375 -11.359375 10.046875 -9.953125 C 10.617188 -8.523438 10.648438 -7.101562 10.140625 -5.6875 C 9.617188 -4.226562 8.65625 -3.21875 7.25 -2.65625 C 5.863281 -2.09375 4.472656 -2.15625 3.078125 -2.84375 C 2.929688 -2.90625 2.785156 -2.976562 2.640625 -3.0625 Z M 8.4375 -9.296875 C 8.039062 -10.265625 7.359375 -10.988281 6.390625 -11.46875 C 5.398438 -11.925781 4.394531 -11.945312 3.375 -11.53125 C 2.363281 -11.125 1.671875 -10.421875 1.296875 -9.421875 C 0.890625 -8.390625 0.882812 -7.390625 1.28125 -6.421875 C 1.675781 -5.429688 2.375 -4.710938 3.375 -4.265625 C 4.34375 -3.785156 5.332031 -3.75 6.34375 -4.15625 C 7.363281 -4.570312 8.070312 -5.289062 8.46875 -6.3125 C 8.84375 -7.3125 8.832031 -8.304688 8.4375 -9.296875 Z M 8.4375 -9.296875 "/></g></g></g><g fill="#ffffff" fill-opacity="1"><g transform="translate(150.971439, 183.896507)"><g><path d="M 3.125 -1.78125 L 1.609375 -0.921875 L -7.640625 -17.09375 L -6.125 -17.953125 Z M 3.125 -1.78125 "/></g></g></g><g fill="#ffffff" fill-opacity="1"><g transform="translate(157.128703, 180.596704)"><g><path d="M 5.015625 -10.765625 C 4.378906 -11.597656 3.523438 -12.109375 2.453125 -12.296875 C 1.378906 -12.484375 0.410156 -12.242188 -0.453125 -11.578125 C -1.316406 -10.910156 -1.796875 -10.035156 -1.890625 -8.953125 C -1.984375 -7.867188 -1.710938 -6.910156 -1.078125 -6.078125 C -0.421875 -5.234375 0.4375 -4.722656 1.5 -4.546875 C 2.570312 -4.359375 3.539062 -4.597656 4.40625 -5.265625 C 5.269531 -5.929688 5.75 -6.804688 5.84375 -7.890625 C 5.945312 -8.960938 5.671875 -9.921875 5.015625 -10.765625 Z M 9.75 -7.5 L 8.359375 -6.4375 L 7.21875 -7.90625 C 7.226562 -7.738281 7.226562 -7.578125 7.21875 -7.421875 C 7.101562 -5.867188 6.445312 -4.632812 5.25 -3.71875 C 4.0625 -2.800781 2.703125 -2.488281 1.171875 -2.78125 C -0.304688 -3.0625 -1.515625 -3.804688 -2.453125 -5.015625 C -3.378906 -6.222656 -3.789062 -7.582031 -3.6875 -9.09375 C -3.5625 -10.625 -2.90625 -11.847656 -1.71875 -12.765625 C -0.519531 -13.679688 0.835938 -14.003906 2.359375 -13.734375 C 2.515625 -13.703125 2.671875 -13.664062 2.828125 -13.625 L 1.703125 -15.09375 L 3.09375 -16.15625 Z M 9.75 -7.5 "/></g></g></g><g fill="#ffffff" fill-opacity="1"><g transform="translate(169.724696, 170.593478)"><g><path d="M 2.78125 -13.65625 L 1.53125 -12.25 C 0.8125 -12.5 0.0859375 -12.53125 -0.640625 -12.34375 C -1.378906 -12.15625 -1.960938 -11.820312 -2.390625 -11.34375 C -2.828125 -10.851562 -3.125 -10.367188 -3.28125 -9.890625 C -3.4375 -9.410156 -3.488281 -8.929688 -3.4375 -8.453125 C -3.351562 -7.378906 -2.921875 -6.5 -2.140625 -5.8125 C -1.347656 -5.101562 -0.425781 -4.769531 0.625 -4.8125 C 1.6875 -4.84375 2.570312 -5.253906 3.28125 -6.046875 C 3.75 -6.566406 4.046875 -7.171875 4.171875 -7.859375 C 4.285156 -8.535156 4.222656 -9.195312 3.984375 -9.84375 L 5.28125 -11.3125 C 6.1875 -9.6875 6.285156 -8.019531 5.578125 -6.3125 C 5.347656 -5.769531 5.003906 -5.238281 4.546875 -4.71875 C 4.085938 -4.207031 3.519531 -3.800781 2.84375 -3.5 C 2.15625 -3.195312 1.445312 -3.039062 0.71875 -3.03125 C -0.832031 -2.96875 -2.179688 -3.453125 -3.328125 -4.484375 C -4.492188 -5.515625 -5.132812 -6.796875 -5.25 -8.328125 C -5.351562 -9.890625 -4.890625 -11.25 -3.859375 -12.40625 C -3.015625 -13.351562 -1.972656 -13.945312 -0.734375 -14.1875 C 0.472656 -14.40625 1.644531 -14.226562 2.78125 -13.65625 Z M 2.78125 -13.65625 "/></g></g></g><g fill="#ffffff" fill-opacity="1"><g transform="translate(179.484059, 159.416904)"><g><path d="M 1.625 -13.671875 L 2.390625 -13.203125 L -2.59375 -5 C -1.695312 -4.644531 -0.796875 -4.628906 0.109375 -4.953125 C 1.015625 -5.296875 1.710938 -5.863281 2.203125 -6.65625 C 2.523438 -7.1875 2.710938 -7.78125 2.765625 -8.4375 C 2.816406 -9.0625 2.722656 -9.671875 2.484375 -10.265625 L 3.515625 -11.953125 C 4.148438 -11.015625 4.484375 -10 4.515625 -8.90625 C 4.554688 -7.78125 4.320312 -6.800781 3.8125 -5.96875 C 3.3125 -5.144531 2.757812 -4.519531 2.15625 -4.09375 C 1.550781 -3.65625 0.894531 -3.347656 0.1875 -3.171875 C -1.332031 -2.785156 -2.773438 -3.003906 -4.140625 -3.828125 C -5.484375 -4.640625 -6.34375 -5.816406 -6.71875 -7.359375 C -7.09375 -8.878906 -6.867188 -10.3125 -6.046875 -11.65625 C -5.265625 -12.957031 -4.117188 -13.820312 -2.609375 -14.25 C -1.078125 -14.644531 0.332031 -14.453125 1.625 -13.671875 Z M 0.171875 -12.40625 C -0.722656 -12.726562 -1.617188 -12.734375 -2.515625 -12.421875 C -3.398438 -12.109375 -4.082031 -11.554688 -4.5625 -10.765625 C -5.300781 -9.546875 -5.34375 -8.253906 -4.6875 -6.890625 C -4.46875 -6.484375 -4.1875 -6.113281 -3.84375 -5.78125 Z M 0.171875 -12.40625 "/></g></g></g><g clip-path="url(#480eb6e9f8)"><g clip-path="url(#2d3f7448d6)"><path fill="#ffffff" d="M 33.789062 107.847656 L 44.441406 107.847656 L 44.441406 117.152344 L 33.789062 117.152344 Z M 33.789062 107.847656 " fill-opacity="1" fill-rule="nonzero"/></g></g><g clip-path="url(#acc73e777b)"><g clip-path="url(#c7fc8fa26f)"><path fill="#ffffff" d="M 180.453125 107.847656 L 191.109375 107.847656 L 191.109375 117.152344 L 180.453125 117.152344 Z M 180.453125 107.847656 " fill-opacity="1" fill-rule="nonzero"/></g></g><g clip-path="url(#343d93beae)"><path fill="#ffffff" d="M 93.183594 76.917969 C 92.648438 76.949219 92.226562 77.382812 92.203125 77.914062 L 90.945312 100.820312 C 90.816406 103.171875 91.703125 104.929688 92.917969 106.105469 C 93.953125 107.101562 95.140625 107.664062 96.195312 108.226562 L 94.738281 143.058594 C 94.597656 146.496094 97.578125 149.214844 101.019531 149.214844 C 104.460938 149.214844 107.441406 146.496094 107.296875 143.058594 L 105.839844 108.226562 C 106.898438 107.664062 108.089844 107.101562 109.125 106.105469 C 110.339844 104.929688 111.214844 103.171875 111.089844 100.820312 L 109.839844 77.914062 C 109.804688 77.339844 109.3125 76.898438 108.734375 76.929688 C 108.160156 76.960938 107.71875 77.453125 107.753906 78.03125 L 109.007812 100.933594 C 109.109375 102.761719 108.550781 103.75 107.671875 104.601562 C 106.789062 105.453125 105.511719 106.078125 104.269531 106.757812 C 103.921875 106.945312 103.710938 107.316406 103.730469 107.710938 L 105.210938 143.140625 C 105.300781 145.316406 103.378906 147.128906 101.019531 147.128906 C 98.664062 147.128906 96.734375 145.316406 96.828125 143.140625 L 98.308594 107.710938 C 98.328125 107.316406 98.117188 106.949219 97.769531 106.757812 C 96.527344 106.074219 95.246094 105.453125 94.367188 104.601562 C 93.484375 103.75 92.929688 102.761719 93.03125 100.933594 L 94.285156 78.03125 C 94.328125 77.40625 93.8125 76.882812 93.183594 76.917969 Z M 93.183594 76.917969 " fill-opacity="1" fill-rule="evenodd"/></g><path fill="#ffffff" d="M 98.410156 76.917969 C 97.835938 76.925781 97.375 77.402344 97.382812 77.976562 L 97.382812 95.945312 C 97.359375 96.539062 97.835938 97.027344 98.429688 97.027344 C 99.019531 97.027344 99.496094 96.539062 99.46875 95.945312 L 99.46875 77.976562 C 99.480469 77.386719 99 76.90625 98.410156 76.917969 Z M 98.410156 76.917969 " fill-opacity="1" fill-rule="evenodd"/><path fill="#ffffff" d="M 103.601562 76.917969 C 103.019531 76.921875 102.554688 77.394531 102.5625 77.976562 L 102.5625 95.945312 C 102.5625 96.523438 103.03125 96.996094 103.609375 96.996094 C 104.191406 96.996094 104.660156 96.527344 104.660156 95.945312 L 104.660156 77.976562 C 104.667969 77.386719 104.191406 76.90625 103.601562 76.917969 Z M 103.601562 76.917969 " fill-opacity="1" fill-rule="evenodd"/><g clip-path="url(#38c2f5e54e)"><path fill="#ffffff" d="M 122.261719 78.265625 C 122.769531 78.105469 123.832031 78.363281 125.046875 79.570312 C 127.953125 82.457031 131.953125 88.039062 131.953125 97.71875 C 131.953125 106.640625 129.957031 111.859375 127.1875 114.609375 C 126.972656 114.824219 126.863281 115.121094 126.886719 115.429688 L 128.945312 143.132812 C 129.03125 144.277344 128.640625 144.976562 127.972656 145.519531 C 127.304688 146.058594 126.28125 146.382812 125.230469 146.382812 C 124.179688 146.386719 123.132812 146.070312 122.394531 145.515625 C 121.667969 144.953125 121.214844 144.21875 121.214844 143.058594 L 121.214844 80.945312 C 121.214844 79.996094 121.378906 79.320312 121.589844 78.90625 C 121.796875 78.5 122.007812 78.339844 122.261719 78.265625 Z M 121.636719 76.269531 C 120.828125 76.527344 120.148438 77.148438 119.734375 77.957031 C 119.316406 78.769531 119.125 79.761719 119.125 80.945312 L 119.125 143.058594 C 119.125 144.828125 119.957031 146.28125 121.136719 147.179688 C 122.3125 148.078125 123.785156 148.472656 125.242188 148.46875 C 126.695312 148.464844 128.164062 148.054688 129.289062 147.140625 C 130.421875 146.21875 131.15625 144.738281 131.027344 142.984375 L 128.988281 115.519531 C 132.082031 112.140625 134.039062 106.570312 134.039062 97.722656 C 134.039062 87.460938 129.714844 81.269531 126.519531 78.09375 C 124.996094 76.582031 123.257812 75.761719 121.636719 76.269531 Z M 121.636719 76.269531 " fill-opacity="1" fill-rule="evenodd"/></g></svg>